<svg width="443" height="442" viewBox="0 0 443 442" fill="none" xmlns="http://www.w3.org/2000/svg">
<path d="M221.5 386C316.161 386 392.899 381.511 392.899 375.973C392.899 370.435 316.161 365.946 221.5 365.946C126.839 365.946 50.1012 370.435 50.1012 375.973C50.1012 381.511 126.839 386 221.5 386Z" fill="#F5F5F5"/>
<path d="M309.237 152.043L300.468 148.5C300.468 148.5 288.896 169.643 285.581 170.715C281.073 172.168 271.738 176.207 266.204 176.915C265.452 177.801 264.224 180.556 264.338 181.557C271.773 184.046 288.109 180.742 291.61 178.138C299.575 172.23 309.237 152.043 309.237 152.043Z" fill="#E58A7B"/>
<path d="M311.933 147.234C313.568 153.283 304.711 165.454 304.711 165.454L293.104 158.935C293.104 158.935 295.279 153.93 297.931 148.837C302.183 140.608 310.068 140.334 311.933 147.234Z" fill="#4CAF4F"/>
<path opacity="0.2" d="M311.933 147.234C313.568 153.283 304.711 165.454 304.711 165.454L293.104 158.935C293.104 158.935 295.279 153.93 297.931 148.837C302.183 140.608 310.068 140.334 311.933 147.234Z" fill="black"/>
<path opacity="0.2" d="M297.71 161.539L302.28 164.107L303.084 150.05C300.424 152.097 298.55 158.261 297.71 161.539Z" fill="black"/>
<path d="M304.295 142.681C304.295 142.681 295.261 162.823 300.53 200.326H336.128C336.694 194.852 334.82 168.138 341.6 142.344C337.695 141.579 333.744 141.074 329.772 140.83C324.735 140.537 319.685 140.537 314.647 140.83C311.155 141.185 307.695 141.804 304.295 142.681Z" fill="#4CAF4F"/>
<path opacity="0.2" d="M304.295 142.681C304.295 142.681 295.261 162.823 300.53 200.326H336.128C336.694 194.852 334.82 168.138 341.6 142.344C337.695 141.579 333.744 141.074 329.772 140.83C324.735 140.537 319.685 140.537 314.647 140.83C311.155 141.185 307.695 141.804 304.295 142.681Z" fill="black"/>
<g style="mix-blend-mode:multiply">
<path d="M296.039 376.771C295.986 377.728 309.484 378.498 326.183 378.498C342.882 378.498 356.478 377.728 356.531 376.771C356.584 375.814 343.094 375.052 326.386 375.052C309.679 375.052 296.101 375.823 296.039 376.771Z" fill="#E8ECF1"/>
</g>
<path d="M319.801 351.635L313.487 354.084L318.926 368.162L325.24 365.713L319.801 351.635Z" fill="#E58A7B"/>
<path d="M347.956 369.959H341.3L338.86 354.52H345.516L347.956 369.959Z" fill="#E58A7B"/>
<path d="M340.84 369.188H348.319C348.449 369.189 348.574 369.235 348.673 369.32C348.771 369.404 348.837 369.521 348.858 369.649L349.822 375.575C349.842 375.723 349.83 375.875 349.787 376.018C349.744 376.162 349.67 376.295 349.571 376.407C349.472 376.52 349.35 376.61 349.213 376.671C349.076 376.732 348.928 376.763 348.778 376.762C346.171 376.717 344.915 376.558 341.627 376.558C339.603 376.558 335.439 376.77 332.628 376.77C329.817 376.77 329.631 374.007 330.789 373.75C335.987 372.625 338.003 371.093 339.735 369.605C340.041 369.336 340.434 369.188 340.84 369.188Z" fill="#263238"/>
<path d="M318.74 366.903L325.812 364.83C325.938 364.794 326.073 364.803 326.193 364.854C326.314 364.906 326.413 364.997 326.475 365.113L329.127 370.428C329.189 370.563 329.22 370.709 329.219 370.858C329.218 371.006 329.185 371.152 329.122 371.286C329.059 371.421 328.967 371.539 328.854 371.634C328.74 371.729 328.607 371.798 328.464 371.836C325.892 372.545 324.168 372.979 320.95 373.918C318.731 374.564 316.468 375.618 314.276 376.318C312.755 376.805 309.184 376.823 307.336 376.823C304.605 376.823 303.995 373.936 305.171 373.803C308.132 373.475 308.53 373.625 310.165 372.802C312.841 371.63 315.266 369.952 317.308 367.859C317.693 367.42 318.187 367.09 318.74 366.903Z" fill="#263238"/>
<path d="M267.318 176.88L259.998 173.807L256.984 181.938C259.984 182.396 263.036 182.396 266.036 181.938L267.318 176.88Z" fill="#E58A7B"/>
<path d="M254.553 173.594L254.358 178.997L256.984 181.92L259.998 173.789L254.553 173.594Z" fill="#E58A7B"/>
<path d="M320.667 352.83L314.334 355.28L317.139 362.56L323.472 360.11L320.667 352.83Z" fill="#CF6F64"/>
<path d="M345.516 354.52H338.86L340.124 362.483H346.78L345.516 354.52Z" fill="#CF6F64"/>
<path opacity="0.2" d="M299.398 190.184C299.531 191.787 299.681 193.426 299.875 195.109L326.342 186.499C330.476 185.272 334.068 182.669 336.526 179.121C336.632 176.756 336.765 174.267 336.968 171.672C337.056 170.414 337.162 169.121 337.277 167.81C337.392 166.499 337.551 165.046 337.719 163.647L299.398 190.184Z" fill="black"/>
<path d="M308.043 161.131L307.159 161.025C307.681 156.596 310.978 153.106 314.452 153.195V154.081C311.411 154.019 308.512 157.163 308.043 161.131Z" fill="white"/>
<path d="M312.755 169.307H312.605V168.421C315.646 168.536 318.501 165.356 318.97 161.397L319.854 161.503C319.385 165.835 316.194 169.307 312.755 169.307Z" fill="white"/>
<path d="M329.277 123.761C328.031 128.641 326.563 137.579 329.772 140.83C329.772 140.83 327.527 145.781 318.484 145.781C310.218 145.781 314.647 140.83 314.647 140.83C320.146 139.536 320.243 135.515 319.518 131.706L329.277 123.761Z" fill="#E58A7B"/>
<path d="M325.299 127.003L319.527 131.706C319.706 132.581 319.809 133.47 319.836 134.363C321.524 136.046 324.91 131.786 325.255 129.607C325.43 128.749 325.445 127.866 325.299 127.003Z" fill="#CF6F64"/>
<path d="M309.599 123.699C310.001 124.397 310.542 125.004 311.188 125.482C311.835 125.961 312.573 126.301 313.356 126.48C315.478 126.95 316.539 124.992 315.955 123.026C315.434 121.254 313.692 118.872 311.535 119.279C311.073 119.375 310.641 119.579 310.274 119.877C309.907 120.174 309.617 120.555 309.427 120.988C309.238 121.421 309.154 121.893 309.184 122.364C309.214 122.836 309.357 123.294 309.599 123.699Z" fill="#CF6F64"/>
<path d="M313.109 108.083C309.803 109.598 308.636 122.76 312.791 124.709C316.945 126.657 319.368 105.204 313.109 108.083Z" fill="#263238"/>
<path d="M330.285 116.418C329.49 123.025 329.401 126.914 325.865 130.298C324.769 131.42 323.385 132.218 321.866 132.602C320.346 132.987 318.75 132.943 317.254 132.475C315.758 132.008 314.419 131.135 313.387 129.954C312.354 128.772 311.668 127.328 311.403 125.78C310.333 119.846 311.81 110.04 318.422 107.41C319.811 106.795 321.339 106.565 322.847 106.742C324.355 106.919 325.789 107.497 326.999 108.416C328.209 109.335 329.152 110.561 329.73 111.968C330.308 113.375 330.499 114.911 330.285 116.418Z" fill="#E58A7B"/>
<path d="M319.421 111.502C324.318 110.253 327.916 109.403 326.625 113.486C324.919 118.942 322.868 124.222 325.617 124.461C327.297 124.611 334.723 121.458 333.777 118.26C332.955 115.479 336.429 114.717 337.048 113.309C339.337 108.207 332.787 108.88 333.954 105.78C335.12 102.68 328.65 97.6841 325.114 100.173C319.359 104.194 309.484 104.132 314.674 97.5158C318.395 92.7947 311.756 93.7602 311.756 93.7602C311.756 93.7602 315.77 96.1429 309.016 99.8277C301.873 103.76 308.424 114.328 319.421 111.502Z" fill="#263238"/>
<path d="M332.884 123.699C331.917 125.101 330.465 126.092 328.809 126.48C326.625 126.95 325.785 124.992 326.608 123.026C327.341 121.254 329.357 118.872 331.443 119.279C333.529 119.687 334.007 121.963 332.884 123.699Z" fill="#E58A7B"/>
<path d="M300.53 200.326C300.53 200.326 294.554 253.915 294.085 274.252C293.608 295.404 314.338 361.402 314.338 361.402L324.946 356.973C324.946 356.973 312.57 296.671 314.338 275.899C316.212 253.251 323.956 200.362 323.956 200.362L300.53 200.326Z" fill="#4CAF4F"/>
<path opacity="0.2" d="M315.381 215.039C310.616 224.942 313.825 244.526 316.406 256.129C317.387 247.936 318.554 239.043 319.659 230.814C319.553 218.166 318.572 208.396 315.381 215.039Z" fill="black"/>
<path d="M324.477 353.466C324.53 353.466 325.732 356.849 325.732 356.849L313.498 362.005L311.571 358.408L324.477 353.466Z" fill="#4CAF4F"/>
<path d="M313.162 200.326C313.162 200.326 317.732 251.293 320.756 270.381C324.079 291.294 337.11 360.941 337.11 360.941H349.3C349.3 360.941 341.998 292.986 340.619 272.277C339.116 249.814 336.128 200.326 336.128 200.326H313.162Z" fill="#4CAF4F"/>
<path d="M349.485 357.761C349.538 357.761 349.892 361.171 349.892 361.171H336.491L335.536 357.256L349.485 357.761Z" fill="#4CAF4F"/>
<path opacity="0.2" d="M344.818 353.723C344.79 353.723 344.763 353.713 344.742 353.695C344.721 353.678 344.707 353.653 344.703 353.625C344.632 353.005 338.046 291.622 336.809 273.021C335.465 252.843 332.76 208.086 332.734 207.634C332.732 207.619 332.734 207.604 332.739 207.59C332.744 207.577 332.751 207.564 332.761 207.553C332.771 207.542 332.784 207.533 332.797 207.528C332.81 207.522 332.825 207.519 332.84 207.519C332.869 207.519 332.897 207.53 332.918 207.549C332.939 207.569 332.952 207.596 332.955 207.625C332.955 208.077 335.686 252.799 337.03 273.012C338.267 291.613 344.853 352.952 344.915 353.616C344.918 353.631 344.917 353.646 344.913 353.66C344.91 353.675 344.903 353.688 344.894 353.7C344.885 353.712 344.873 353.721 344.86 353.728C344.847 353.735 344.833 353.739 344.818 353.74V353.723Z" fill="black"/>
<path d="M320.172 118.261C320.172 118.801 319.836 119.235 319.483 119.235C319.129 119.235 318.873 118.801 318.908 118.261C318.943 117.72 319.244 117.286 319.597 117.286C319.951 117.286 320.207 117.729 320.172 118.261Z" fill="#263238"/>
<path d="M314.108 118.261C314.108 118.801 313.763 119.235 313.418 119.235C313.073 119.235 312.808 118.801 312.835 118.261C312.861 117.72 313.179 117.286 313.533 117.286C313.887 117.286 314.143 117.729 314.108 118.261Z" fill="#263238"/>
<path d="M316.017 118.535C315.28 120.185 314.328 121.73 313.189 123.132C314.073 124.018 315.726 123.61 315.726 123.61L316.017 118.535Z" fill="#DF5753"/>
<path d="M316.176 125.87C316.156 125.87 316.136 125.866 316.117 125.858C316.098 125.849 316.081 125.837 316.067 125.823C316.053 125.808 316.042 125.79 316.035 125.771C316.028 125.751 316.025 125.731 316.026 125.71C316.028 125.667 316.047 125.627 316.078 125.597C316.11 125.567 316.151 125.551 316.194 125.551C316.87 125.556 317.539 125.408 318.151 125.12C318.763 124.832 319.302 124.41 319.73 123.885C319.761 123.858 319.8 123.844 319.841 123.844C319.881 123.844 319.92 123.858 319.951 123.885C319.98 123.915 319.996 123.955 319.996 123.996C319.996 124.037 319.98 124.077 319.951 124.107C319.493 124.664 318.916 125.112 318.263 125.417C317.61 125.722 316.897 125.877 316.176 125.87Z" fill="#263238"/>
<path d="M321.25 116.631C321.208 116.653 321.161 116.664 321.113 116.664C321.066 116.664 321.019 116.653 320.976 116.631C320.646 116.417 320.269 116.283 319.878 116.242C319.486 116.2 319.09 116.252 318.722 116.392C318.686 116.41 318.647 116.42 318.607 116.423C318.567 116.425 318.527 116.42 318.489 116.407C318.451 116.394 318.416 116.373 318.387 116.346C318.357 116.319 318.333 116.286 318.316 116.25C318.283 116.171 318.282 116.082 318.313 116.003C318.345 115.924 318.406 115.86 318.484 115.825C318.946 115.635 319.447 115.561 319.944 115.607C320.441 115.653 320.919 115.819 321.339 116.09C321.373 116.113 321.402 116.143 321.424 116.178C321.446 116.212 321.462 116.25 321.469 116.291C321.477 116.331 321.476 116.373 321.467 116.413C321.459 116.453 321.442 116.491 321.418 116.525C321.374 116.575 321.315 116.612 321.25 116.631Z" fill="#263238"/>
<path d="M311.765 114.86C311.718 114.848 311.675 114.824 311.641 114.789C311.612 114.76 311.589 114.725 311.573 114.687C311.557 114.649 311.549 114.608 311.549 114.567C311.549 114.526 311.557 114.485 311.573 114.447C311.589 114.409 311.612 114.375 311.641 114.346C311.98 113.965 312.402 113.667 312.875 113.477C313.347 113.286 313.857 113.208 314.364 113.247C314.405 113.253 314.444 113.268 314.479 113.29C314.513 113.312 314.543 113.341 314.567 113.375C314.59 113.409 314.606 113.447 314.613 113.488C314.621 113.528 314.621 113.57 314.612 113.61C314.593 113.692 314.545 113.765 314.476 113.814C314.408 113.862 314.324 113.885 314.24 113.876C313.839 113.851 313.437 113.917 313.064 114.071C312.692 114.224 312.36 114.461 312.092 114.762C312.052 114.807 312 114.84 311.942 114.857C311.885 114.874 311.823 114.875 311.765 114.86Z" fill="#263238"/>
<path d="M345.021 151.06L335.828 148.607C335.828 148.607 326.811 170.848 323.62 172.292C319.288 174.276 308.318 181.149 303.65 184.4C303.394 185.507 303.597 188.439 304.18 189.245C312.136 187.793 327.368 181.92 330.55 178.935C337.808 172.123 345.021 151.06 345.021 151.06Z" fill="#E58A7B"/>
<path d="M338.603 370.358C338.155 370.393 337.708 370.271 337.339 370.012C337.225 369.909 337.14 369.778 337.092 369.632C337.044 369.486 337.035 369.33 337.065 369.179C337.071 369.085 337.102 368.994 337.155 368.916C337.207 368.838 337.28 368.776 337.366 368.736C338.108 368.355 340.186 369.675 340.424 369.826C340.451 369.842 340.471 369.867 340.482 369.895C340.493 369.924 340.495 369.956 340.486 369.986C340.479 370.016 340.463 370.045 340.442 370.068C340.42 370.091 340.393 370.109 340.363 370.118C339.786 370.26 339.197 370.341 338.603 370.358ZM337.719 368.976C337.652 368.961 337.583 368.961 337.516 368.976C337.482 368.993 337.454 369.02 337.435 369.053C337.416 369.086 337.408 369.124 337.41 369.162C337.386 369.265 337.39 369.372 337.421 369.473C337.452 369.574 337.509 369.665 337.587 369.737C337.932 370.048 338.798 370.083 339.938 369.862C339.259 369.413 338.495 369.112 337.693 368.976H337.719Z" fill="#4CAF4F"/>
<path d="M340.318 370.119C340.295 370.126 340.271 370.126 340.248 370.119C339.585 369.747 338.338 368.285 338.524 367.54C338.552 367.423 338.618 367.317 338.713 367.242C338.807 367.166 338.925 367.125 339.045 367.124C339.164 367.108 339.285 367.118 339.399 367.153C339.514 367.188 339.619 367.248 339.708 367.328C340.442 367.957 340.486 369.888 340.486 369.986C340.491 370.015 340.485 370.045 340.471 370.07C340.456 370.096 340.434 370.116 340.407 370.128C340.377 370.134 340.346 370.131 340.318 370.119ZM339.134 367.416H339.072C338.869 367.416 338.842 367.532 338.833 367.576C338.727 368.01 339.514 369.118 340.168 369.64C340.165 368.892 339.934 368.162 339.505 367.549C339.403 367.46 339.27 367.412 339.134 367.416Z" fill="#4CAF4F"/>
<path d="M315.133 369.25C314.592 369.439 314.003 369.439 313.462 369.25C313.34 369.184 313.236 369.087 313.16 368.969C313.084 368.852 313.039 368.717 313.029 368.577C313.018 368.489 313.029 368.4 313.062 368.318C313.094 368.236 313.147 368.164 313.215 368.107C313.922 367.469 316.813 368.107 317.14 368.231C317.171 368.239 317.199 368.258 317.218 368.284C317.237 368.309 317.247 368.341 317.246 368.373C317.247 368.406 317.239 368.439 317.222 368.468C317.204 368.496 317.179 368.519 317.149 368.533C316.498 368.827 315.824 369.067 315.133 369.25ZM313.692 368.196C313.591 368.216 313.497 368.262 313.418 368.329C313.39 368.35 313.369 368.379 313.356 368.412C313.343 368.445 313.341 368.48 313.348 368.515C313.353 368.608 313.382 368.698 313.432 368.777C313.481 368.856 313.549 368.921 313.63 368.967C314.099 369.215 315.186 369.02 316.592 368.426C315.645 368.187 314.665 368.109 313.692 368.196Z" fill="#4CAF4F"/>
<path d="M317.122 368.533H317.051C316.167 368.374 314.399 367.355 314.346 366.593C314.346 366.416 314.426 366.168 314.85 366.026C314.994 365.975 315.146 365.953 315.298 365.962C315.449 365.971 315.598 366.011 315.734 366.079C316.689 366.549 317.193 368.25 317.219 368.33C317.226 368.356 317.225 368.384 317.217 368.411C317.209 368.437 317.195 368.461 317.175 368.48C317.162 368.502 317.144 368.52 317.122 368.533ZM315.027 366.292H314.939C314.665 366.389 314.665 366.504 314.665 366.54C314.665 367.001 315.946 367.842 316.839 368.126C316.634 367.414 316.198 366.791 315.602 366.354C315.424 366.263 315.22 366.241 315.027 366.292Z" fill="#4CAF4F"/>
<path d="M304.401 183.878L295.181 188.129L294.112 190.787L297.515 193.081C297.515 193.081 303.88 192.39 305.692 188.289L304.401 183.878Z" fill="#E58A7B"/>
<path d="M304.791 189.396C304.584 187.621 304 185.911 303.076 184.383L304.534 183.284C305.631 185.046 306.331 187.026 306.585 189.086L304.791 189.396Z" fill="#263238"/>
<path d="M306.364 185.136C306.559 185.443 306.655 185.803 306.638 186.167C306.622 186.531 306.494 186.88 306.272 187.169C306.05 187.457 305.745 187.67 305.398 187.778C305.051 187.887 304.68 187.885 304.334 187.775C303.988 187.664 303.684 187.449 303.464 187.159C303.244 186.869 303.119 186.518 303.105 186.154C303.091 185.79 303.19 185.431 303.387 185.125C303.584 184.819 303.87 184.582 304.207 184.445C304.585 184.252 305.023 184.216 305.427 184.346C305.831 184.475 306.168 184.759 306.364 185.136Z" fill="#263238"/>
<path d="M288.949 191.566L290.178 192.806L298.452 189.263L295.181 188.129L288.949 191.566Z" fill="#E58A7B"/>
<path opacity="0.2" d="M324.477 353.466C324.53 353.466 325.732 356.849 325.732 356.849L313.498 362.005L311.571 358.408L324.477 353.466Z" fill="black"/>
<path opacity="0.2" d="M349.485 357.761C349.538 357.761 349.892 361.171 349.892 361.171H336.491L335.536 357.256L349.485 357.761Z" fill="black"/>
<path d="M347.417 148.509C349.848 156.366 340.345 167.11 340.345 167.11L327.218 161.743C328.774 157.201 330.568 152.746 332.592 148.394C336.623 139.687 344.959 140.582 347.417 148.509Z" fill="#4CAF4F"/>
<path opacity="0.2" d="M347.417 148.509C349.848 156.366 340.345 167.11 340.345 167.11L327.218 161.743C328.774 157.201 330.568 152.746 332.592 148.394C336.623 139.687 344.959 140.582 347.417 148.509Z" fill="black"/>
<path d="M216.974 69.7911H211.325V70.7037H216.974V69.7911Z" fill="#4CAF4F"/>
<path d="M290.097 105.901L289.413 121.103L290.323 121.144L291.006 105.942L290.097 105.901Z" fill="#4CAF4F"/>
<path d="M288.339 73.8835H184.027L174.321 291.533H278.633L288.339 73.8835Z" fill="#4CAF4F"/>
<path opacity="0.56" d="M285.228 76.8773H180.916L171.209 294.527H275.521L285.228 76.8773Z" fill="#FAFAFA"/>
<path opacity="0.07" d="M282.116 79.8625H177.804L168.089 297.512H272.401L282.116 79.8625Z" fill="#4CAF4F"/>
<path d="M270.244 174.79H181.207L180.465 191.442H269.501L270.244 174.79Z" fill="white"/>
<path d="M230.172 162.637H181.747L181.419 170.087H229.845L230.172 162.637Z" fill="#4CAF4F"/>
<path d="M268.237 219.733H179.201L178.458 236.385H267.494L268.237 219.733Z" fill="white"/>
<path opacity="0.47" d="M251.909 258.875H192.036L191.143 278.831H251.017L251.909 258.875Z" fill="#4CAF4F"/>
<path d="M247.905 281.931H188.032C188.006 281.938 187.978 281.938 187.952 281.931C187.944 281.905 187.944 281.877 187.952 281.851L188.836 261.886C188.836 261.873 188.839 261.859 188.845 261.847C188.85 261.834 188.858 261.823 188.868 261.814C188.878 261.805 188.89 261.798 188.903 261.794C188.915 261.789 188.929 261.788 188.942 261.789H248.816C248.827 261.783 248.839 261.781 248.851 261.781C248.863 261.781 248.876 261.783 248.886 261.789C248.893 261.8 248.896 261.812 248.896 261.824C248.896 261.837 248.893 261.849 248.886 261.86L248.02 281.869C248.01 281.89 247.993 281.907 247.972 281.918C247.952 281.929 247.928 281.934 247.905 281.931ZM188.138 281.719H247.799L248.683 261.966H189.022L188.138 281.719Z" fill="white"/>
<path d="M219.714 207.58H179.74L179.413 215.039H219.378L219.714 207.58Z" fill="#4CAF4F"/>
<path d="M250.769 120.998C250.541 125.844 248.821 130.501 245.845 134.328C243.643 137.219 240.808 139.567 237.56 141.19C234.311 142.813 230.735 143.668 227.105 143.691C224.171 143.713 221.264 143.134 218.563 141.988C215.861 140.842 213.423 139.154 211.397 137.028C209.371 134.902 207.802 132.383 206.784 129.626C205.767 126.869 205.324 123.933 205.482 120.998C205.793 114.907 208.414 109.166 212.81 104.947C217.205 100.729 223.043 98.3528 229.129 98.3043C232.065 98.2769 234.975 98.8529 237.679 99.9968C240.384 101.141 242.826 102.828 244.854 104.955C246.882 107.082 248.453 109.603 249.471 112.362C250.488 115.121 250.93 118.06 250.769 120.998Z" fill="white"/>
<path d="M252.9 103.052C252.842 104.34 252.385 105.579 251.591 106.595C251.004 107.363 250.25 107.986 249.386 108.417C248.522 108.849 247.571 109.077 246.605 109.084C245.67 109.089 244.748 108.866 243.919 108.432C243.09 107.998 242.379 107.367 241.85 106.595C241.148 105.551 240.801 104.309 240.859 103.052C240.945 101.435 241.643 99.9112 242.811 98.7919C243.979 97.6727 245.529 97.042 247.145 97.0285C247.924 97.0214 248.697 97.1743 249.416 97.4778C250.134 97.7813 250.783 98.229 251.322 98.7933C251.861 99.3576 252.279 100.027 252.551 100.759C252.822 101.491 252.941 102.272 252.9 103.052Z" fill="#4CAF4F"/>
<path d="M190.799 183.116C190.756 183.829 190.445 184.5 189.929 184.994C189.412 185.487 188.728 185.765 188.014 185.773C187.67 185.777 187.328 185.71 187.01 185.577C186.692 185.443 186.405 185.246 186.167 184.997C185.928 184.748 185.743 184.452 185.623 184.129C185.503 183.805 185.45 183.46 185.468 183.116C185.507 182.4 185.816 181.727 186.334 181.233C186.852 180.739 187.538 180.462 188.253 180.458C188.597 180.456 188.938 180.523 189.255 180.657C189.572 180.791 189.859 180.988 190.097 181.237C190.336 181.486 190.521 181.781 190.641 182.104C190.762 182.427 190.816 182.771 190.799 183.116Z" fill="#263238"/>
<path d="M202.715 183.116C202.675 183.83 202.364 184.503 201.847 184.996C201.33 185.49 200.645 185.767 199.93 185.773C199.587 185.776 199.246 185.708 198.929 185.574C198.612 185.44 198.326 185.243 198.089 184.994C197.851 184.745 197.667 184.45 197.547 184.127C197.428 183.804 197.375 183.46 197.393 183.116C197.431 182.402 197.74 181.73 198.256 181.236C198.771 180.742 199.456 180.464 200.169 180.458C200.514 180.454 200.855 180.521 201.173 180.655C201.491 180.788 201.778 180.985 202.017 181.234C202.255 181.483 202.44 181.779 202.56 182.103C202.681 182.426 202.733 182.771 202.715 183.116Z" fill="#263238"/>
<path d="M214.64 183.116C214.6 183.83 214.289 184.503 213.772 184.996C213.255 185.49 212.57 185.767 211.856 185.773C211.511 185.776 211.17 185.708 210.853 185.574C210.536 185.44 210.249 185.243 210.011 184.994C209.773 184.745 209.588 184.45 209.467 184.127C209.346 183.804 209.293 183.46 209.31 183.116C209.35 182.401 209.66 181.729 210.178 181.235C210.695 180.742 211.38 180.464 212.094 180.458C212.439 180.454 212.781 180.521 213.098 180.655C213.416 180.788 213.703 180.985 213.942 181.234C214.18 181.483 214.365 181.779 214.486 182.103C214.606 182.426 214.658 182.771 214.64 183.116Z" fill="#263238"/>
<path d="M188.792 228.059C188.75 228.773 188.439 229.444 187.922 229.937C187.405 230.43 186.721 230.709 186.007 230.716C185.663 230.719 185.322 230.652 185.005 230.518C184.688 230.384 184.401 230.186 184.163 229.938C183.925 229.689 183.739 229.394 183.619 229.071C183.498 228.748 183.445 228.404 183.462 228.059C183.502 227.345 183.812 226.672 184.329 226.179C184.847 225.685 185.532 225.407 186.246 225.402C186.59 225.399 186.931 225.467 187.249 225.601C187.566 225.734 187.852 225.932 188.091 226.181C188.329 226.429 188.514 226.724 188.635 227.047C188.755 227.37 188.809 227.715 188.792 228.059Z" fill="#263238"/>
<path d="M200.708 228.059C200.668 228.772 200.359 229.443 199.844 229.936C199.328 230.43 198.645 230.709 197.933 230.716C197.588 230.721 197.246 230.654 196.929 230.52C196.611 230.387 196.324 230.189 196.085 229.94C195.846 229.691 195.661 229.396 195.541 229.072C195.421 228.749 195.369 228.404 195.387 228.059C195.427 227.345 195.737 226.672 196.255 226.179C196.772 225.685 197.457 225.407 198.171 225.402C198.515 225.399 198.856 225.467 199.173 225.601C199.489 225.735 199.775 225.932 200.013 226.181C200.251 226.43 200.435 226.725 200.555 227.048C200.674 227.371 200.726 227.715 200.708 228.059Z" fill="#263238"/>
<path d="M212.66 228.059C212.62 228.773 212.309 229.446 211.792 229.939C211.275 230.433 210.59 230.711 209.875 230.716C209.532 230.718 209.191 230.649 208.874 230.515C208.558 230.381 208.272 230.183 208.034 229.935C207.796 229.686 207.61 229.392 207.489 229.069C207.368 228.747 207.314 228.403 207.33 228.059C207.372 227.345 207.683 226.674 208.2 226.181C208.716 225.688 209.401 225.409 210.114 225.402C210.459 225.398 210.8 225.464 211.118 225.598C211.436 225.731 211.723 225.929 211.962 226.178C212.2 226.427 212.385 226.722 212.505 227.046C212.626 227.369 212.678 227.714 212.66 228.059Z" fill="#263238"/>
<path d="M224.559 228.059C224.516 228.773 224.205 229.444 223.689 229.937C223.172 230.43 222.488 230.709 221.774 230.716C221.43 230.718 221.09 230.649 220.773 230.515C220.457 230.381 220.171 230.183 219.932 229.935C219.694 229.686 219.509 229.392 219.388 229.069C219.267 228.747 219.213 228.403 219.228 228.059C219.271 227.345 219.582 226.674 220.098 226.181C220.615 225.688 221.299 225.41 222.013 225.402C222.357 225.399 222.698 225.467 223.015 225.601C223.332 225.734 223.619 225.932 223.857 226.181C224.096 226.429 224.281 226.724 224.401 227.047C224.522 227.37 224.576 227.715 224.559 228.059Z" fill="#263238"/>
<path d="M236.528 228.059C236.486 228.773 236.175 229.444 235.658 229.937C235.141 230.43 234.457 230.709 233.743 230.716C233.399 230.721 233.057 230.654 232.739 230.52C232.422 230.387 232.135 230.189 231.896 229.94C231.657 229.691 231.472 229.396 231.352 229.072C231.232 228.749 231.179 228.404 231.197 228.059C231.238 227.345 231.548 226.672 232.065 226.179C232.583 225.685 233.268 225.407 233.982 225.402C234.326 225.399 234.667 225.467 234.985 225.601C235.302 225.734 235.588 225.932 235.827 226.181C236.065 226.429 236.25 226.724 236.371 227.047C236.491 227.37 236.545 227.715 236.528 228.059Z" fill="#263238"/>
<path d="M234.719 119.816C238.419 116.19 238.615 110.379 235.157 106.836C231.7 103.293 225.897 103.36 222.197 106.985C218.497 110.611 218.301 116.422 221.758 119.965C225.216 123.508 231.019 123.441 234.719 119.816Z" fill="#4CAF4F"/>
<path d="M245.845 134.328C243.643 137.219 240.809 139.566 237.56 141.189C234.311 142.812 230.735 143.668 227.105 143.691C223.585 143.72 220.111 142.882 216.991 141.249C213.871 139.617 211.199 137.24 209.213 134.328C213.509 130.041 220.307 127.242 227.838 127.242C235.37 127.242 241.929 130.041 245.845 134.328Z" fill="#4CAF4F"/>
<path opacity="0.1" d="M234.719 119.816C238.419 116.19 238.615 110.379 235.157 106.836C231.7 103.293 225.897 103.36 222.197 106.985C218.497 110.611 218.301 116.422 221.758 119.965C225.216 123.508 231.019 123.441 234.719 119.816Z" fill="white"/>
<path opacity="0.1" d="M245.845 134.328C243.643 137.219 240.809 139.566 237.56 141.189C234.311 142.812 230.735 143.668 227.105 143.691C223.585 143.72 220.111 142.882 216.991 141.249C213.871 139.617 211.199 137.24 209.213 134.328C213.509 130.041 220.307 127.242 227.838 127.242C235.37 127.242 241.929 130.041 245.845 134.328Z" fill="white"/>
<path d="M115.782 195.455C114.943 197.297 114.059 199.326 113.29 201.292C112.52 203.259 111.734 205.287 111.053 207.306C109.663 211.286 108.605 215.375 107.888 219.53L107.694 220.832C107.675 221.055 107.696 221.28 107.756 221.496C107.964 222.23 108.293 222.925 108.728 223.551C109.863 225.173 111.18 226.659 112.653 227.98C114.206 229.427 115.835 230.79 117.533 232.064C119.23 233.374 121.016 234.65 122.775 235.855L121.122 238.964C116.921 237.13 112.934 234.84 109.232 232.134C107.257 230.691 105.474 229 103.928 227.103C103.011 225.974 102.297 224.694 101.815 223.321C101.535 222.463 101.392 221.566 101.391 220.664C101.391 220.451 101.391 220.141 101.391 219.991V219.557L101.479 218.671C101.986 214.056 102.954 209.504 104.37 205.083C105.059 202.904 105.793 200.734 106.633 198.617C107.473 196.5 108.339 194.427 109.409 192.275L115.782 195.455Z" fill="#E58A7B"/>
<path d="M121.529 235.305L127.778 232.134L126.161 239.008C126.161 239.008 121.873 240.212 119.884 238.122L121.529 235.305Z" fill="#E58A7B"/>
<path d="M133.498 233.259L131.836 238.946L126.161 239.008L127.778 232.134L133.498 233.259Z" fill="#E58A7B"/>
<path d="M142.32 162.292C142.654 163.519 143.12 164.707 143.708 165.835C143.536 166.03 143.315 166.175 143.067 166.255C142.82 166.334 142.556 166.345 142.302 166.286L142.32 162.292Z" fill="#DF5753"/>
<path d="M142.135 162.345C142.501 162.345 142.798 161.889 142.798 161.327C142.798 160.764 142.501 160.308 142.135 160.308C141.768 160.308 141.472 160.764 141.472 161.327C141.472 161.889 141.768 162.345 142.135 162.345Z" fill="#263238"/>
<path d="M141.94 160.343L143.284 159.962C143.284 159.962 142.63 161.008 141.94 160.343Z" fill="#263238"/>
<path d="M125.056 168.793C125.86 172.912 126.664 180.467 123.783 183.222C123.783 183.222 124.914 187.403 132.561 187.403C140.968 187.403 136.574 183.222 136.574 183.222C131.986 182.124 132.101 178.714 132.905 175.507L125.056 168.793Z" fill="#E58A7B"/>
<path d="M122.819 159.404C123.243 166.287 123.279 169.21 126.744 172.744C131.969 178.058 140.313 176.039 141.949 169.201C143.425 163 142.488 152.796 135.761 150.059C134.284 149.45 132.677 149.228 131.091 149.414C129.504 149.601 127.992 150.19 126.696 151.125C125.401 152.061 124.365 153.312 123.686 154.761C123.008 156.21 122.709 157.808 122.819 159.404Z" fill="#E58A7B"/>
<path d="M123.5 151.662C120.052 152.92 115.455 151.981 117.259 162.637C119.168 173.921 116.233 177.633 116.233 177.633C116.233 177.633 129.308 180.423 142.656 177.464C142.656 177.464 138.581 170.325 139.721 165.064C141.18 158.421 140.031 155.967 140.031 155.967C140.031 155.967 128.344 149.891 123.5 151.662Z" fill="#263238"/>
<path d="M138.086 162.991C138.089 164.3 138.463 165.581 139.164 166.685C140.101 168.12 141.206 167.571 141.48 166.047C141.728 164.71 141.542 162.345 140.349 161.423C139.155 160.502 138.103 161.406 138.086 162.991Z" fill="#E58A7B"/>
<path d="M120.503 152.823C119.513 150.033 124.234 145.737 134.223 147.508C144.212 149.28 144.645 157.615 144.645 157.615L142.63 155.206L142.718 157.739L132.455 159.714L120.503 152.823Z" fill="#263238"/>
<path d="M121.352 183.691C121.293 183.287 121.394 182.875 121.633 182.545C121.873 182.214 122.231 181.99 122.633 181.92C125.745 181.406 132.817 180.361 136.371 180.857C139.023 181.229 139.712 182.77 139.827 184.037C139.845 184.259 139.816 184.482 139.74 184.691C139.665 184.9 139.546 185.091 139.391 185.251C139.236 185.41 139.049 185.535 138.842 185.615C138.635 185.696 138.414 185.732 138.192 185.72L122.828 185.029C122.466 185.011 122.121 184.867 121.852 184.624C121.583 184.38 121.406 184.051 121.352 183.691Z" fill="#4CAF4F"/>
<path opacity="0.6" d="M121.352 183.691C121.293 183.287 121.394 182.875 121.633 182.545C121.873 182.214 122.231 181.99 122.633 181.92C125.745 181.406 132.817 180.361 136.371 180.857C139.023 181.229 139.712 182.77 139.827 184.037C139.845 184.259 139.816 184.482 139.74 184.691C139.665 184.9 139.546 185.091 139.391 185.251C139.236 185.41 139.049 185.535 138.842 185.615C138.635 185.696 138.414 185.732 138.192 185.72L122.828 185.029C122.466 185.011 122.121 184.867 121.852 184.624C121.583 184.38 121.406 184.051 121.352 183.691Z" fill="black"/>
<path d="M130.236 338.434L135.938 342.403L145.476 329.444L139.774 325.485L130.236 338.434Z" fill="#E58A7B"/>
<path d="M116.941 338.177L122.961 341.614L131.403 327.911L125.383 324.475L116.941 338.177Z" fill="#E58A7B"/>
<path d="M145.467 329.444L140.552 336.123L134.85 332.163L139.765 325.485L145.467 329.444Z" fill="#CF6F64"/>
<path d="M125.374 324.475L131.403 327.92L127.053 334.98L121.025 331.534L125.374 324.475Z" fill="#CF6F64"/>
<path d="M135.045 226.952C135.045 226.952 157.304 255.058 153.123 281.941C149.755 303.651 130.218 333.049 130.218 333.049L121.033 328.479C127.507 315.48 133.032 302.029 137.564 288.229C138.962 283.945 139.37 279.399 138.757 274.934C138.145 270.469 136.528 266.201 134.028 262.454C122.748 245.952 104.679 255.775 116.834 226.952H135.045Z" fill="#4CAF4F"/>
<path opacity="0.6" d="M135.045 226.952C135.045 226.952 157.304 255.058 153.123 281.941C149.755 303.651 130.218 333.049 130.218 333.049L121.033 328.479C127.507 315.48 133.032 302.029 137.564 288.229C138.962 283.945 139.37 279.399 138.757 274.934C138.145 270.469 136.528 266.201 134.028 262.454C122.748 245.952 104.679 255.775 116.834 226.952H135.045Z" fill="black"/>
<path opacity="0.4" d="M145.962 245.005L142.727 241.78C142.727 242.037 148.994 280.807 150.754 291.702C151.792 288.519 152.587 285.262 153.131 281.959C155.2 268.77 150.877 255.297 145.962 245.005Z" fill="black"/>
<path d="M144.981 226.952C144.981 226.952 171.784 262.277 172.544 283.455C173.172 301.17 143.372 335.494 143.372 335.494L134.709 329.878C134.709 329.878 152.15 305.502 156.544 285.59C154.846 265.855 118.956 226.952 118.956 226.952H144.981Z" fill="#4CAF4F"/>
<path opacity="0.6" d="M144.981 226.952C144.981 226.952 171.784 262.277 172.544 283.455C173.172 301.17 143.372 335.494 143.372 335.494L134.709 329.878C134.709 329.878 152.15 305.502 156.544 285.59C154.846 265.855 118.956 226.952 118.956 226.952H144.981Z" fill="black"/>
<path d="M111.822 184.799C108.958 185.481 106.209 195.915 106.209 195.915L117.409 203.409C117.409 203.409 121.14 195.154 119.831 191.54C118.479 187.775 115.42 183.94 111.822 184.799Z" fill="#4CAF4F"/>
<path opacity="0.2" d="M114.014 191.522L113.237 200.619L117.4 203.418C118.55 200.824 119.401 198.108 119.937 195.322L114.014 191.522Z" fill="black"/>
<path d="M148.296 185.002C148.296 185.002 151.602 186.163 144.981 226.943H116.817C117.294 215.428 117.303 208.342 111.822 184.799C115.766 183.984 119.763 183.457 123.783 183.222C128.041 182.916 132.316 182.916 136.574 183.222C142.073 183.727 148.296 185.002 148.296 185.002Z" fill="#4CAF4F"/>
<path d="M151.16 191.522C151.797 193.293 152.468 195.198 153.176 197.031C153.883 198.865 154.555 200.751 155.271 202.611L157.437 208.174L157.985 209.565L158.267 210.256L158.4 210.601C158.4 210.663 158.4 210.663 158.4 210.654C158.239 210.426 158.027 210.238 157.781 210.105C157.432 209.899 157.037 209.78 156.632 209.76C156.295 209.749 155.96 209.813 155.651 209.946C155.244 210.132 155.244 210.211 155.253 210.202C155.327 210.143 155.392 210.075 155.448 209.999C155.937 209.355 156.36 208.664 156.712 207.935C157.127 207.12 157.525 206.252 157.923 205.375C158.701 203.604 159.417 201.77 160.133 199.919C160.849 198.067 161.529 196.199 162.192 194.312L164.208 188.661L167.611 189.546C166.94 193.586 166.073 197.518 165.03 201.522C164.526 203.515 163.934 205.49 163.262 207.483C162.926 208.484 162.555 209.476 162.131 210.495C161.688 211.6 161.144 212.662 160.504 213.666C160.269 214.004 160.009 214.323 159.726 214.622C159.275 215.111 158.727 215.5 158.117 215.765C157.576 215.998 156.99 216.107 156.402 216.084C155.743 216.059 155.101 215.867 154.537 215.526C153.871 215.109 153.318 214.534 152.928 213.852C152.796 213.621 152.681 213.391 152.601 213.223L152.433 212.886L152.097 212.195L151.425 210.822C150.541 208.98 149.657 207.12 148.888 205.251C148.119 203.382 147.306 201.487 146.546 199.582C145.785 197.678 145.105 195.773 144.459 193.718L151.16 191.522Z" fill="#E58A7B"/>
<path d="M148.296 185.003C151.682 185.809 155.492 195.836 155.492 195.836L145.423 204.419C145.423 204.419 138.908 193.488 140.225 189.883C141.595 186.128 143.876 183.949 148.296 185.003Z" fill="#4CAF4F"/>
<path d="M165.808 185.49L169.344 182.532L171.801 186.367L169.989 189.565C169.989 189.565 167.107 192.222 164.562 190.867C164.157 189.957 164.061 188.939 164.285 187.969C164.51 186.999 165.045 186.128 165.808 185.49Z" fill="#E58A7B"/>
<path d="M175.726 182.54L175.461 183.506L169.865 184.445L169.317 182.532L175.726 182.54Z" fill="#E58A7B"/>
<path d="M144.062 335.945L133.966 329.408L135.779 326.255L147.12 333.244L144.062 335.945Z" fill="#4CAF4F"/>
<path d="M126.912 341.154C126.026 341.046 125.175 340.743 124.419 340.268C124.388 340.257 124.361 340.237 124.342 340.21C124.323 340.183 124.312 340.151 124.312 340.117C124.312 340.084 124.323 340.052 124.342 340.025C124.361 339.998 124.388 339.978 124.419 339.967C124.693 339.878 127.071 339.143 127.761 339.71C127.838 339.774 127.897 339.859 127.931 339.954C127.965 340.049 127.974 340.151 127.955 340.25C127.943 340.41 127.89 340.564 127.802 340.697C127.714 340.83 127.593 340.939 127.451 341.012C127.286 341.103 127.101 341.151 126.912 341.154ZM124.923 340.179C126.028 340.746 126.912 340.95 127.336 340.738C127.429 340.686 127.506 340.612 127.562 340.522C127.618 340.432 127.65 340.329 127.655 340.224C127.655 340.082 127.655 340.02 127.575 339.984C127.204 339.683 125.878 339.914 124.905 340.179H124.923Z" fill="#263238"/>
<path d="M124.481 340.331C124.434 340.33 124.39 340.311 124.357 340.277C124.344 340.253 124.337 340.226 124.337 340.198C124.337 340.17 124.344 340.142 124.357 340.118C124.357 340.038 124.932 338.116 125.834 337.681C125.949 337.629 126.074 337.602 126.2 337.602C126.327 337.602 126.452 337.629 126.567 337.681C126.691 337.721 126.799 337.801 126.873 337.908C126.946 338.016 126.982 338.145 126.974 338.275C126.912 339.072 125.294 340.171 124.552 340.357L124.481 340.331ZM126.196 337.912C126.11 337.914 126.026 337.936 125.948 337.974C125.4 338.24 124.95 339.276 124.729 339.905C125.506 339.577 126.576 338.709 126.611 338.222C126.611 338.142 126.611 338.045 126.408 337.956C126.342 337.92 126.27 337.896 126.196 337.885V337.912Z" fill="#263238"/>
<path d="M139.527 344.981C138.528 344.981 137.14 343.696 136.38 342.908C136.36 342.88 136.35 342.848 136.35 342.815C136.35 342.781 136.36 342.749 136.38 342.722C136.397 342.693 136.422 342.67 136.451 342.654C136.481 342.638 136.514 342.631 136.548 342.633C136.901 342.633 139.969 343.094 140.402 343.962C140.448 344.04 140.472 344.129 140.472 344.219C140.472 344.309 140.448 344.398 140.402 344.476C140.337 344.611 140.239 344.727 140.117 344.814C139.994 344.901 139.852 344.955 139.703 344.972L139.527 344.981ZM136.963 343.032C138.077 344.113 139.058 344.715 139.615 344.644C139.713 344.631 139.805 344.595 139.886 344.538C139.966 344.48 140.031 344.405 140.075 344.316C140.094 344.286 140.105 344.251 140.105 344.214C140.105 344.178 140.094 344.143 140.075 344.113C139.845 343.634 138.209 343.227 136.963 343.032Z" fill="#263238"/>
<path d="M137.06 342.988C136.862 342.993 136.663 342.979 136.468 342.943C136.441 342.939 136.415 342.928 136.393 342.911C136.372 342.894 136.355 342.872 136.344 342.846C136.331 342.82 136.324 342.791 136.324 342.762C136.324 342.733 136.331 342.704 136.344 342.678C136.397 342.616 137.591 341.171 138.722 341.074C139.043 341.049 139.36 341.151 139.606 341.358C139.951 341.659 139.933 341.925 139.845 342.093C139.624 342.695 138.095 342.988 137.06 342.988ZM136.83 342.66C137.821 342.713 139.403 342.385 139.606 341.951C139.606 341.951 139.677 341.809 139.447 341.614C139.356 341.535 139.249 341.475 139.133 341.438C139.018 341.402 138.896 341.389 138.775 341.402C138.013 341.615 137.334 342.057 136.83 342.669V342.66Z" fill="#263238"/>
<path d="M124.72 339.373L117.223 337.247C117.094 337.208 116.955 337.218 116.833 337.275C116.71 337.332 116.613 337.433 116.56 337.557L114.032 343.253C113.973 343.399 113.945 343.555 113.95 343.713C113.956 343.87 113.994 344.025 114.064 344.166C114.133 344.308 114.231 344.433 114.352 344.533C114.474 344.634 114.614 344.708 114.766 344.75C117.418 345.441 118.691 345.636 121.988 346.583C124.021 347.15 126.921 348.204 129.723 349.001C132.525 349.799 133.462 347.062 132.375 346.477C127.46 343.873 127.071 342.048 125.727 340.099C125.487 339.747 125.13 339.49 124.72 339.373Z" fill="#4CAF4F"/>
<path d="M136.583 341.871L130.183 337.442C130.074 337.363 129.94 337.327 129.807 337.34C129.673 337.353 129.549 337.414 129.458 337.513L125.215 342.084C125.111 342.202 125.034 342.341 124.988 342.491C124.943 342.641 124.929 342.8 124.95 342.955C124.97 343.111 125.023 343.261 125.105 343.395C125.187 343.529 125.297 343.643 125.427 343.731C127.681 345.246 128.848 345.857 131.668 347.815C133.436 349.019 136.857 351.694 139.244 353.359C141.631 355.025 143.407 352.739 142.559 351.836C138.758 347.77 137.927 345.219 137.299 342.907C137.19 342.488 136.936 342.121 136.583 341.871Z" fill="#4CAF4F"/>
<path d="M131.394 333.634L119.858 327.885L121.051 324.75L133.374 330.808L131.394 333.634Z" fill="#4CAF4F"/>
<path d="M116.392 225.287L115.42 227.839C115.323 228.034 115.553 228.237 115.88 228.237H145.122C145.379 228.237 145.591 228.113 145.609 227.954L145.856 225.42C145.856 225.252 145.653 225.101 145.379 225.101H116.852C116.766 225.093 116.68 225.106 116.6 225.138C116.52 225.17 116.449 225.221 116.392 225.287Z" fill="#4CAF4F"/>
<path opacity="0.4" d="M116.392 225.287L115.42 227.839C115.323 228.034 115.553 228.237 115.88 228.237H145.122C145.379 228.237 145.591 228.113 145.609 227.954L145.856 225.42C145.856 225.252 145.653 225.101 145.379 225.101H116.852C116.766 225.093 116.68 225.106 116.6 225.138C116.52 225.17 116.449 225.221 116.392 225.287Z" fill="white"/>
<path d="M120.998 228.486H120.229C120.079 228.486 119.964 228.406 119.973 228.308L120.335 225.021C120.335 224.933 120.476 224.853 120.627 224.853H121.396C121.546 224.853 121.661 224.933 121.652 225.021L121.29 228.308C121.281 228.406 121.148 228.486 120.998 228.486Z" fill="#4CAF4F"/>
<path d="M139.032 228.486H138.271C138.121 228.486 138.006 228.406 138.015 228.308L138.369 225.021C138.369 224.933 138.519 224.853 138.669 224.853H139.43C139.58 224.853 139.704 224.933 139.686 225.021L139.332 228.308C139.288 228.406 139.191 228.486 139.032 228.486Z" fill="#4CAF4F"/>
<g style="mix-blend-mode:multiply">
<path d="M120.326 378.489C133.406 378.489 144.009 377.72 144.009 376.771C144.009 375.821 133.406 375.052 120.326 375.052C107.247 375.052 96.6439 375.821 96.6439 376.771C96.6439 377.72 107.247 378.489 120.326 378.489Z" fill="#F5F5F5"/>
</g>
<path d="M134.753 374.343C130.563 373.121 125.913 371.553 123.102 369.915C123.022 369.861 122.934 369.835 122.854 369.791V350.782H131.332C131.975 350.744 132.58 350.461 133.022 349.991C133.464 349.521 133.711 348.899 133.711 348.253C133.711 347.607 133.464 346.986 133.022 346.516C132.58 346.046 131.975 345.763 131.332 345.724H122.899V259.079H117.807V345.724H109.382C109.038 345.704 108.694 345.754 108.37 345.872C108.046 345.99 107.749 346.173 107.499 346.41C107.248 346.647 107.048 346.932 106.912 347.249C106.775 347.566 106.705 347.908 106.705 348.253C106.705 348.599 106.775 348.94 106.912 349.257C107.048 349.574 107.248 349.86 107.499 350.097C107.749 350.334 108.046 350.517 108.37 350.634C108.694 350.752 109.038 350.803 109.382 350.782H117.807V369.764C117.727 369.764 117.648 369.835 117.568 369.888C114.713 371.553 110.098 373.121 105.908 374.317C105.625 374.403 105.382 374.587 105.223 374.837C105.064 375.087 104.999 375.385 105.041 375.679C105.083 375.972 105.228 376.241 105.45 376.436C105.672 376.631 105.957 376.741 106.253 376.744H134.408C134.691 376.725 134.958 376.609 135.166 376.416C135.373 376.223 135.509 375.964 135.549 375.683C135.589 375.402 135.532 375.116 135.388 374.872C135.243 374.628 135.019 374.442 134.753 374.343Z" fill="#E0E0E0"/>
<path d="M136.053 250.257H104.618C102.089 250.257 100.038 252.311 100.038 254.845V264.207C100.038 266.741 102.089 268.796 104.618 268.796H136.053C138.582 268.796 140.632 266.741 140.632 264.207V254.845C140.632 252.311 138.582 250.257 136.053 250.257Z" fill="#4CAF4F"/>
<path d="M104.326 268.804V270.417C104.326 271.745 105.767 272.826 107.535 272.826H133.171C134.939 272.826 136.38 271.745 136.38 270.417V268.804H104.326Z" fill="#4CAF4F"/>
<path opacity="0.3" d="M104.326 268.804V270.417C104.326 271.745 105.767 272.826 107.535 272.826H133.171C134.939 272.826 136.38 271.745 136.38 270.417V268.804H104.326Z" fill="white"/>
</svg>
