<svg width="443" height="442" viewBox="0 0 443 442" fill="none" xmlns="http://www.w3.org/2000/svg">
<path d="M377.267 437.731C377.267 437.876 305.423 438 216.829 438C128.234 438 56.3591 437.876 56.3591 437.731C56.3591 437.586 128.193 437.461 216.829 437.461C305.465 437.461 377.267 437.596 377.267 437.731Z" fill="#263238"/>
<path d="M307.265 311.031C291.28 299.864 287.659 279.133 288.29 260.494C288.393 257.389 288.052 254.098 289.531 251.376C291.011 248.654 294.467 246.781 297.25 248.085C299.557 249.171 300.561 251.862 301.854 254.087C303.579 257.051 306.108 259.466 309.148 261.053C311.124 262.088 313.576 262.709 315.531 261.632C318.221 260.152 318.532 256.458 318.511 253.353C318.511 247.578 318.477 241.809 318.408 236.048C318.222 232.954 318.536 229.851 319.339 226.858C320.301 223.918 322.443 221.196 325.371 220.368C328.299 219.541 331.951 221.248 332.613 224.27C332.727 225.55 332.758 226.836 332.706 228.12C332.789 229.414 333.389 230.832 334.599 231.225C335.81 231.618 337.072 230.718 338.003 229.807C341.19 226.702 343.363 222.656 345.38 218.661C347.398 214.666 349.374 210.557 352.271 207.152C355.168 203.747 359.172 201.046 363.652 200.787C368.132 200.528 372.798 203.281 373.915 207.628C375.032 211.975 372.498 216.415 369.777 219.944C365.671 225.183 360.83 229.801 355.406 233.657C354.347 234.236 353.502 235.139 352.995 236.234C352.323 238.304 354.278 240.374 356.316 241.026C358.623 241.792 361.127 241.554 363.559 241.844C365.99 242.134 368.576 243.189 369.497 245.466C370.759 248.633 368.111 251.945 365.514 254.118C360.299 258.465 354.378 261.885 348.008 264.23C345.732 265.058 343.342 265.793 341.5 267.387C339.659 268.98 338.562 271.765 339.669 273.948C340.776 276.132 343.621 276.825 346.011 276.38C348.401 275.935 350.522 274.652 352.798 273.793C357.051 272.189 362.534 272.479 365.214 276.153C366.044 277.418 366.57 278.859 366.749 280.362C366.929 281.865 366.757 283.39 366.249 284.815C365.213 287.653 363.619 290.253 361.562 292.464C354.785 300.563 345.981 306.716 336.048 310.296C326.188 313.711 317.052 314.643 307.255 311.052" fill="#4CAF4F"/>
<path d="M369.363 203.343C369.363 203.343 369.27 203.447 369.063 203.633L368.142 204.451C367.335 205.175 366.145 206.231 364.645 207.628C360.391 211.579 356.442 215.844 352.829 220.389C350.522 223.256 348.132 226.506 345.587 230.035C343.042 233.564 340.414 237.373 337.807 241.42C335.027 245.687 332.482 250.102 330.182 254.646C328.981 257.016 327.926 259.49 326.84 262.015L323.633 269.726C319.405 279.438 315.723 289.378 312.603 299.501C310.091 307.784 308.359 316.283 307.43 324.889C306.829 330.696 306.732 336.545 307.141 342.369C307.306 344.439 307.461 346.023 307.606 347.099C307.668 347.617 307.71 348.031 307.751 348.331V348.755C307.707 348.62 307.675 348.482 307.658 348.341C307.606 348.041 307.544 347.637 307.461 347.12C307.275 346.085 307.079 344.45 306.892 342.38C306.393 336.545 306.428 330.676 306.996 324.847C307.867 316.205 309.561 307.666 312.055 299.346C315.148 289.195 318.82 279.229 323.053 269.498L326.343 261.819C327.43 259.304 328.495 256.809 329.706 254.429C332.022 249.871 334.588 245.445 337.393 241.171C340.042 237.031 342.711 233.285 345.225 229.787C347.739 226.288 350.171 223.018 352.467 220.161C356.116 215.629 360.119 211.393 364.438 207.494C365.969 206.117 367.19 205.082 368.018 204.389L368.98 203.612C369.098 203.51 369.226 203.42 369.363 203.343Z" fill="#263238"/>
<path d="M329.84 254.408C329.694 253.982 329.594 253.541 329.54 253.094C329.375 252.235 329.188 251.024 328.971 249.451C328.526 246.346 328.071 242.092 327.585 237.383C327.099 232.674 326.55 228.41 326.095 225.336C325.857 223.805 325.65 222.573 325.505 221.714C325.392 221.274 325.333 220.822 325.329 220.368C325.507 220.783 325.636 221.217 325.712 221.662C325.94 222.511 326.198 223.732 326.488 225.274C327.078 228.379 327.657 232.602 328.143 237.321C328.63 242.04 329.044 246.18 329.364 249.399C329.52 250.848 329.654 252.08 329.758 253.063C329.838 253.506 329.866 253.958 329.84 254.408Z" fill="#263238"/>
<path d="M369.652 246.977C369.149 247.087 368.636 247.149 368.121 247.163C367.087 247.257 365.617 247.381 363.796 247.588C360.155 247.981 355.147 248.706 349.653 249.741C344.159 250.775 339.224 251.945 335.676 252.845C333.906 253.301 332.479 253.715 331.537 253.994C331.034 254.173 330.514 254.298 329.985 254.367C330.463 254.126 330.962 253.929 331.475 253.777C332.447 253.435 333.855 252.959 335.613 252.452C339.141 251.417 344.077 250.186 349.591 249.13C354.262 248.236 358.976 247.58 363.714 247.163C365.545 247.008 367.024 246.946 368.059 246.925C368.591 246.889 369.124 246.907 369.652 246.977Z" fill="#263238"/>
<path d="M312.562 298.622C312.452 298.472 312.361 298.309 312.293 298.135L311.61 296.697C311.021 295.445 310.224 293.592 309.272 291.325C307.348 286.772 304.896 280.396 302.288 273.317C299.681 266.238 297.281 259.863 295.46 255.257C294.57 253.022 293.836 251.19 293.287 249.824L292.708 248.344C292.627 248.173 292.572 247.992 292.542 247.805C292.653 247.955 292.743 248.119 292.811 248.292L293.494 249.73C294.073 250.983 294.88 252.835 295.832 255.102C297.757 259.656 300.209 266.031 302.816 273.11C305.423 280.189 307.824 286.565 309.645 291.17C310.534 293.406 311.269 295.238 311.807 296.604C312.045 297.194 312.241 297.639 312.397 298.084C312.477 298.254 312.533 298.436 312.562 298.622Z" fill="#263238"/>
<path d="M365.41 281.576C365.245 281.671 365.067 281.744 364.883 281.793L363.352 282.311L357.692 284.143C352.912 285.695 346.311 287.91 339.069 290.353C331.827 292.795 325.195 294.968 320.384 296.417C317.983 297.152 316.028 297.711 314.673 298.084L313.11 298.487C312.929 298.545 312.742 298.583 312.552 298.601C312.717 298.506 312.895 298.433 313.079 298.384L314.611 297.866L320.27 296.034C325.05 294.482 331.651 292.267 338.893 289.825C346.136 287.382 352.757 285.209 357.568 283.76C359.979 283.025 361.924 282.466 363.289 282.094L364.852 281.69C365.033 281.632 365.221 281.594 365.41 281.576Z" fill="#263238"/>
<path d="M343.849 30.5259L338.521 32.4303L336.234 25.465C332.034 12.6212 318.646 5.80077 306.344 10.1373C294.042 14.4737 287.493 28.5595 291.694 41.4033L293.98 48.3686L288.631 50.2833C286.592 51.0747 284.935 52.6219 284.007 54.6033C283.078 56.5848 282.948 58.848 283.644 60.9227L298.471 106.243C298.778 107.271 299.289 108.225 299.973 109.051C300.657 109.876 301.5 110.556 302.451 111.049C303.403 111.543 304.444 111.84 305.513 111.923C306.581 112.005 307.656 111.873 308.672 111.532L363.89 91.7748C365.956 90.9848 367.636 89.4238 368.576 87.4203C369.515 85.4167 369.642 83.1267 368.928 81.0319L354.092 35.7111C353.776 34.6869 353.257 33.7369 352.566 32.9177C351.876 32.0985 351.027 31.4269 350.071 30.943C349.115 30.459 348.071 30.1727 347.002 30.1011C345.933 30.0294 344.861 30.1739 343.849 30.5259ZM301.761 37.7706C300.628 34.4311 300.831 30.7826 302.328 27.5896C303.825 24.3966 306.498 21.9069 309.789 20.6421C311.414 20.0859 313.135 19.8629 314.848 19.9863C316.561 20.1097 318.231 20.5771 319.76 21.3604C321.288 22.1438 322.643 23.2271 323.744 24.5458C324.845 25.8644 325.669 27.3914 326.167 29.0356L328.443 36.0009L304.037 44.7359L301.761 37.7706ZM332.799 77.9891L336.586 89.56C336.655 89.792 336.633 90.0419 336.523 90.2577C336.413 90.4736 336.225 90.6388 335.996 90.7191L330.689 92.6131C330.477 92.6717 330.252 92.6462 330.059 92.542C329.866 92.4378 329.721 92.263 329.654 92.0542L325.836 80.5351C323.731 80.4204 321.711 79.6651 320.047 78.3703C318.383 77.0756 317.154 75.3032 316.525 73.2904C315.625 70.6295 315.789 67.7235 316.983 65.1808C318.176 62.6382 320.307 60.6562 322.929 59.6497C324.223 59.2073 325.594 59.0301 326.958 59.1286C328.322 59.2272 329.653 59.5995 330.87 60.2234C332.088 60.8473 333.167 61.71 334.044 62.7601C334.921 63.8102 335.578 65.0261 335.975 66.3355C336.641 68.3801 336.696 70.5745 336.134 72.65C335.572 74.7254 334.416 76.5917 332.81 78.0202L332.799 77.9891Z" fill="#4CAF4F"/>
<path d="M338.283 32.3058C338.283 32.4507 328.402 36.1662 316.111 40.5855C303.82 45.0047 293.794 48.5546 293.742 48.4512C293.691 48.3477 303.623 44.6011 315.925 40.1715C328.226 35.7419 338.231 32.1713 338.283 32.3058Z" fill="#263238"/>
<path d="M350.015 34.2101C350.061 34.2999 350.099 34.3934 350.129 34.4895C350.212 34.6965 350.305 34.9656 350.429 35.2968C350.698 36.0523 351.071 37.0976 351.536 38.4017L355.509 49.9725C357.164 54.8782 359.141 60.6947 361.334 67.1528C362.369 70.3922 363.589 73.7662 364.728 77.3161C365.337 79.1454 365.6 81.0723 365.504 82.998C365.416 83.9995 365.131 84.9738 364.665 85.8649C364.168 86.7529 363.504 87.5366 362.71 88.1728C361.112 89.34 359.337 90.2449 357.454 90.8534L352.126 92.768L342.038 96.38L324.957 102.466L313.421 106.523L310.317 107.558L309.489 107.827C309.401 107.866 309.306 107.891 309.21 107.899C309.21 107.899 309.293 107.899 309.468 107.775L310.275 107.454L313.379 106.285L324.853 102.062L341.904 95.8522L351.971 92.2092L357.299 90.2841C359.129 89.7004 360.851 88.823 362.4 87.6864C363.139 87.096 363.757 86.3686 364.221 85.544C364.659 84.72 364.923 83.8146 364.997 82.8842C365.092 81.0287 364.839 79.1718 364.252 77.4093C363.134 73.8904 361.955 70.4854 360.889 67.246C358.737 60.7775 356.751 54.9403 355.178 50.0346C353.605 45.1289 352.281 41.1857 351.371 38.412C350.936 37.0562 350.605 36.0006 350.336 35.2347L350.088 34.4067C350.056 34.344 350.032 34.2781 350.015 34.2101Z" fill="#263238"/>
<path d="M320.88 19.938C320.88 19.938 320.332 19.6689 319.318 19.2549C317.873 18.6994 316.344 18.3915 314.797 18.3442C312.503 18.2655 310.22 18.6967 308.113 19.6068C305.551 20.7401 303.36 22.5731 301.792 24.8955C300.213 27.2112 299.366 29.9479 299.36 32.7508C299.382 35.0481 299.73 37.3307 300.395 39.5298C300.933 41.4134 301.492 42.9141 301.864 43.9594C302.084 44.4903 302.264 45.0369 302.402 45.5946C302.108 45.0982 301.862 44.5749 301.668 44.0318C301.243 42.9969 300.633 41.5272 300.033 39.6333C299.296 37.4111 298.895 35.0914 298.843 32.7508C298.815 29.842 299.682 26.9949 301.326 24.5953C302.949 22.1881 305.23 20.2984 307.896 19.1514C310.069 18.2364 312.423 17.8327 314.776 17.9716C316.357 18.0522 317.91 18.4204 319.36 19.0583C319.747 19.2371 320.121 19.4447 320.477 19.6793C320.624 19.7439 320.76 19.8312 320.88 19.938Z" fill="#263238"/>
<path d="M321.356 60.436C321.521 60.3359 321.694 60.2494 321.874 60.1773C322.392 59.9435 322.928 59.7531 323.477 59.6081C324.349 59.3506 325.249 59.1977 326.157 59.1527C327.392 59.0863 328.628 59.2729 329.788 59.7012C332.437 60.6327 334.868 63.3339 336.069 66.9459C336.644 68.8843 336.644 70.9482 336.069 72.8866C335.43 74.9904 334.287 76.9057 332.737 78.465L332.799 78.1856C334.175 81.9632 335.675 86.0616 337.227 90.336L337.32 90.5947L337.062 90.6879L334.693 91.4744L329.519 93.2028L329.261 93.2856L329.178 93.0269C327.761 88.7421 326.209 84.7472 325.04 80.8247L325.267 81.0006C323.245 80.8326 321.316 80.0732 319.722 78.8169C318.279 77.7055 317.096 76.2927 316.256 74.677C315.497 73.2443 315.119 71.6405 315.159 70.0197C315.207 68.3632 315.62 66.7378 316.37 65.2599C317.119 63.782 318.186 62.4881 319.494 61.471C320.032 61.0338 320.636 60.6845 321.284 60.436C320.699 60.7829 320.133 61.1594 319.587 61.5641C318.15 62.7801 317.05 64.3444 316.39 66.1076C315.824 67.4371 315.559 68.8756 315.615 70.3196C315.67 71.7636 316.045 73.1775 316.711 74.4597C317.537 76.014 318.692 77.37 320.094 78.4339C321.615 79.628 323.454 80.3479 325.381 80.5039H325.557L325.609 80.6591C326.747 84.5092 328.309 88.5351 329.747 92.8406L329.406 92.675L334.579 90.9466L336.938 90.1497L336.772 90.5016C335.231 86.2272 333.741 82.1184 332.375 78.3408V78.1856L332.499 78.0614C334.003 76.5668 335.125 74.7313 335.769 72.7106C336.317 70.8564 336.317 68.8829 335.769 67.0287C334.641 63.5512 332.313 60.9121 329.788 59.9806C328.671 59.5496 327.478 59.3489 326.281 59.3907C325.387 59.4112 324.499 59.5327 323.632 59.7529C322.091 60.1359 321.367 60.4878 321.356 60.436Z" fill="#263238"/>
<path d="M289.376 359.27L186.028 358.794C180.06 358.761 174.348 356.36 170.149 352.118C165.949 347.876 163.604 342.14 163.628 336.17L164.725 77.0062C164.737 74.0483 165.332 71.1218 166.476 68.3941C167.619 65.6663 169.289 63.1907 171.389 61.1088C173.49 59.0269 175.98 57.3795 178.717 56.2608C181.454 55.1421 184.385 54.574 187.342 54.589L290.68 55.065C296.648 55.0952 302.36 57.4936 306.562 61.7337C310.764 65.9737 313.112 71.7086 313.09 77.6789L311.993 336.833C311.981 339.791 311.386 342.719 310.243 345.448C309.1 348.177 307.43 350.654 305.33 352.737C303.23 354.821 300.74 356.47 298.003 357.591C295.265 358.712 292.334 359.283 289.376 359.27Z" fill="#455A64"/>
<path d="M290.525 63.9758H270.494C269.841 63.988 269.196 64.1288 268.597 64.3902C267.998 64.6516 267.456 65.0286 267.002 65.4995C266.549 65.9705 266.193 66.5262 265.954 67.1349C265.715 67.7436 265.599 68.3934 265.611 69.0471V72.6799C265.623 73.3331 265.507 73.9824 265.268 74.5905C265.029 75.1986 264.672 75.7537 264.219 76.2238C263.765 76.6939 263.223 77.0698 262.624 77.3302C262.025 77.5905 261.381 77.73 260.728 77.7408L221.681 77.5649C220.36 77.5296 219.107 76.9714 218.197 76.0128C217.288 75.0542 216.795 73.7736 216.829 72.4522V68.8195C216.862 67.4998 216.371 66.2207 215.464 65.2624C214.556 64.3041 213.306 63.7447 211.987 63.7068H204.941L187.404 63.624C183.233 63.5991 179.222 65.2287 176.249 68.1558C173.276 71.0829 171.584 75.0691 171.543 79.2415L170.509 332.206C170.499 334.276 170.897 336.328 171.68 338.244C172.463 340.16 173.616 341.903 175.073 343.373C176.529 344.843 178.261 346.012 180.169 346.813C182.077 347.614 184.124 348.031 186.194 348.041L289.324 348.517C291.395 348.527 293.447 348.128 295.364 347.344C297.281 346.56 299.024 345.406 300.495 343.949C301.966 342.491 303.135 340.757 303.937 338.847C304.738 336.937 305.155 334.888 305.164 332.817L306.199 79.8521C306.224 75.6679 304.587 71.6451 301.647 68.668C298.708 65.6909 294.707 64.0032 290.525 63.9758Z" fill="white"/>
<path d="M276.65 314.767L199.964 314.436C199.168 314.436 198.526 313.567 198.537 312.511L198.619 292.443C198.619 291.408 199.271 290.518 200.068 290.518L276.754 290.87C277.195 290.946 277.59 291.19 277.856 291.551C278.122 291.911 278.239 292.361 278.182 292.805L278.109 312.852C278.109 313.918 277.447 314.777 276.65 314.767Z" fill="#4CAF4F"/>
<path d="M223.326 304.578C222.423 304.578 221.513 304.31 221.009 303.919L221.456 302.927C221.936 303.277 222.651 303.521 223.334 303.521C224.115 303.521 224.432 303.261 224.432 302.911C224.432 301.846 221.122 302.578 221.122 300.464C221.122 299.496 221.903 298.691 223.521 298.691C224.237 298.691 224.968 298.862 225.497 299.195L225.09 300.195C224.562 299.894 224.017 299.748 223.513 299.748C222.732 299.748 222.432 300.041 222.432 300.399C222.432 301.448 225.741 300.724 225.741 302.814C225.741 303.765 224.952 304.578 223.326 304.578ZM226.641 304.48V298.789H227.958V304.48H226.641ZM233.228 298.789H234.529V304.48H233.448L230.61 301.025V304.48H229.309V298.789H230.399L233.228 302.244V298.789ZM239.722 303.212V301.545H240.926V303.854C240.3 304.326 239.438 304.578 238.624 304.578C236.836 304.578 235.518 303.35 235.518 301.635C235.518 299.919 236.836 298.691 238.649 298.691C239.649 298.691 240.478 299.033 241.031 299.675L240.186 300.456C239.771 300.016 239.291 299.813 238.714 299.813C237.608 299.813 236.852 300.553 236.852 301.635C236.852 302.7 237.608 303.456 238.698 303.456C239.055 303.456 239.389 303.391 239.722 303.212ZM246.981 304.578C245.363 304.578 244.403 303.651 244.403 301.976V298.789H245.721V301.927C245.721 303.009 246.192 303.456 246.989 303.456C247.794 303.456 248.258 303.009 248.258 301.927V298.789H249.559V301.976C249.559 303.651 248.599 304.578 246.981 304.578ZM253.324 298.789C254.845 298.789 255.796 299.577 255.796 300.854C255.796 302.122 254.845 302.911 253.324 302.911H252.177V304.48H250.86V298.789H253.324ZM253.251 301.838C254.056 301.838 254.462 301.472 254.462 300.854C254.462 300.228 254.056 299.862 253.251 299.862H252.177V301.838H253.251Z" fill="#E8E8E3"/>
<path d="M215.26 138.338L188.65 138.217L188.628 143.102L215.238 143.223L215.26 138.338Z" fill="#4CAF4F"/>
<path opacity="0.1" d="M215.26 138.338L188.65 138.217L188.628 143.102L215.238 143.223L215.26 138.338Z" fill="black"/>
<path d="M293.266 168.331C293.475 168.31 293.681 168.261 293.877 168.186C294.163 168.074 294.412 167.883 294.595 167.636C294.778 167.389 294.888 167.095 294.911 166.789C294.911 165.143 294.911 162.742 294.911 159.658C294.911 158.116 294.911 156.387 294.911 154.483C294.911 154.017 294.911 153.531 294.911 153.045C294.979 152.573 294.876 152.092 294.622 151.689C294.479 151.495 294.294 151.338 294.08 151.228C293.867 151.119 293.631 151.06 293.391 151.057H291.777H276.826L190.291 150.737C190.069 150.733 189.85 150.783 189.652 150.882C189.454 150.981 189.283 151.126 189.153 151.306C188.903 151.711 188.807 152.192 188.884 152.662C188.884 153.697 188.884 154.732 188.884 155.767C188.884 157.836 188.884 159.906 188.884 161.976C188.884 163.011 188.884 164.046 188.884 165.081C188.841 165.563 188.841 166.048 188.884 166.53C188.938 166.737 189.039 166.928 189.179 167.09C189.319 167.251 189.494 167.378 189.691 167.462C189.894 167.543 190.113 167.581 190.332 167.575H195.598L218.577 167.7L257.479 167.938L283.707 168.145L290.835 168.227H292.687C293.111 168.227 293.318 168.227 293.318 168.227H292.687H290.835H283.707H257.479L218.577 168.103L195.598 168.01H190.332C190.042 168.022 189.753 167.972 189.484 167.865C189.211 167.749 188.969 167.572 188.775 167.348C188.582 167.123 188.442 166.858 188.366 166.571C188.306 166.3 188.286 166.021 188.304 165.744V164.978C188.304 163.943 188.304 162.908 188.304 161.873C188.304 159.803 188.304 157.733 188.304 155.663C188.304 154.628 188.304 153.593 188.304 152.558C188.284 152.282 188.284 152.006 188.304 151.73C188.343 151.426 188.461 151.137 188.646 150.892C188.824 150.642 189.06 150.439 189.334 150.3C189.608 150.162 189.911 150.091 190.218 150.095L276.754 150.571L291.704 150.675H293.318C293.603 150.675 293.883 150.744 294.135 150.875C294.387 151.007 294.604 151.197 294.767 151.43C295.058 151.88 295.176 152.421 295.098 152.951C295.098 153.438 295.098 153.924 295.098 154.39C295.098 156.274 295.098 158.002 295.098 159.565C295.098 162.67 295.025 165.05 295.005 166.706C294.979 167.024 294.864 167.329 294.671 167.584C294.479 167.839 294.217 168.033 293.918 168.145C293.722 168.266 293.497 168.33 293.266 168.331Z" fill="#E0E0E0"/>
<path d="M245.312 155.932H196.643V160.496H245.312V155.932Z" fill="#4CAF4F"/>
<path opacity="0.2" d="M245.312 155.932H196.643V160.496H245.312V155.932Z" fill="white"/>
<path d="M215.079 182.902L188.469 182.781L188.446 187.666L215.057 187.787L215.079 182.902Z" fill="#4CAF4F"/>
<path opacity="0.1" d="M215.079 182.902L188.469 182.781L188.446 187.666L215.057 187.787L215.079 182.902Z" fill="black"/>
<path d="M292.594 212.896C292.803 212.871 293.01 212.833 293.215 212.782C293.504 212.69 293.77 212.537 293.994 212.334C294.219 212.13 294.398 211.881 294.518 211.603C294.681 211.185 294.745 210.735 294.705 210.288C294.705 209.791 294.705 209.253 294.705 208.653C294.705 207.452 294.705 206.086 294.705 204.513V197.941C294.754 197.465 294.649 196.986 294.404 196.575C294.149 196.153 293.748 195.84 293.277 195.695C292.761 195.603 292.237 195.575 291.714 195.612H276.826L190.591 195.292C190.127 195.293 189.679 195.462 189.331 195.769C188.983 196.075 188.758 196.498 188.697 196.958C188.697 197.941 188.697 199.028 188.697 200.063C188.697 202.133 188.697 204.203 188.697 206.272C188.697 207.307 188.697 208.342 188.697 209.377C188.659 209.861 188.68 210.348 188.759 210.826C188.889 211.246 189.155 211.61 189.515 211.861C189.897 212.104 190.346 212.22 190.798 212.192H192.236H195.226L218.122 212.306L256.889 212.544L283.024 212.751L290.132 212.834H283.024H256.889L218.101 212.793L195.205 212.71H190.705C190.145 212.743 189.59 212.594 189.122 212.286C188.651 211.959 188.307 211.48 188.149 210.93C188.056 210.404 188.028 209.869 188.066 209.336C188.066 208.301 188.066 207.266 188.066 206.231C188.066 204.161 188.066 202.091 188.066 200.021C188.066 198.986 188.066 197.951 188.066 196.916C188.142 196.325 188.43 195.781 188.878 195.386C189.325 194.992 189.901 194.774 190.498 194.774L276.733 195.25L291.621 195.364C292.176 195.33 292.732 195.368 293.277 195.478C293.814 195.654 294.268 196.022 294.549 196.513C294.817 196.969 294.933 197.498 294.88 198.024C294.88 198.51 294.88 198.986 294.88 199.462C294.88 201.336 294.88 203.054 294.88 204.637C294.88 206.221 294.88 207.556 294.88 208.777C294.88 209.367 294.88 209.916 294.88 210.423C294.918 210.886 294.843 211.351 294.663 211.778C294.529 212.064 294.335 212.317 294.094 212.521C293.852 212.725 293.57 212.874 293.266 212.958C293.04 212.977 292.813 212.956 292.594 212.896Z" fill="#E0E0E0"/>
<path d="M214.878 229.401L188.268 229.281L188.246 234.166L214.856 234.286L214.878 229.401Z" fill="#4CAF4F"/>
<path opacity="0.1" d="M214.878 229.401L188.268 229.281L188.246 234.166L214.856 234.286L214.878 229.401Z" fill="black"/>
<path d="M292.387 259.376C292.596 259.351 292.803 259.313 293.008 259.262C293.295 259.171 293.56 259.019 293.785 258.818C294.01 258.616 294.189 258.369 294.311 258.093C294.473 257.675 294.537 257.225 294.498 256.778C294.498 256.271 294.498 255.743 294.498 255.133C294.498 253.943 294.498 252.566 294.498 250.993V244.421C294.547 243.945 294.442 243.466 294.197 243.055C293.936 242.641 293.537 242.333 293.07 242.185C292.555 242.09 292.03 242.058 291.507 242.092H276.619L190.384 241.771C189.92 241.773 189.472 241.942 189.124 242.249C188.776 242.555 188.551 242.978 188.49 243.438C188.49 244.473 188.49 245.508 188.49 246.543C188.49 248.612 188.49 250.682 188.49 252.752C188.49 253.787 188.49 254.822 188.49 255.857C188.452 256.337 188.473 256.821 188.552 257.296C188.676 257.718 188.943 258.084 189.308 258.331C189.688 258.579 190.138 258.695 190.591 258.662H195.091L217.987 258.786L256.755 259.024L282.889 259.231L289.997 259.314H282.889H256.755L217.987 259.2L195.091 259.107H190.591C190.031 259.145 189.474 258.996 189.008 258.683C188.537 258.356 188.193 257.877 188.035 257.327C187.942 256.801 187.915 256.266 187.952 255.733C187.952 254.698 187.952 253.663 187.952 252.628C187.952 250.558 187.952 248.488 187.952 246.418C187.952 245.383 187.952 244.348 187.952 243.262C188.026 242.671 188.312 242.127 188.758 241.732C189.204 241.338 189.778 241.12 190.373 241.119L276.609 241.595L291.497 241.709C292.052 241.675 292.608 241.714 293.153 241.823C293.69 241.999 294.143 242.368 294.425 242.858C294.693 243.314 294.809 243.843 294.756 244.369C294.756 244.856 294.756 245.342 294.756 245.808C294.756 247.681 294.756 249.399 294.756 250.983C294.756 252.566 294.756 253.901 294.756 255.122C294.756 255.712 294.756 256.261 294.756 256.768C294.796 257.231 294.721 257.696 294.539 258.124C294.405 258.409 294.21 258.663 293.969 258.866C293.728 259.07 293.446 259.219 293.142 259.304C292.9 259.387 292.641 259.411 292.387 259.376Z" fill="#E0E0E0"/>
<path d="M244.273 201.788L195.605 201.567L195.584 206.131L244.252 206.352L244.273 201.788Z" fill="#4CAF4F"/>
<path opacity="0.2" d="M244.273 201.788L195.605 201.567L195.584 206.131L244.252 206.352L244.273 201.788Z" fill="white"/>
<path d="M200.006 250.931C199.975 251.347 199.823 251.745 199.568 252.076C199.314 252.407 198.968 252.655 198.573 252.791C198.178 252.927 197.753 252.944 197.349 252.839C196.944 252.735 196.58 252.515 196.3 252.205C196.02 251.896 195.837 251.511 195.773 251.098C195.71 250.686 195.769 250.264 195.944 249.884C196.118 249.505 196.4 249.185 196.754 248.965C197.108 248.744 197.519 248.632 197.936 248.644C198.513 248.676 199.053 248.934 199.441 249.362C199.828 249.79 200.031 250.354 200.006 250.931Z" fill="#4CAF4F"/>
<path d="M206.596 250.962C206.617 251.254 206.577 251.547 206.479 251.822C206.381 252.098 206.228 252.351 206.029 252.565C205.829 252.778 205.588 252.949 205.32 253.066C205.052 253.182 204.762 253.242 204.47 253.242C204.178 253.242 203.888 253.182 203.62 253.066C203.352 252.949 203.111 252.778 202.911 252.565C202.712 252.351 202.559 252.098 202.461 251.822C202.363 251.547 202.324 251.254 202.344 250.962C202.324 250.67 202.363 250.377 202.461 250.102C202.559 249.826 202.712 249.573 202.911 249.359C203.111 249.145 203.352 248.975 203.62 248.858C203.888 248.742 204.178 248.681 204.47 248.681C204.762 248.681 205.052 248.742 205.32 248.858C205.588 248.975 205.829 249.145 206.029 249.359C206.228 249.573 206.381 249.826 206.479 250.102C206.577 250.377 206.617 250.67 206.596 250.962Z" fill="#4CAF4F"/>
<path d="M213.197 250.993C213.167 251.409 213.015 251.807 212.76 252.138C212.505 252.469 212.159 252.717 211.764 252.853C211.37 252.989 210.944 253.006 210.54 252.902C210.136 252.798 209.771 252.577 209.491 252.268C209.211 251.958 209.028 251.573 208.965 251.161C208.902 250.748 208.961 250.326 209.135 249.947C209.309 249.567 209.591 249.248 209.945 249.027C210.3 248.806 210.711 248.695 211.128 248.706C211.703 248.74 212.242 248.999 212.629 249.427C213.016 249.855 213.22 250.417 213.197 250.993Z" fill="#4CAF4F"/>
<path d="M219.788 251.024C219.757 251.44 219.605 251.838 219.35 252.169C219.096 252.5 218.75 252.748 218.355 252.884C217.96 253.02 217.535 253.037 217.131 252.932C216.726 252.828 216.362 252.608 216.082 252.298C215.802 251.989 215.619 251.604 215.555 251.191C215.492 250.779 215.551 250.357 215.726 249.977C215.9 249.598 216.182 249.278 216.536 249.058C216.89 248.837 217.301 248.725 217.718 248.737C218.294 248.771 218.833 249.03 219.22 249.458C219.606 249.885 219.81 250.448 219.788 251.024Z" fill="#4CAF4F"/>
<path d="M226.378 251.045C226.35 251.461 226.199 251.861 225.946 252.193C225.692 252.525 225.347 252.775 224.952 252.913C224.557 253.05 224.131 253.068 223.726 252.965C223.321 252.862 222.956 252.642 222.675 252.333C222.394 252.024 222.21 251.639 222.146 251.226C222.082 250.813 222.14 250.39 222.314 250.01C222.489 249.63 222.77 249.31 223.125 249.089C223.48 248.868 223.891 248.756 224.309 248.768C224.882 248.802 225.42 249.06 225.806 249.485C226.193 249.911 226.398 250.47 226.378 251.045Z" fill="#4CAF4F"/>
<path d="M232.979 251.076C232.951 251.49 232.802 251.888 232.551 252.219C232.3 252.55 231.957 252.801 231.566 252.94C231.174 253.079 230.75 253.1 230.346 253.002C229.943 252.903 229.577 252.688 229.293 252.384C229.01 252.08 228.822 251.7 228.752 251.29C228.682 250.88 228.733 250.459 228.899 250.078C229.066 249.697 229.34 249.373 229.688 249.145C230.036 248.918 230.442 248.798 230.858 248.799C231.441 248.82 231.991 249.072 232.389 249.499C232.786 249.926 232.999 250.493 232.979 251.076Z" fill="#4CAF4F"/>
<path d="M239.57 251.107C239.59 251.399 239.55 251.691 239.452 251.967C239.355 252.243 239.202 252.495 239.002 252.709C238.803 252.923 238.561 253.094 238.293 253.21C238.025 253.327 237.736 253.387 237.443 253.387C237.151 253.387 236.862 253.327 236.594 253.21C236.325 253.094 236.084 252.923 235.885 252.709C235.685 252.495 235.532 252.243 235.434 251.967C235.337 251.691 235.297 251.399 235.317 251.107C235.297 250.815 235.337 250.522 235.434 250.246C235.532 249.971 235.685 249.718 235.885 249.504C236.084 249.29 236.325 249.12 236.594 249.003C236.862 248.887 237.151 248.826 237.443 248.826C237.736 248.826 238.025 248.887 238.293 249.003C238.561 249.12 238.803 249.29 239.002 249.504C239.202 249.718 239.355 249.971 239.452 250.246C239.55 250.522 239.59 250.815 239.57 251.107Z" fill="#4CAF4F"/>
<path d="M246.16 251.138C246.132 251.553 245.983 251.95 245.732 252.281C245.481 252.613 245.138 252.863 244.747 253.002C244.355 253.141 243.931 253.163 243.527 253.064C243.124 252.965 242.758 252.751 242.474 252.447C242.191 252.142 242.003 251.762 241.933 251.352C241.863 250.942 241.914 250.521 242.08 250.14C242.247 249.759 242.521 249.435 242.869 249.208C243.217 248.981 243.623 248.86 244.039 248.861C244.622 248.883 245.172 249.134 245.57 249.561C245.967 249.988 246.18 250.555 246.16 251.138Z" fill="#4CAF4F"/>
<path d="M252.751 251.169C252.722 251.586 252.572 251.985 252.318 252.317C252.065 252.649 251.719 252.9 251.325 253.037C250.93 253.174 250.504 253.192 250.099 253.089C249.694 252.986 249.328 252.767 249.047 252.457C248.766 252.148 248.582 251.763 248.518 251.35C248.454 250.937 248.513 250.515 248.687 250.135C248.861 249.755 249.143 249.434 249.498 249.214C249.852 248.993 250.264 248.881 250.681 248.892C251.255 248.927 251.792 249.184 252.179 249.609C252.565 250.035 252.771 250.594 252.751 251.169Z" fill="#4CAF4F"/>
<g opacity="0.2">
<path d="M200.006 250.931C199.975 251.347 199.823 251.745 199.568 252.076C199.314 252.407 198.968 252.655 198.573 252.791C198.178 252.927 197.753 252.944 197.349 252.839C196.944 252.735 196.58 252.515 196.3 252.205C196.02 251.896 195.837 251.511 195.773 251.098C195.71 250.686 195.769 250.264 195.944 249.884C196.118 249.505 196.4 249.185 196.754 248.965C197.108 248.744 197.519 248.632 197.936 248.644C198.513 248.676 199.053 248.934 199.441 249.362C199.828 249.79 200.031 250.354 200.006 250.931Z" fill="white"/>
<path d="M206.596 250.962C206.617 251.254 206.577 251.546 206.479 251.822C206.381 252.098 206.228 252.35 206.029 252.564C205.829 252.778 205.588 252.949 205.32 253.065C205.052 253.182 204.762 253.242 204.47 253.242C204.178 253.242 203.888 253.182 203.62 253.065C203.352 252.949 203.111 252.778 202.911 252.564C202.712 252.35 202.559 252.098 202.461 251.822C202.363 251.546 202.324 251.254 202.344 250.962C202.324 250.67 202.363 250.377 202.461 250.101C202.559 249.826 202.712 249.573 202.911 249.359C203.111 249.145 203.352 248.975 203.62 248.858C203.888 248.742 204.178 248.681 204.47 248.681C204.762 248.681 205.052 248.742 205.32 248.858C205.588 248.975 205.829 249.145 206.029 249.359C206.228 249.573 206.381 249.826 206.479 250.101C206.577 250.377 206.617 250.67 206.596 250.962Z" fill="white"/>
<path d="M213.197 250.993C213.167 251.409 213.015 251.807 212.76 252.138C212.505 252.469 212.159 252.717 211.764 252.853C211.37 252.989 210.944 253.006 210.54 252.901C210.136 252.797 209.771 252.577 209.491 252.267C209.211 251.958 209.028 251.573 208.965 251.16C208.902 250.748 208.961 250.326 209.135 249.946C209.309 249.567 209.591 249.247 209.945 249.027C210.3 248.806 210.711 248.695 211.128 248.706C211.703 248.74 212.242 248.999 212.629 249.427C213.016 249.854 213.22 250.417 213.197 250.993Z" fill="white"/>
<path d="M219.788 251.024C219.757 251.44 219.605 251.838 219.35 252.169C219.096 252.5 218.75 252.748 218.355 252.884C217.96 253.02 217.535 253.037 217.131 252.932C216.726 252.828 216.362 252.608 216.082 252.298C215.802 251.989 215.619 251.604 215.555 251.191C215.492 250.779 215.551 250.357 215.726 249.977C215.9 249.598 216.182 249.278 216.536 249.058C216.89 248.837 217.301 248.726 217.718 248.737C218.294 248.771 218.833 249.03 219.22 249.458C219.606 249.885 219.81 250.448 219.788 251.024Z" fill="white"/>
<path d="M226.378 251.045C226.35 251.461 226.199 251.861 225.946 252.193C225.692 252.525 225.347 252.775 224.952 252.913C224.557 253.05 224.131 253.068 223.726 252.965C223.321 252.862 222.956 252.642 222.675 252.333C222.394 252.024 222.21 251.639 222.146 251.226C222.082 250.813 222.14 250.39 222.314 250.01C222.489 249.63 222.77 249.31 223.125 249.089C223.48 248.868 223.891 248.756 224.309 248.768C224.882 248.802 225.42 249.06 225.806 249.485C226.193 249.91 226.398 250.47 226.378 251.045Z" fill="white"/>
<path d="M232.979 251.076C232.951 251.491 232.802 251.888 232.551 252.219C232.3 252.55 231.957 252.801 231.566 252.94C231.174 253.079 230.75 253.101 230.346 253.002C229.943 252.903 229.577 252.688 229.293 252.384C229.01 252.08 228.822 251.7 228.752 251.29C228.682 250.88 228.733 250.459 228.899 250.078C229.066 249.697 229.34 249.373 229.688 249.146C230.036 248.918 230.442 248.798 230.858 248.799C231.441 248.82 231.991 249.072 232.389 249.499C232.786 249.926 232.999 250.493 232.979 251.076Z" fill="white"/>
<path d="M239.57 251.107C239.59 251.399 239.55 251.692 239.452 251.967C239.355 252.243 239.202 252.496 239.002 252.71C238.803 252.923 238.561 253.094 238.293 253.211C238.025 253.327 237.736 253.387 237.443 253.387C237.151 253.387 236.862 253.327 236.594 253.211C236.325 253.094 236.084 252.923 235.885 252.71C235.685 252.496 235.532 252.243 235.434 251.967C235.337 251.692 235.297 251.399 235.317 251.107C235.297 250.815 235.337 250.522 235.434 250.247C235.532 249.971 235.685 249.718 235.885 249.504C236.084 249.29 236.325 249.12 236.594 249.003C236.862 248.887 237.151 248.826 237.443 248.826C237.736 248.826 238.025 248.887 238.293 249.003C238.561 249.12 238.803 249.29 239.002 249.504C239.202 249.718 239.355 249.971 239.452 250.247C239.55 250.522 239.59 250.815 239.57 251.107Z" fill="white"/>
<path d="M246.16 251.138C246.132 251.552 245.983 251.95 245.732 252.281C245.481 252.612 245.138 252.863 244.747 253.002C244.355 253.141 243.931 253.163 243.527 253.064C243.124 252.965 242.758 252.75 242.474 252.446C242.191 252.142 242.003 251.762 241.933 251.352C241.863 250.942 241.914 250.521 242.08 250.14C242.247 249.759 242.521 249.435 242.869 249.207C243.217 248.98 243.623 248.86 244.039 248.861C244.622 248.882 245.172 249.134 245.57 249.561C245.967 249.988 246.18 250.555 246.16 251.138Z" fill="white"/>
<path d="M252.751 251.169C252.722 251.586 252.572 251.985 252.318 252.317C252.065 252.649 251.719 252.899 251.324 253.037C250.93 253.174 250.504 253.192 250.099 253.089C249.694 252.986 249.328 252.766 249.047 252.457C248.766 252.148 248.582 251.763 248.518 251.35C248.454 250.937 248.513 250.514 248.687 250.135C248.861 249.755 249.143 249.434 249.497 249.213C249.852 248.992 250.264 248.881 250.681 248.892C251.255 248.927 251.792 249.184 252.179 249.609C252.565 250.035 252.771 250.594 252.751 251.169Z" fill="white"/>
</g>
<path d="M243.387 101.762C244.106 101.446 244.716 100.925 245.141 100.264C245.566 99.6035 245.787 98.8324 245.777 98.0469C245.804 97.5363 245.727 97.0255 245.55 96.5458C245.373 96.066 245.1 95.6273 244.748 95.2564C244.396 94.8855 243.973 94.5901 243.503 94.3882C243.033 94.1864 242.528 94.0823 242.016 94.0823C241.505 94.0823 240.999 94.1864 240.53 94.3882C240.06 94.5901 239.636 94.8855 239.285 95.2564C238.933 95.6273 238.66 96.066 238.483 96.5458C238.306 97.0255 238.229 97.5363 238.256 98.0469C238.24 98.8403 238.459 99.6206 238.887 100.289C239.314 100.958 239.93 101.485 240.656 101.804C234.862 102.673 235.121 108.966 235.121 108.966L248.819 109.028C248.819 109.028 249.14 102.621 243.387 101.762Z" fill="#4CAF4F"/>
<path opacity="0.1" d="M243.387 101.762C244.106 101.446 244.716 100.925 245.141 100.264C245.566 99.6035 245.787 98.8324 245.777 98.0469C245.804 97.5363 245.727 97.0255 245.55 96.5458C245.373 96.066 245.1 95.6273 244.748 95.2564C244.396 94.8855 243.973 94.5901 243.503 94.3882C243.033 94.1864 242.528 94.0823 242.016 94.0823C241.505 94.0823 240.999 94.1864 240.53 94.3882C240.06 94.5901 239.636 94.8855 239.285 95.2564C238.933 95.6273 238.66 96.066 238.483 96.5458C238.306 97.0255 238.229 97.5363 238.256 98.0469C238.24 98.8403 238.459 99.6206 238.887 100.289C239.314 100.958 239.93 101.485 240.656 101.804C234.862 102.673 235.121 108.966 235.121 108.966L248.819 109.028C248.819 109.028 249.14 102.621 243.387 101.762Z" fill="black"/>
<path d="M265.647 113.086L216.823 112.865L216.797 118.702L265.62 118.923L265.647 113.086Z" fill="#4CAF4F"/>
<path opacity="0.2" d="M265.647 113.086L216.823 112.865L216.797 118.702L265.62 118.923L265.647 113.086Z" fill="white"/>
<path d="M86.1562 143.336H85.67L84.2629 143.44C83.5014 143.486 82.7442 143.586 81.9971 143.74C81.5131 143.808 81.0331 143.901 80.5589 144.019L78.9553 144.464C76.2258 145.302 73.6505 146.578 71.3301 148.242C68.2644 150.468 65.7045 153.318 63.8188 156.605C62.7104 158.499 61.8284 160.517 61.1909 162.618C60.5209 164.9 60.1352 167.257 60.0424 169.635C59.9808 170.884 60.0015 172.135 60.1045 173.381C60.1045 174.013 60.2804 174.644 60.3632 175.286C60.4328 175.932 60.5539 176.573 60.7253 177.2C61.6556 181.353 63.5433 185.231 66.2378 188.525C68.9323 191.819 72.359 194.437 76.2446 196.171C79.0568 197.385 82.071 198.062 85.132 198.168C88.2935 198.342 91.4582 197.889 94.4435 196.833L95.354 196.492H95.4782L95.5816 196.554L108.628 203.178L108.245 203.509C106.849 199.183 105.504 194.991 104.2 190.965V190.81L104.314 190.696C107.479 187.507 109.828 183.602 111.163 179.312C112.372 175.389 112.725 171.253 112.198 167.182C111.729 163.564 110.566 160.071 108.773 156.894C107.228 154.165 105.234 151.716 102.876 149.65C100.93 148.014 98.7766 146.643 96.4714 145.572C94.7272 144.819 92.9106 144.247 91.05 143.864L88.9807 143.523L87.4806 143.409L86.5701 143.347H86.2597C86.3628 143.335 86.4669 143.335 86.5701 143.347H87.4909L88.9911 143.409L91.0603 143.709C92.9441 144.064 94.7854 144.615 96.5542 145.355C98.899 146.413 101.091 147.781 103.072 149.422C105.474 151.479 107.51 153.929 109.094 156.667C110.938 159.877 112.136 163.418 112.622 167.089C113.193 171.222 112.865 175.43 111.66 179.425C110.316 183.805 107.93 187.793 104.707 191.048L104.769 190.779C106.073 194.805 107.428 198.996 108.835 203.312L109.032 203.944L108.442 203.643L95.3954 197.03H95.623L94.6919 197.372C91.649 198.443 88.4257 198.907 85.2044 198.738C82.0774 198.619 79.0002 197.917 76.1308 196.668C70.6573 194.323 66.1035 190.247 63.167 185.066C61.8157 182.673 60.8288 180.092 60.239 177.407C60.0775 176.763 59.9566 176.11 59.8769 175.451C59.7941 174.799 59.6596 174.157 59.6286 173.516C59.3486 169.833 59.7377 166.13 60.777 162.587C61.4304 160.457 62.337 158.414 63.4774 156.501C65.4081 153.185 68.0213 150.317 71.1439 148.087C73.5025 146.418 76.121 145.152 78.8932 144.34L80.5176 143.926C80.9956 143.815 81.4791 143.729 81.966 143.668C82.7209 143.528 83.4852 143.445 84.2525 143.419L85.67 143.367C85.8311 143.346 85.9936 143.335 86.1562 143.336Z" fill="#4CAF4F"/>
<path d="M92.0535 167.472H90.1395L86.001 161.655V157.836C86.001 157.836 83.042 157.65 83.3937 162.649C83.7455 167.648 83.3937 166.375 83.3937 166.375C83.3937 166.375 77.1136 166.375 76.5963 166.944C76.079 167.513 76.0479 173.578 75.9755 176.962C75.9359 177.778 76.1699 178.584 76.6404 179.251C77.1109 179.919 77.7909 180.41 78.5724 180.647C78.7915 180.707 79.0176 180.739 79.2449 180.74C80.8175 180.74 88.8152 179.467 88.8152 179.467H92.1156L92.0535 167.472Z" fill="#4CAF4F"/>
<path d="M97.5267 166.447L96.3473 179.529H93.0779V166.716L97.5267 166.447Z" fill="#4CAF4F"/>
<path d="M136.521 432.773V423.924L120.661 423.81L120.526 437.192L121.509 437.265C125.886 437.544 143.774 437.958 146.712 437.047C149.982 436.033 136.521 432.773 136.521 432.773Z" fill="#4CAF4F"/>
<path d="M147.085 436.22C147.085 436.365 141.146 436.489 133.831 436.489C126.517 436.489 120.578 436.365 120.578 436.22C120.578 436.075 126.517 435.95 133.831 435.95C141.146 435.95 147.085 436.075 147.085 436.22Z" fill="#263238"/>
<path d="M136.801 434.584C136.666 434.512 136.801 434.046 137.122 433.549C137.442 433.052 137.877 432.845 137.98 432.949C138.084 433.052 137.866 433.446 137.556 433.87C137.246 434.294 136.935 434.657 136.801 434.584Z" fill="#263238"/>
<path d="M137.815 435.164C137.67 435.164 137.742 434.584 138.053 434.036C138.363 433.487 138.777 433.156 138.891 433.239C139.005 433.322 138.818 433.787 138.529 434.274C138.239 434.76 137.949 435.216 137.815 435.164Z" fill="#263238"/>
<path d="M125.358 436.178C125.296 436.178 125.058 435.992 124.716 435.598C124.3 435.093 123.835 434.628 123.33 434.211C122.833 433.814 122.241 433.554 121.613 433.456C121.126 433.394 120.816 433.456 120.785 433.394C120.754 433.332 121.054 433.114 121.623 433.073C122.374 433.057 123.107 433.306 123.692 433.777C124.241 434.224 124.704 434.768 125.058 435.381C125.296 435.836 125.42 436.136 125.358 436.178Z" fill="#263238"/>
<path d="M136.853 432.918C136.925 433.042 136.656 433.353 136.201 433.519C135.746 433.684 135.342 433.622 135.321 433.519C135.301 433.415 135.621 433.198 136.015 433.052C136.408 432.907 136.77 432.794 136.853 432.918Z" fill="#263238"/>
<path d="M136.604 432.059C136.604 432.214 136.19 432.339 135.652 432.349C135.114 432.359 134.69 432.235 134.701 432.09C134.711 431.945 135.135 431.81 135.652 431.8C136.17 431.79 136.584 431.914 136.604 432.059Z" fill="#263238"/>
<path d="M175.578 432.773V423.924L159.718 423.81L159.583 437.058L160.566 437.13C164.943 437.41 182.842 437.958 185.769 437.047C189.039 436.033 175.578 432.773 175.578 432.773Z" fill="#4CAF4F"/>
<path d="M186.142 436.24C186.142 436.385 180.214 436.509 172.888 436.509C165.563 436.509 159.645 436.385 159.645 436.24C159.645 436.095 165.574 435.971 172.888 435.971C180.203 435.971 186.142 436.095 186.142 436.24Z" fill="#263238"/>
<path d="M175.858 434.584C175.734 434.512 175.858 434.046 176.178 433.549C176.499 433.052 176.934 432.845 177.037 432.949C177.141 433.052 176.923 433.446 176.613 433.87C176.303 434.294 175.992 434.657 175.858 434.584Z" fill="#263238"/>
<path d="M176.872 435.164C176.737 435.164 176.799 434.584 177.12 434.036C177.441 433.487 177.844 433.156 177.958 433.239C178.072 433.322 177.875 433.787 177.586 434.274C177.296 434.76 177.016 435.216 176.872 435.164Z" fill="#263238"/>
<path d="M164.415 436.178C164.353 436.178 164.125 435.992 163.773 435.598C163.357 435.093 162.892 434.628 162.387 434.211C161.89 433.814 161.298 433.554 160.669 433.456C160.194 433.394 159.873 433.456 159.842 433.394C159.811 433.332 160.111 433.114 160.68 433.073C161.431 433.057 162.163 433.306 162.749 433.777C163.301 434.221 163.764 434.765 164.115 435.381C164.353 435.836 164.477 436.136 164.415 436.178Z" fill="#263238"/>
<path d="M175.91 432.918C175.982 433.042 175.713 433.353 175.258 433.519C174.802 433.684 174.399 433.622 174.378 433.519C174.358 433.415 174.678 433.198 175.071 433.052C175.465 432.907 175.827 432.794 175.91 432.918Z" fill="#263238"/>
<path d="M175.682 432.059C175.682 432.214 175.268 432.339 174.73 432.349C174.192 432.359 173.778 432.235 173.789 432.09C173.799 431.945 174.213 431.81 174.73 431.8C175.247 431.79 175.682 431.914 175.682 432.059Z" fill="#263238"/>
<path d="M234.014 169.997C233.6 169.572 232.576 169.779 232.576 169.779C232.678 169.184 232.678 168.575 232.576 167.979C232.389 167.399 231.086 167.513 231.086 167.513C231.026 167.025 231.026 166.531 231.086 166.043C231.096 165.935 231.073 165.826 231.019 165.732C230.966 165.637 230.884 165.562 230.786 165.515C230.169 165.264 229.506 165.144 228.841 165.164C228.044 164.594 231.272 160.072 232.472 158.623C233.672 157.174 233.455 156.046 232.389 156.046C231.655 156.046 227.889 160.392 226.73 161.852C225.571 163.311 222.498 167.368 222.395 164.129C222.292 160.889 220.988 158.447 220.171 158.033C219.353 157.619 218.484 158.592 218.929 159.492C219.32 160.515 219.564 161.588 219.653 162.68C219.766 163.549 219.727 164.431 219.539 165.288C219.196 166.881 218.729 168.445 218.143 169.966H218.06C218.06 169.966 195.484 191.627 193.85 193.17C192.391 194.556 163.049 191.524 157.162 190.903C155.162 190.61 153.142 190.472 151.12 190.489C148.564 190.603 148.109 190.965 145.564 190.996C139.136 191.067 132.724 191.631 126.382 192.683C123.511 193.171 120.829 194.439 118.628 196.348C116.428 198.257 114.794 200.734 113.905 203.509C107.976 222.035 94.547 265.886 92.1777 290.518C90.3873 293.765 88.7711 297.106 87.3357 300.526C85.6699 305.059 86.0734 305.214 86.6321 305.318C88.1427 305.597 89.8601 297.462 90.5016 299.429C91.1431 301.395 87.2426 309.126 88.8255 309.354C90.8948 309.644 92.5398 301.074 92.7364 300.391C92.933 299.708 93.9572 299.925 93.771 300.567C93.471 301.478 90.5637 311.134 92.5915 311.445C93.7089 311.61 93.8331 309.571 93.8331 309.571C93.8331 309.571 95.9023 300.329 96.8438 300.515C97.7853 300.702 96.7818 306.156 96.3058 307.977C95.8299 309.799 96.4921 310.72 97.4646 310.275C98.1268 309.965 99.7097 304.428 100.144 302.627C100.579 300.826 101.665 295.837 103.124 298.725C104.583 301.612 106.797 303.289 107.707 303.33C107.913 303.307 108.106 303.222 108.263 303.088C108.419 302.953 108.532 302.775 108.587 302.576C108.641 302.376 108.635 302.165 108.569 301.97C108.502 301.774 108.379 301.603 108.214 301.478C107.431 300.713 106.759 299.842 106.217 298.891C105.735 298.149 105.385 297.33 105.183 296.469C104.766 294.752 104.523 292.997 104.459 291.232L104.293 290.197C106.611 278.719 113.284 245.031 122.916 223.514L126.869 231.649L128.586 237.673L118.054 263.681L162.977 263.091L156.272 237.279L164.415 210.371C173.219 210.567 195.826 210.898 199.592 209.191C204.331 207.121 228.841 176.155 228.841 176.155C230.438 174.913 231.968 173.586 233.424 172.181C233.424 172.181 234.914 170.928 234.014 169.997Z" fill="#FFBE9D"/>
<path d="M116.077 244.462C117.381 240.012 124.075 218.009 124.075 218.009C124.075 218.009 127.365 235.945 126.496 238.108C125.697 239.959 124.752 241.745 123.672 243.448C116.077 255.009 117.071 260.794 117.071 260.794L162.956 259.397C163.06 252.98 159.262 238.056 158.476 235.676C157.69 233.295 160.307 225.502 160.307 225.502C160.307 225.502 165.481 220.234 165.294 217.522C165.196 215.087 164.895 212.663 164.394 210.278L192.329 211.313L191.449 192.373L151.327 188.357C149.93 192.3 137.297 190.365 137.297 190.365C123.661 190.82 122.813 193.325 117.143 197.734C111.473 202.143 102.089 239.981 102.089 239.981L116.077 244.462Z" fill="#4CAF4F"/>
<path d="M143.205 239.981C142.41 240.123 141.6 240.165 140.794 240.105C139.294 240.105 137.235 240.002 134.97 239.774C132.704 239.546 130.655 239.225 129.196 238.936C128.392 238.832 127.603 238.63 126.848 238.335C127.657 238.336 128.464 238.412 129.258 238.563C130.728 238.749 132.766 239.008 135.021 239.236C137.277 239.464 139.325 239.619 140.805 239.722C141.611 239.732 142.415 239.819 143.205 239.981Z" fill="#263238"/>
<path d="M146.35 236.079C145.555 236.469 144.714 236.757 143.847 236.938C139.719 238.023 135.46 238.528 131.193 238.439C130.31 238.467 129.427 238.384 128.565 238.19C129.437 238.08 130.315 238.035 131.193 238.056C132.818 238.004 135.052 237.89 137.515 237.6C139.977 237.311 142.171 236.897 143.722 236.565C144.584 236.335 145.463 236.173 146.35 236.079Z" fill="#263238"/>
<path d="M161.787 218.671C161.766 219.46 161.658 220.245 161.466 221.01C161.197 222.449 160.783 224.415 160.256 226.568C159.728 228.721 159.221 230.708 158.766 232.053C158.583 232.823 158.312 233.57 157.959 234.278C158.017 233.492 158.162 232.714 158.393 231.96C158.787 230.346 159.231 228.483 159.728 226.444C160.225 224.405 160.701 222.542 161.094 220.927C161.234 220.15 161.467 219.393 161.787 218.671Z" fill="#263238"/>
<path d="M116.564 241.823C114.17 241.453 111.808 240.903 109.497 240.178C107.136 239.625 104.819 238.899 102.565 238.004C104.958 238.38 107.319 238.93 109.632 239.65C111.993 240.2 114.311 240.926 116.564 241.823Z" fill="#263238"/>
<path d="M164.891 210.05C164.5 210.117 164.102 210.117 163.711 210.05C162.631 209.939 161.569 209.685 160.556 209.294C158.863 208.658 157.322 207.675 156.032 206.408C154.742 205.14 153.732 203.617 153.065 201.936C152.328 200.086 152.014 198.096 152.144 196.109C152.19 194.471 152.68 192.875 153.562 191.493C154.182 190.562 155.108 189.878 156.179 189.558C156.466 189.479 156.762 189.44 157.059 189.444C157.266 189.444 157.369 189.444 157.369 189.444C157.369 189.444 156.935 189.444 156.241 189.723C155.258 190.087 154.424 190.768 153.872 191.659C152.465 193.874 152.072 197.92 153.572 201.698C154.27 203.479 155.363 205.079 156.769 206.376C157.921 207.437 159.247 208.292 160.69 208.901C162.044 209.436 163.453 209.822 164.891 210.05Z" fill="#263238"/>
<path d="M189.007 210.94C188.749 207.766 188.666 204.581 188.759 201.398C188.678 198.218 188.775 195.035 189.049 191.866C189.307 195.036 189.39 198.218 189.297 201.398C189.384 204.582 189.287 207.768 189.007 210.94Z" fill="#263238"/>
<path d="M151.058 189.516C151.172 187.208 151.41 184.6 151.41 184.6C151.41 184.6 157.121 183.969 157.462 178.07C157.804 172.171 157.462 158.561 157.462 158.561L147.116 153.262L135.632 162.297L137.401 191.793L147.933 192.466C148.738 192.488 149.519 192.19 150.105 191.637C150.691 191.084 151.034 190.322 151.058 189.516Z" fill="#FFBE9D"/>
<path d="M152.082 173.402C152.082 173.402 152.082 173.516 151.989 173.651C151.912 173.748 151.812 173.825 151.699 173.876C151.585 173.926 151.461 173.949 151.337 173.94C150.675 173.94 150.034 173.174 149.806 172.284C149.698 171.853 149.698 171.401 149.806 170.97C149.827 170.782 149.895 170.602 150.004 170.446C150.112 170.291 150.257 170.165 150.427 170.08C150.566 170.022 150.722 170.022 150.861 170.08C150.964 170.131 151.048 170.215 151.099 170.318C151.172 170.494 151.099 170.608 151.099 170.597C151.099 170.587 151.099 170.494 150.996 170.39C150.942 170.316 150.862 170.265 150.772 170.246C150.683 170.227 150.589 170.241 150.51 170.287C150.383 170.364 150.277 170.471 150.203 170.6C150.129 170.728 150.088 170.873 150.085 171.022C149.998 171.407 149.998 171.806 150.085 172.191C150.292 172.998 150.851 173.651 151.348 173.713C151.445 173.726 151.544 173.719 151.638 173.692C151.732 173.665 151.82 173.62 151.896 173.557C152.02 173.475 152.061 173.392 152.082 173.402Z" fill="#EB996E"/>
<path d="M161.011 155.373C160.214 152.661 157.328 151.316 154.7 150.571C150.696 149.432 146.371 148.935 142.46 150.374C138.549 151.813 133.852 154.338 133.852 158.654C131.545 158.467 130.221 160.486 129.31 162.99C128.728 164.516 128.379 166.121 128.276 167.751C127.986 173.402 126.403 181.205 122.74 185.345C120.671 187.653 117.805 189.247 116.626 192.124C115.591 194.619 116.129 197.579 115.167 200.104C114.308 202.329 112.415 203.912 111.028 205.848C109.616 208.043 108.785 210.562 108.613 213.167C108.441 215.772 108.934 218.379 110.046 220.741C111.165 223.043 112.742 225.092 114.679 226.765C116.616 228.437 118.873 229.698 121.313 230.469C126.145 231.94 131.299 231.991 136.159 230.614C139.807 229.742 143.21 228.054 146.112 225.678C149.082 223.252 151.122 219.873 151.886 216.115C152.62 211.892 151.441 207.597 150.561 203.395C147.809 190.116 148.596 189.423 152.072 177.097C152.155 176.879 152.196 176.652 152.258 176.434C152.32 176.217 152.351 176.113 152.393 175.948C152.491 175.461 152.543 174.965 152.548 174.468C152.04 174.657 151.489 174.697 150.959 174.583C150.43 174.469 149.943 174.207 149.558 173.826C149.171 173.42 148.902 172.917 148.778 172.371C148.654 171.824 148.68 171.254 148.854 170.721C149.098 170.139 149.462 169.614 149.922 169.18C150.382 168.747 150.927 168.415 151.523 168.206C152.672 167.73 153.903 167.482 155.031 166.954C157.421 165.816 159.076 163.456 160.204 160.982C161.131 159.268 161.417 157.279 161.011 155.373Z" fill="#263238"/>
<path d="M152.496 173.681C152.715 174.004 152.895 174.352 153.034 174.716C153.344 175.368 153.758 176.289 154.213 177.356L154.296 177.552H154.079L153.044 177.645C152.33 177.645 151.73 177.78 151.027 177.769C150.966 177.756 150.909 177.727 150.862 177.685C150.815 177.643 150.779 177.591 150.758 177.531C150.727 177.437 150.727 177.336 150.758 177.242C150.782 177.102 150.813 176.964 150.851 176.828L151.037 176.093C151.131 175.603 151.276 175.124 151.472 174.665C151.452 175.164 151.38 175.66 151.254 176.145L151.11 176.879C151.058 177.128 150.965 177.511 151.11 177.48C151.627 177.48 152.361 177.366 153.044 177.324L154.079 177.231L153.944 177.459C153.5 176.424 153.127 175.451 152.91 174.778C152.719 174.435 152.58 174.065 152.496 173.681Z" fill="#4CAF4F"/>
<path d="M117.071 260.794L162.956 259.397L182.924 337.37L179.251 426.811H154.989L157.959 339.275L140.215 284.991L142.946 430.279L118.426 430.641L115.85 294.078C115.736 290.28 114.494 281.721 114.96 277.953L117.071 260.794Z" fill="#263238"/>
<path d="M146.319 286.099C145.568 286.146 144.814 286.101 144.074 285.964C142.688 285.799 140.794 285.509 138.715 285.095C136.635 284.681 134.773 284.205 133.428 283.822C132.709 283.664 132.014 283.413 131.359 283.077C131.359 282.921 134.732 283.729 138.87 284.567C143.009 285.405 146.34 285.943 146.319 286.099Z" fill="#455A64"/>
<path d="M179.003 421.906C179.003 422.051 173.509 422.175 166.732 422.175C159.956 422.175 154.451 422.051 154.451 421.906C154.451 421.761 159.945 421.637 166.732 421.637C173.519 421.637 179.003 421.751 179.003 421.906Z" fill="#455A64"/>
<path d="M142.729 426.501C142.729 426.657 137.391 426.771 130.81 426.771C124.23 426.771 118.902 426.657 118.902 426.501C118.902 426.346 124.241 426.232 130.81 426.232C137.38 426.232 142.729 426.356 142.729 426.501Z" fill="#455A64"/>
<path d="M139.563 426.129C139.418 426.129 138.777 394.386 138.125 355.234C137.473 316.081 137.091 284.318 137.225 284.318C137.36 284.318 138.022 316.05 138.663 355.223C139.305 394.397 139.718 426.129 139.563 426.129Z" fill="#455A64"/>
<path d="M175.744 421.906C175.733 421.765 175.733 421.623 175.744 421.482V420.24C175.744 419.122 175.827 417.518 175.889 415.479C176.034 411.339 176.241 405.326 176.499 397.957C177.058 383.136 177.844 362.706 178.703 340.154C178.703 339.937 178.703 339.73 178.703 339.544V339.616C173.271 317.882 168.357 298.156 164.787 283.884L160.649 267.004C160.173 265.027 159.811 263.485 159.552 262.408C159.428 261.901 159.345 261.508 159.273 261.208C159.233 261.073 159.208 260.934 159.2 260.794C159.254 260.924 159.296 261.059 159.325 261.198C159.407 261.487 159.511 261.881 159.656 262.377C159.935 263.412 160.339 264.985 160.856 266.952C161.89 270.947 163.349 276.701 165.17 283.791C168.771 298.052 173.737 317.727 179.241 339.492V339.565C179.241 339.751 179.241 339.968 179.241 340.175C178.32 362.727 177.482 383.147 176.872 397.967C176.551 405.347 176.282 411.318 176.096 415.479C175.992 417.549 175.91 419.122 175.858 420.24C175.858 420.767 175.796 421.181 175.785 421.482C175.787 421.624 175.773 421.766 175.744 421.906Z" fill="#455A64"/>
<path d="M167.829 337.722C166.086 338.295 164.291 338.694 162.47 338.912C160.235 339.295 158.331 339.564 157.473 339.606V339.399C157.752 339.482 157.897 339.533 157.897 339.575C157.897 339.616 157.721 339.575 157.431 339.575H156.81L157.431 339.388C158.238 339.15 160.142 338.757 162.377 338.354C164.169 337.965 165.995 337.753 167.829 337.722Z" fill="#455A64"/>
<path d="M167.405 340.693C165.791 340.768 164.174 340.695 162.573 340.476C160.957 340.443 159.347 340.266 157.762 339.948C160.996 339.683 164.25 339.935 167.405 340.693Z" fill="#455A64"/>
<path opacity="0.2" d="M116.874 262.439C117.417 263.137 118.102 263.713 118.883 264.128C119.664 264.544 120.523 264.79 121.406 264.851C123.254 265.07 125.123 265.035 126.962 264.747C138.808 263.433 151.358 262.222 162.956 259.397C147.944 260.235 132.083 259.955 117.071 260.794L116.915 262.077" fill="black"/>
<g opacity="0.2">
<path d="M132.342 283.604L140.805 316.454L140.215 284.991L132.342 283.604Z" fill="black"/>
</g>
</svg>
