<svg width="137" height="22" viewBox="0 0 137 22" fill="none" xmlns="http://www.w3.org/2000/svg">
                <path
                    d="M18.7589 7.92878H14.4196C14.3403 7.36372 14.1785 6.86182 13.9341 6.42308C13.6897 5.97768 13.376 5.59877 12.9929 5.28633C12.6099 4.97388 12.1673 4.73457 11.6654 4.56838C11.17 4.40218 10.6317 4.31909 10.0505 4.31909C9.00035 4.31909 8.08559 4.58167 7.30622 5.10684C6.52686 5.62536 5.92252 6.38319 5.49321 7.38034C5.0639 8.37085 4.84925 9.57407 4.84925 10.99C4.84925 12.4459 5.0639 13.669 5.49321 14.6595C5.92913 15.65 6.53677 16.3979 7.31613 16.9031C8.09549 17.4084 8.99705 17.661 10.0208 17.661C10.5954 17.661 11.1271 17.5845 11.6158 17.4316C12.1112 17.2787 12.5504 17.056 12.9335 16.7635C13.3166 16.4644 13.6336 16.1021 13.8846 15.6766C14.1422 15.2512 14.3205 14.7659 14.4196 14.2208L18.7589 14.2407C18.6466 15.1781 18.3659 16.0821 17.9168 16.953C17.4743 17.8172 16.8765 18.5916 16.1236 19.2764C15.3773 19.9544 14.4856 20.4929 13.4487 20.8917C12.4183 21.2839 11.2526 21.4801 9.95144 21.4801C8.14173 21.4801 6.52356 21.0679 5.09693 20.2436C3.6769 19.4193 2.55409 18.226 1.72849 16.6638C0.909496 15.1016 0.5 13.2104 0.5 10.99C0.5 8.76306 0.916101 6.86847 1.7483 5.30627C2.58051 3.74407 3.70992 2.55413 5.13655 1.73647C6.56319 0.912156 8.16815 0.5 9.95144 0.5C11.1271 0.5 12.2169 0.666192 13.2208 0.998576C14.2313 1.33096 15.1263 1.81624 15.9056 2.45442C16.685 3.08594 17.3191 3.8604 17.8078 4.77778C18.3032 5.69516 18.6202 6.74549 18.7589 7.92878Z"
                    fill="#263238" />
                <path
                    d="M28.6314 21.5C27.0925 21.5 25.7616 21.1709 24.6388 20.5128C23.5226 19.8481 22.6607 18.924 22.053 17.7407C21.4454 16.5508 21.1416 15.1714 21.1416 13.6026C21.1416 12.0204 21.4454 10.6377 22.053 9.45442C22.6607 8.26448 23.5226 7.34046 24.6388 6.68234C25.7616 6.01757 27.0925 5.68519 28.6314 5.68519C30.1703 5.68519 31.4979 6.01757 32.6141 6.68234C33.7369 7.34046 34.6021 8.26448 35.2098 9.45442C35.8174 10.6377 36.1212 12.0204 36.1212 13.6026C36.1212 15.1714 35.8174 16.5508 35.2098 17.7407C34.6021 18.924 33.7369 19.8481 32.6141 20.5128C31.4979 21.1709 30.1703 21.5 28.6314 21.5ZM28.6512 18.2094C29.3513 18.2094 29.9358 18.01 30.4048 17.6111C30.8737 17.2056 31.2271 16.6538 31.4648 15.9558C31.7092 15.2578 31.8314 14.4634 31.8314 13.5726C31.8314 12.6819 31.7092 11.8875 31.4648 11.1895C31.2271 10.4915 30.8737 9.9397 30.4048 9.53419C29.9358 9.12868 29.3513 8.92593 28.6512 8.92593C27.9445 8.92593 27.3501 9.12868 26.8679 9.53419C26.3924 9.9397 26.0324 10.4915 25.788 11.1895C25.5503 11.8875 25.4314 12.6819 25.4314 13.5726C25.4314 14.4634 25.5503 15.2578 25.788 15.9558C26.0324 16.6538 26.3924 17.2056 26.8679 17.6111C27.3501 18.01 27.9445 18.2094 28.6512 18.2094Z"
                    fill="#263238" />
                <path
                    d="M48.6241 14.6795V5.88462H52.8445V21.2009H48.7925V18.4188H48.634C48.2905 19.3162 47.7192 20.0375 46.92 20.5826C46.1275 21.1277 45.1599 21.4003 44.0172 21.4003C43.0001 21.4003 42.1051 21.1676 41.3324 20.7023C40.5596 20.2369 39.9553 19.5755 39.5194 18.7179C39.0901 17.8604 38.8721 16.8333 38.8655 15.6368V5.88462H43.086V14.8789C43.0926 15.783 43.3336 16.4976 43.8092 17.0228C44.2847 17.548 44.9221 17.8105 45.7213 17.8105C46.2298 17.8105 46.7054 17.6942 47.1479 17.4615C47.5904 17.2222 47.9471 16.8699 48.2179 16.4046C48.4953 15.9392 48.6307 15.3642 48.6241 14.6795Z"
                    fill="#263238" />
                <path
                    d="M56.2204 21.2009V5.88462H60.312V8.55698H60.4706C60.748 7.60636 61.2136 6.88841 61.8675 6.40314C62.5213 5.91121 63.2743 5.66524 64.1263 5.66524C64.3377 5.66524 64.5655 5.67854 64.8099 5.70513C65.0543 5.73172 65.2689 5.76828 65.4539 5.81481V9.58405C65.2557 9.52422 64.9816 9.47103 64.6316 9.4245C64.2815 9.37797 63.9612 9.3547 63.6706 9.3547C63.0497 9.3547 62.4949 9.49098 62.0062 9.76353C61.524 10.0294 61.1409 10.4017 60.8569 10.8803C60.5795 11.359 60.4408 11.9107 60.4408 12.5356V21.2009H56.2204Z"
                    fill="#263238" />
                <path
                    d="M67.5566 21.2009V18.6681L75.0068 9.38461V9.27493H67.8142V5.88462H80.0892V8.64672L73.0948 17.7009V17.8105H80.3468V21.2009H67.5566Z"
                    fill="#263238" />
                <path
                    d="M98.1574 7.38034C98.0187 6.89506 97.8238 6.46629 97.5729 6.09402C97.3219 5.7151 97.0148 5.39601 96.6515 5.13675C96.2948 4.87085 95.8853 4.66809 95.423 4.52849C94.9673 4.38889 94.462 4.31909 93.9072 4.31909C92.8703 4.31909 91.9588 4.57835 91.1728 5.09687C90.3935 5.61538 89.7858 6.3699 89.3499 7.3604C88.914 8.34425 88.6961 9.54748 88.6961 10.9701C88.6961 12.3927 88.9107 13.6026 89.34 14.5997C89.7693 15.5969 90.377 16.358 91.1629 16.8832C91.9489 17.4017 92.8769 17.661 93.9468 17.661C94.9177 17.661 95.7467 17.4881 96.4335 17.1425C97.1271 16.7901 97.6554 16.2949 98.0187 15.6567C98.3886 15.0185 98.5735 14.264 98.5735 13.3932L99.4453 13.5228H94.2143V10.2721H102.705V12.8447C102.705 14.6396 102.328 16.1819 101.575 17.4715C100.822 18.7545 99.7855 19.745 98.4645 20.443C97.1436 21.1344 95.6311 21.4801 93.927 21.4801C92.0249 21.4801 90.3539 21.0579 88.914 20.2137C87.4742 19.3628 86.3514 18.1562 85.5456 16.594C84.7464 15.0252 84.3468 13.1638 84.3468 11.01C84.3468 9.3547 84.5846 7.87892 85.0601 6.58262C85.5423 5.27968 86.216 4.17616 87.0812 3.27208C87.9464 2.368 88.9536 1.67996 90.1029 1.20798C91.2521 0.735992 92.4971 0.5 93.8379 0.5C94.9871 0.5 96.0571 0.669516 97.0478 1.00855C98.0385 1.34093 98.9169 1.81292 99.6831 2.4245C100.456 3.03609 101.087 3.76401 101.575 4.60826C102.064 5.44587 102.378 6.3699 102.517 7.38034H98.1574Z"
                    fill="#4CAF4F" />
                <path
                    d="M112.783 21.5C111.218 21.5 109.87 21.1809 108.741 20.5427C107.618 19.8979 106.753 18.9872 106.145 17.8105C105.537 16.6273 105.234 15.2279 105.234 13.6125C105.234 12.037 105.537 10.6543 106.145 9.46439C106.753 8.27445 107.608 7.3471 108.711 6.68234C109.821 6.01757 111.122 5.68519 112.614 5.68519C113.618 5.68519 114.553 5.84805 115.418 6.17379C116.29 6.49288 117.05 6.97483 117.697 7.61966C118.351 8.26448 118.859 9.0755 119.223 10.0527C119.586 11.0233 119.767 12.16 119.767 13.463V14.6296H106.918V11.9972H115.795C115.795 11.3856 115.663 10.8438 115.398 10.3718C115.134 9.89981 114.768 9.53086 114.299 9.26496C113.836 8.9924 113.298 8.85613 112.684 8.85613C112.043 8.85613 111.475 9.0057 110.98 9.30484C110.491 9.59734 110.108 9.99288 109.831 10.4915C109.553 10.9834 109.411 11.5318 109.405 12.1368V14.6396C109.405 15.3974 109.543 16.0522 109.821 16.604C110.105 17.1557 110.504 17.5812 111.019 17.8803C111.535 18.1795 112.145 18.3291 112.852 18.3291C113.321 18.3291 113.75 18.2626 114.14 18.1296C114.53 17.9967 114.863 17.7972 115.141 17.5313C115.418 17.2654 115.63 16.9397 115.775 16.5541L119.678 16.8134C119.48 17.7574 119.074 18.5817 118.46 19.2863C117.852 19.9843 117.066 20.5294 116.102 20.9217C115.144 21.3072 114.038 21.5 112.783 21.5Z"
                    fill="#4CAF4F" />
                <path
                    d="M126.742 12.3462V21.2009H122.522V5.88462H126.544V8.58689H126.722C127.059 7.69611 127.624 6.99145 128.416 6.47293C129.209 5.94777 130.17 5.68519 131.299 5.68519C132.356 5.68519 133.277 5.91785 134.063 6.38319C134.849 6.84853 135.46 7.5133 135.896 8.37749C136.332 9.23504 136.55 10.2588 136.55 11.4487V21.2009H132.33V12.2066C132.336 11.2692 132.099 10.538 131.616 10.0128C131.134 9.48101 130.47 9.2151 129.625 9.2151C129.057 9.2151 128.555 9.33808 128.119 9.58405C127.69 9.83001 127.353 10.189 127.109 10.661C126.871 11.1263 126.749 11.688 126.742 12.3462Z"
                    fill="#4CAF4F" />
</svg>