<svg width="170" height="26" viewBox="0 0 170 26" fill="none" xmlns="http://www.w3.org/2000/svg">
<path d="M23.5268 9.20292H18.162C18.064 8.50433 17.8639 7.88382 17.5618 7.34139C17.2597 6.79074 16.8718 6.32227 16.3982 5.936C15.9246 5.54972 15.3775 5.25385 14.7569 5.04838C14.1445 4.84291 13.479 4.74018 12.7604 4.74018C11.4621 4.74018 10.3311 5.06482 9.36757 5.71409C8.40402 6.35515 7.65687 7.29208 7.1261 8.52488C6.59534 9.74946 6.32995 11.237 6.32995 12.9876C6.32995 14.7875 6.59534 16.2997 7.1261 17.5243C7.66503 18.7489 8.41627 19.6735 9.37982 20.2981C10.3434 20.9227 11.458 21.235 12.7236 21.235C13.4341 21.235 14.0914 21.1405 14.6956 20.9515C15.3081 20.7625 15.8511 20.4872 16.3247 20.1255C16.7983 19.7557 17.1902 19.3078 17.5005 18.7818C17.819 18.2558 18.0395 17.6558 18.162 16.9819L23.5268 17.0065C23.388 18.1654 23.0409 19.2831 22.4857 20.3598C21.9386 21.4282 21.1996 22.3857 20.2687 23.2322C19.346 24.0705 18.2436 24.7362 16.9616 25.2293C15.6878 25.7142 14.2465 25.9567 12.6379 25.9567C10.4005 25.9567 8.39994 25.4471 6.63616 24.428C4.88055 23.4089 3.49239 21.9336 2.47169 20.0022C1.45915 18.0709 0.952881 15.7327 0.952881 12.9876C0.952881 10.2344 1.46732 7.89204 2.49619 5.96065C3.52506 4.02927 4.92138 2.55812 6.68516 1.54723C8.44894 0.528112 10.4332 0.0185547 12.6379 0.0185547C14.0914 0.0185547 15.4387 0.224021 16.6799 0.634955C17.9292 1.04589 19.0357 1.64585 19.9992 2.43484C20.9628 3.21562 21.7467 4.17309 22.3509 5.30727C22.9634 6.44144 23.3553 7.73999 23.5268 9.20292Z" fill="white"/>
<path d="M35.7324 25.9813C33.8298 25.9813 32.1844 25.5745 30.7962 24.7609C29.4162 23.939 28.3506 22.7966 27.5994 21.3337C26.8482 19.8625 26.4725 18.1572 26.4725 16.2176C26.4725 14.2615 26.8482 12.552 27.5994 11.0891C28.3506 9.61796 29.4162 8.47556 30.7962 7.66192C32.1844 6.84005 33.8298 6.42912 35.7324 6.42912C37.635 6.42912 39.2763 6.84005 40.6562 7.66192C42.0444 8.47556 43.1141 9.61796 43.8653 11.0891C44.6166 12.552 44.9922 14.2615 44.9922 16.2176C44.9922 18.1572 44.6166 19.8625 43.8653 21.3337C43.1141 22.7966 42.0444 23.939 40.6562 24.7609C39.2763 25.5745 37.635 25.9813 35.7324 25.9813ZM35.7569 21.9131C36.6224 21.9131 37.3451 21.6665 37.9248 21.1734C38.5046 20.6721 38.9415 19.9899 39.2354 19.127C39.5376 18.264 39.6886 17.2819 39.6886 16.1806C39.6886 15.0793 39.5376 14.0971 39.2354 13.2342C38.9415 12.3712 38.5046 11.6891 37.9248 11.1877C37.3451 10.6864 36.6224 10.4357 35.7569 10.4357C34.8831 10.4357 34.1482 10.6864 33.5521 11.1877C32.9642 11.6891 32.5192 12.3712 32.2171 13.2342C31.9231 14.0971 31.7761 15.0793 31.7761 16.1806C31.7761 17.2819 31.9231 18.264 32.2171 19.127C32.5192 19.9899 32.9642 20.6721 33.5521 21.1734C34.1482 21.6665 34.8831 21.9131 35.7569 21.9131Z" fill="white"/>
<path d="M60.4497 17.549V6.67568H65.6676V25.6115H60.658V22.172H60.462C60.0374 23.2815 59.3311 24.1732 58.343 24.8472C57.3631 25.5211 56.1669 25.8581 54.7542 25.8581C53.4967 25.8581 52.3903 25.5704 51.4349 24.9951C50.4795 24.4198 49.7323 23.602 49.1934 22.5418C48.6626 21.4816 48.3932 20.2118 48.385 18.7325V6.67568H53.6029V17.7955C53.611 18.9133 53.9091 19.7968 54.497 20.4461C55.0849 21.0953 55.8729 21.42 56.8609 21.42C57.4897 21.42 58.0776 21.2761 58.6247 20.9885C59.1718 20.6926 59.6128 20.257 59.9476 19.6817C60.2905 19.1064 60.4579 18.3955 60.4497 17.549Z" fill="white"/>
<path d="M69.8412 25.6115V6.67568H74.8999V9.97958H75.0958C75.4388 8.80431 76.0145 7.9167 76.8229 7.31673C77.6313 6.70855 78.5621 6.40446 79.6155 6.40446C79.8768 6.40446 80.1585 6.4209 80.4607 6.45377C80.7628 6.48665 81.0282 6.53185 81.2568 6.58938V11.2494C81.0118 11.1754 80.673 11.1096 80.2402 11.0521C79.8074 10.9946 79.4114 10.9658 79.0521 10.9658C78.2845 10.9658 77.5986 11.1343 76.9943 11.4713C76.3983 11.8 75.9246 12.2603 75.5735 12.852C75.2306 13.4438 75.0591 14.1259 75.0591 14.8985V25.6115H69.8412Z" fill="white"/>
<path d="M83.8565 25.6115V22.4802L93.0674 11.0028V10.8672H84.175V6.67568H99.3508V10.0905L90.7034 21.2844V21.42H99.6693V25.6115H83.8565Z" fill="white"/>
<path d="M121.689 8.52488C121.517 7.92491 121.277 7.39481 120.966 6.93456C120.656 6.4661 120.276 6.07161 119.827 5.75108C119.386 5.42233 118.88 5.17166 118.308 4.99907C117.745 4.82648 117.12 4.74018 116.434 4.74018C115.152 4.74018 114.026 5.06071 113.054 5.70176C112.09 6.34282 111.339 7.27564 110.8 8.50022C110.261 9.71658 109.992 11.2042 109.992 12.963C109.992 14.7218 110.257 16.2176 110.788 17.4504C111.319 18.6832 112.07 19.6242 113.042 20.2735C114.013 20.9145 115.161 21.235 116.483 21.235C117.684 21.235 118.709 21.0214 119.558 20.594C120.415 20.1584 121.068 19.5461 121.518 18.7571C121.975 17.9681 122.203 17.0353 122.203 15.9587L123.281 16.1189H116.814V12.1H127.311V15.2806C127.311 17.4997 126.846 19.4064 125.915 21.0008C124.984 22.587 123.702 23.8116 122.069 24.6746C120.436 25.5293 118.566 25.9567 116.459 25.9567C114.107 25.9567 112.041 25.4348 110.261 24.391C108.481 23.339 107.093 21.8473 106.097 19.916C105.109 17.9763 104.615 15.6751 104.615 13.0123C104.615 10.9658 104.909 9.14128 105.497 7.53864C106.093 5.92778 106.925 4.56348 107.995 3.44574C109.065 2.328 110.31 1.47737 111.731 0.893843C113.152 0.310317 114.691 0.0185547 116.349 0.0185547C117.769 0.0185547 119.092 0.228131 120.317 0.647283C121.542 1.05822 122.628 1.64174 123.575 2.39786C124.531 3.15398 125.31 4.05392 125.915 5.09769C126.519 6.13324 126.907 7.27564 127.078 8.52488H121.689Z" fill="#4CAF4F"/>
<path d="M139.771 25.9813C137.836 25.9813 136.17 25.5868 134.773 24.7978C133.385 24.0006 132.316 22.8747 131.564 21.42C130.813 19.957 130.437 18.227 130.437 16.2299C130.437 14.2821 130.813 12.5726 131.564 11.1014C132.316 9.63029 133.373 8.48378 134.737 7.66192C136.108 6.84005 137.717 6.42912 139.563 6.42912C140.804 6.42912 141.959 6.63047 143.029 7.03319C144.107 7.42768 145.046 8.02354 145.846 8.82075C146.654 9.61796 147.283 10.6206 147.732 11.8288C148.181 13.0287 148.406 14.4341 148.406 16.045V17.4873H132.52V14.2327H143.494C143.494 13.4766 143.331 12.8068 143.004 12.2233C142.678 11.6398 142.225 11.1836 141.645 10.8549C141.073 10.5179 140.408 10.3494 139.648 10.3494C138.856 10.3494 138.154 10.5343 137.542 10.9042C136.937 11.2658 136.464 11.7548 136.121 12.3712C135.778 12.9794 135.602 13.6574 135.594 14.4053V17.4997C135.594 18.4366 135.766 19.2461 136.108 19.9283C136.46 20.6104 136.954 21.1364 137.591 21.5063C138.227 21.8761 138.983 22.061 139.856 22.061C140.436 22.061 140.967 21.9788 141.449 21.8145C141.931 21.6501 142.343 21.4035 142.686 21.0748C143.029 20.746 143.29 20.3433 143.47 19.8666L148.296 20.1872C148.051 21.3542 147.549 22.3733 146.789 23.2445C146.038 24.1075 145.066 24.7814 143.874 25.2663C142.69 25.743 141.322 25.9813 139.771 25.9813Z" fill="#4CAF4F"/>
<path d="M157.029 14.6642V25.6115H151.811V6.67568H156.784V10.0166H157.004C157.421 8.91526 158.119 8.04408 159.099 7.40303C160.079 6.75375 161.267 6.42912 162.663 6.42912C163.97 6.42912 165.109 6.71677 166.08 7.29208C167.052 7.86738 167.807 8.68925 168.346 9.75768C168.885 10.8179 169.155 12.0836 169.155 13.5547V25.6115H163.937V14.4916C163.945 13.3328 163.651 12.4287 163.055 11.7795C162.459 11.122 161.638 10.7932 160.593 10.7932C159.891 10.7932 159.27 10.9453 158.731 11.2494C158.201 11.5535 157.784 11.9973 157.482 12.5808C157.188 13.1561 157.037 13.8506 157.029 14.6642Z" fill="#4CAF4F"/>
</svg>
