<svg width="49" height="48" viewBox="0 0 49 48" fill="none" xmlns="http://www.w3.org/2000/svg">
<g clip-path="url(#clip0_211_817)">
<path fill-rule="evenodd" clip-rule="evenodd" d="M14.5001 4C20.0229 4 24.5001 8.47715 24.5001 14V4H34.5001C40.0229 4 44.5001 8.47715 44.5001 14C44.5001 19.5228 40.0229 24 34.5001 24C40.0229 24 44.5001 28.4772 44.5001 34C44.5001 36.7423 43.3962 39.2268 41.6086 41.0334L41.5712 41.0711L41.538 41.1041C39.731 42.8943 37.2447 44 34.5001 44C31.7742 44 29.303 42.9093 27.4991 41.1405C27.4757 41.1175 27.4523 41.0943 27.429 41.0711C27.4071 41.0492 27.3853 41.0272 27.3636 41.0051C25.5925 39.2009 24.5001 36.728 24.5001 34C24.5001 39.5228 20.0229 44 14.5001 44C8.97721 44 4.50006 39.5228 4.50006 34V24H14.5001C8.97721 24 4.50006 19.5228 4.50006 14C4.50006 8.47715 8.97721 4 14.5001 4ZM22.5001 14C22.5001 18.4183 18.9184 22 14.5001 22V6C18.9184 6 22.5001 9.58172 22.5001 14ZM42.5001 34C42.5001 29.5817 38.9184 26 34.5001 26C30.0818 26 26.5001 29.5817 26.5001 34H42.5001ZM6.50006 26V34C6.50006 38.4183 10.0818 42 14.5001 42C18.9184 42 22.5001 38.4183 22.5001 34V26H6.50006ZM26.5001 22V6H34.5001C38.9184 6 42.5001 9.58172 42.5001 14C42.5001 18.4183 38.9184 22 34.5001 22H26.5001Z" fill="#263238"/>
</g>
<defs>
<clipPath id="clip0_211_817">
<rect width="40" height="40" fill="white" transform="translate(4.50006 4)"/>
</clipPath>
</defs>
</svg>