<svg width="49" height="48" viewBox="0 0 49 48" fill="none" xmlns="http://www.w3.org/2000/svg">
<g clip-path="url(#clip0_211_820)">
<path fill-rule="evenodd" clip-rule="evenodd" d="M14.4858 13.9614L4.5 23.8468C6.49734 25.8241 8.77899 27.4905 11.2666 28.7942C11.9542 30.5998 13.032 32.2931 14.5 33.7463C20.0229 39.2136 28.9772 39.2136 34.5 33.7463C35.968 32.2931 37.0458 30.5998 37.7334 28.7941C40.221 27.4905 42.5027 25.8241 44.5 23.8468L34.5223 13.9695C34.5149 13.9621 34.5075 13.9547 34.5 13.9473C28.9772 8.47997 20.0229 8.47997 14.5 13.9473C14.4953 13.952 14.4905 13.9567 14.4858 13.9614ZM33.5445 30.5777C30.6345 31.5499 27.5797 32.0478 24.5 32.0478C21.4203 32.0478 18.3656 31.5499 15.4556 30.5777C15.7709 30.9918 16.119 31.3892 16.5 31.7664C20.9183 36.1403 28.0817 36.1403 32.5 31.7664C32.881 31.3892 33.2292 30.9918 33.5445 30.5777ZM16.7051 15.7292C17.4554 16.2199 18.2532 16.6398 19.088 16.9822C20.8038 17.6857 22.6428 18.0478 24.5 18.0478C26.3572 18.0478 28.1962 17.6857 29.912 16.9822C30.7468 16.6398 31.5446 16.2199 32.295 15.7292C27.9318 11.6193 21.0682 11.6193 16.7051 15.7292Z" fill="#3B4158"/>
</g>
<defs>
<clipPath id="clip0_211_820">
<rect width="40" height="28" fill="white" transform="translate(4.5 9.8468)"/>
</clipPath>
</defs>
</svg>
