<svg width="56" height="48" viewBox="0 0 56 48" fill="none" xmlns="http://www.w3.org/2000/svg">
<g clip-path="url(#clip0_211_823)">
<path d="M55.4957 19.5165C55.5015 19.4748 55.5015 19.4326 55.4957 19.3909C55.5011 19.3569 55.5011 19.3223 55.4957 19.2882L55.0883 16.3556C55.0295 16.0047 54.8723 15.6768 54.6344 15.4085L54.5645 15.3286L54.4365 15.2031L47.3829 9.24648L47.5808 9.44048C47.4189 9.2506 47.2157 9.09872 46.9861 8.99602C46.7565 8.89333 46.5062 8.84244 46.2539 8.8471H44.1122C43.7639 8.84034 43.4236 8.94889 43.1461 9.1552C42.8547 8.95013 42.5038 8.84213 42.1451 8.8471H40.0034C39.7225 8.84263 39.4454 8.91098 39.2001 9.04523C38.9549 9.17948 38.7501 9.37488 38.6067 9.61164C38.3855 9.94979 38.3023 10.3572 38.3738 10.7527L38.6416 12.6013C38.4642 12.5028 38.2635 12.4516 38.0596 12.453H27.6887C27.3166 12.4553 26.9531 12.5622 26.6411 12.7611C26.3395 12.9462 26.0973 13.2113 25.9428 13.5256L25.1396 12.8524C24.8235 12.5656 24.4063 12.4102 23.9757 12.4188H7.70353C7.33012 12.4254 6.96501 12.5277 6.64436 12.7155C6.20569 12.9672 5.88421 13.3764 5.74809 13.8566L0.580117 30.802C0.483555 31.0812 0.474056 31.3824 0.552836 31.6669C0.631617 31.9514 0.795109 32.2065 1.02243 32.3996C1.08166 32.4488 1.14385 32.4945 1.20866 32.5365C1.20866 32.5365 1.10389 32.468 1.04569 32.411L8.09931 38.379C8.39769 38.6483 8.78781 38.7988 9.19336 38.8011H25.5936C25.9681 38.7916 26.3335 38.6853 26.6528 38.493C26.8334 38.3963 26.995 38.2688 27.13 38.1165L27.1882 38.0366L27.2813 37.9225L27.3512 37.797L28.1194 38.4474C28.4135 38.706 28.7951 38.8483 29.1902 38.8468H45.6253C45.9994 38.8346 46.3641 38.7285 46.6845 38.5387C46.861 38.436 47.0217 38.3092 47.1618 38.1621L47.2199 38.0823L47.313 37.9682C47.3625 37.896 47.4055 37.8196 47.441 37.7399C47.4791 37.6707 47.5103 37.5981 47.5342 37.5231L52.2482 22.0497V21.9128C52.254 21.8597 52.254 21.8061 52.2482 21.753V21.6504C52.2539 21.6163 52.2539 21.5817 52.2482 21.5476C52.2535 21.4755 52.2535 21.403 52.2482 21.3308H53.7614C53.893 21.3426 54.0255 21.3426 54.1571 21.3308H54.2619C54.3471 21.3059 54.4291 21.2714 54.5063 21.2281H54.6227L54.8322 21.0684L54.9253 20.9999L55.0883 20.7945V20.7261L55.2047 20.532C55.1982 20.4943 55.1982 20.4557 55.2047 20.418C55.1985 20.3994 55.1985 20.3794 55.2047 20.3609C55.2294 20.294 55.2489 20.2253 55.2629 20.1555C55.2575 20.133 55.2575 20.1095 55.2629 20.087C55.2572 20.053 55.2572 20.0183 55.2629 19.9843C55.2629 19.9843 55.4957 19.5393 55.4957 19.5165Z" fill="black"/>
<path d="M24.4529 13.7197C24.5147 13.7745 24.5579 13.8465 24.5766 13.9261C24.5954 14.0057 24.5887 14.089 24.5577 14.1647L19.4014 31.0988C19.3365 31.2836 19.2036 31.4382 19.0289 31.5324C18.8868 31.6256 18.7222 31.6807 18.5517 31.6922H2.16316C2.0232 31.6856 1.89061 31.6287 1.79069 31.5324C1.73125 31.4785 1.68954 31.4084 1.67088 31.3313C1.65221 31.254 1.65747 31.1731 1.68594 31.0988L6.85391 14.1647C6.91346 13.9775 7.04212 13.8188 7.21474 13.7197C7.35924 13.6332 7.523 13.5823 7.69196 13.5714H24.0805C24.2193 13.5727 24.3525 13.6257 24.4529 13.7197ZM15.8978 27.6869L18.9823 17.5766H10.3458L7.27292 27.6869H15.8978ZM40.0965 13.8909C40.1525 13.9546 40.2223 14.0051 40.301 14.0387C40.3796 14.0723 40.4648 14.088 40.5505 14.0849H42.6805C42.7617 14.0856 42.8416 14.0661 42.9129 14.0282C42.9842 13.9903 43.0444 13.9351 43.0879 13.868C43.1257 13.8156 43.1525 13.7563 43.1665 13.6936C43.1804 13.6308 43.1814 13.566 43.1694 13.5029L42.7504 10.4904C42.7105 10.3509 42.6388 10.2222 42.5409 10.1138C42.4849 10.0501 42.4151 9.99958 42.3365 9.966C42.2579 9.93241 42.1726 9.91663 42.0869 9.91982H39.9569C39.8758 9.91905 39.7958 9.93855 39.7245 9.97648C39.6532 10.0144 39.593 10.0695 39.5495 10.1366C39.468 10.2964 39.4331 10.3991 39.468 10.4904L39.8987 13.5029C39.9208 13.6496 39.9901 13.7855 40.0965 13.8909ZM46.8592 10.4676C46.8192 10.3281 46.7476 10.1994 46.6496 10.091C46.5961 10.0275 46.5283 9.97701 46.4516 9.94336C46.3749 9.90972 46.2913 9.89385 46.2073 9.897H44.0656C43.9859 9.89477 43.907 9.91374 43.8373 9.95191C43.7676 9.99008 43.7098 10.046 43.6699 10.1138C43.5925 10.215 43.5589 10.3422 43.5768 10.4676L44.0074 13.4801C44.0345 13.6252 44.1031 13.7598 44.2053 13.868C44.2622 13.9305 44.3323 13.9802 44.4107 14.0137C44.489 14.0471 44.5738 14.0636 44.6592 14.062H46.801C46.8806 14.0631 46.9589 14.0436 47.0284 14.0055C47.0979 13.9675 47.1559 13.9122 47.1967 13.8452C47.2372 13.7942 47.2655 13.7349 47.2796 13.6717C47.2937 13.6085 47.2932 13.543 47.2782 13.4801L46.8592 10.4676ZM38.2226 15.032L38.013 13.5485H27.6888C27.5267 13.5573 27.3698 13.6085 27.2348 13.6969C27.1491 13.7427 27.0744 13.8062 27.0162 13.8831C26.958 13.9599 26.9174 14.0482 26.8973 14.1419L26.0359 16.9718C26.0016 17.0426 25.9898 17.1219 26.0023 17.1993C26.0148 17.2767 26.0508 17.3486 26.1058 17.4055C26.2039 17.4959 26.332 17.5487 26.4666 17.5538H39.0141L35.9296 27.6641H23.417C23.2557 27.6677 23.0986 27.7151 22.9631 27.8009C22.7985 27.9035 22.6783 28.0619 22.6256 28.246L21.7526 31.076C21.7241 31.1486 21.7166 31.2275 21.731 31.304C21.7454 31.3805 21.781 31.4516 21.834 31.5095C21.9291 31.6061 22.0582 31.6632 22.1949 31.6693H38.6299C38.7999 31.655 38.9638 31.6001 39.1071 31.5095C39.279 31.4149 39.408 31.26 39.468 31.076L44.1936 15.6025H38.8744C38.79 15.6042 38.7062 15.5888 38.6281 15.5574C38.55 15.526 38.4794 15.4792 38.4205 15.4199C38.3242 15.3165 38.2562 15.1909 38.2226 15.0548V15.032Z" fill="white"/>
</g>
<defs>
<clipPath id="clip0_211_823">
<rect width="55" height="30" fill="white" transform="translate(0.5 8.8468)"/>
</clipPath>
</defs>
</svg>
