<svg width="49" height="48" viewBox="0 0 49 48" fill="none" xmlns="http://www.w3.org/2000/svg">
<g clip-path="url(#clip0_211_827)">
<path d="M45.4965 13.4115C45.4965 13.4453 45.4965 13.4876 45.4877 13.5129C45.4437 13.8426 45.4437 14.1723 45.4701 14.5105C45.4877 14.595 45.5053 14.6795 45.5758 14.7472C45.6903 14.874 45.8664 14.8486 45.9369 14.6964C45.9722 14.6204 45.9722 14.5443 45.9545 14.4682C45.8664 14.147 45.8488 13.8088 45.84 13.4791C45.84 13.4622 45.84 13.4369 45.84 13.4115C45.9369 13.4031 46.025 13.3946 46.1042 13.3946C46.1659 13.3861 46.2188 13.3777 46.2628 13.3523C46.3949 13.2847 46.3949 13.141 46.254 13.0734C46.2011 13.048 46.1307 13.0396 46.069 13.0396C45.8488 13.048 45.6287 13.048 45.4084 13.048C45.3292 13.048 45.2499 13.0565 45.1706 13.0649C45.1266 13.0734 45.0737 13.0734 45.0385 13.0987C44.9768 13.1241 44.9417 13.1664 44.9417 13.2255C44.9504 13.2847 44.9768 13.3185 45.0385 13.3439C45.0737 13.3692 45.1178 13.3777 45.1618 13.3777C45.2675 13.3861 45.382 13.4031 45.4965 13.4115ZM47.9186 13.8004C47.9186 13.8088 47.9274 13.8173 47.9274 13.8173C47.9627 14.0455 47.9979 14.2653 48.0243 14.4851C48.0332 14.5612 48.042 14.6288 48.0948 14.688C48.2093 14.8317 48.3855 14.8148 48.4647 14.6626C48.5 14.5865 48.5087 14.5105 48.4912 14.4259C48.4383 14.1723 48.4119 13.9187 48.359 13.6736C48.3238 13.5214 48.2798 13.3777 48.2357 13.2424C48.2093 13.1579 48.1477 13.0987 48.042 13.0903C47.9363 13.0734 47.857 13.1241 47.8129 13.2002C47.7601 13.2678 47.7161 13.3354 47.6808 13.4115C47.6192 13.5468 47.5663 13.682 47.4959 13.8088C47.487 13.8426 47.4782 13.868 47.4606 13.8934C47.4519 13.8764 47.4431 13.868 47.4431 13.868C47.3285 13.6567 47.2228 13.4453 47.1083 13.2424C47.0907 13.2255 47.0819 13.2086 47.0731 13.1917C47.0203 13.1156 46.9586 13.0734 46.8617 13.0734C46.7736 13.0818 46.7031 13.1325 46.6592 13.2086C46.6415 13.2424 46.6415 13.2678 46.6327 13.3016C46.5975 13.5721 46.5534 13.8426 46.5182 14.1131C46.5006 14.2653 46.4918 14.4175 46.4918 14.5696C46.483 14.6034 46.4918 14.6457 46.5094 14.6795C46.527 14.7471 46.5799 14.7894 46.6503 14.7979C46.7384 14.8063 46.8 14.781 46.8265 14.7133C46.8529 14.6626 46.8617 14.6204 46.8705 14.5781C46.9058 14.4259 46.9322 14.2822 46.9586 14.1385C46.9762 14.054 46.985 13.9863 47.0115 13.8934C47.0291 13.9272 47.0466 13.9525 47.0643 13.9779C47.1435 14.0793 47.2228 14.1808 47.3197 14.2653C47.4166 14.3329 47.4959 14.3245 47.5751 14.2484C47.5928 14.2315 47.6016 14.223 47.6192 14.2061C47.6985 14.0878 47.7954 13.9694 47.8746 13.8511C47.8922 13.8342 47.901 13.8173 47.9186 13.8004Z" fill="#3A3B7B"/>
<path d="M27.6244 13.5776C27.5632 13.7383 27.5515 13.854 27.5798 13.9502C27.611 14.081 27.692 14.1238 27.802 14.0906C28.8366 13.845 31.1051 14.542 31.945 14.7362C32.1431 14.777 32.3042 14.5316 32.1691 14.3115C31.9718 14.0985 29.7043 13.1862 28.8391 13.1364C28.4999 13.118 27.8936 13.0346 27.6244 13.5776Z" fill="#3A3B7B"/>
<path d="M36.4904 10.6244C36.6006 10.6854 36.6622 10.7437 36.6927 10.8088C36.738 10.8942 36.7141 10.9533 36.6379 10.9834C35.9541 11.3037 35.0441 12.6828 34.6768 13.1585C34.5877 13.2679 34.3823 13.2043 34.3513 13.0244C34.3577 12.8209 35.1643 11.3243 35.6145 10.9167C35.7915 10.7575 36.0837 10.4453 36.4904 10.6244Z" fill="#3A3B7B"/>
<path d="M31.0445 9.94553C31.1769 9.84971 31.3146 9.81614 31.3849 9.87841C32.4167 10.7253 32.9638 12.0664 33.3026 13.2942C33.3154 13.3228 33.3162 13.3639 33.306 13.4067C33.3017 13.4433 33.2739 13.482 33.2296 13.5119C33.1824 13.5449 33.1417 13.555 33.1225 13.5265C32.6703 12.9362 30.0875 10.6393 31.0445 9.94553Z" fill="#3A3B7B"/>
<path d="M9.19524 24.6286C9.44253 24.4519 9.71137 24.3048 9.99586 24.1906C10.2935 24.109 10.6107 24.1225 10.8997 24.2293C11.1885 24.336 11.4334 24.5301 11.5971 24.7823C11.7435 25.0338 11.8008 25.3242 11.7604 25.6097C11.7199 25.8952 11.584 26.1603 11.3729 26.3652C11.2093 26.5313 11.0235 26.676 10.8205 26.7956C9.91582 27.3565 9.00308 27.8867 8.09039 28.4476C7.90363 28.588 7.70551 28.714 7.49793 28.8242C7.18217 28.9753 6.82132 29.0158 6.47776 28.9386C6.1342 28.8615 5.82955 28.6715 5.61648 28.4016C5.45719 28.2104 5.32277 28.0014 5.21616 27.7791C4.3515 26.0348 3.45481 24.2982 2.62217 22.5231C2.23787 21.7548 1.92563 20.8711 1.62139 20.0181C1.48977 19.7703 1.46406 19.483 1.54976 19.2173C1.63545 18.9515 1.82577 18.7284 2.08025 18.5952C2.33473 18.4621 2.63327 18.4295 2.9124 18.5044C3.19152 18.5793 3.42921 18.7557 3.5749 18.9961C4.02271 19.5673 4.41911 20.174 4.75981 20.8096C5.62448 22.3464 6.44912 23.8832 7.28176 25.374C7.33024 25.4564 7.3837 25.5358 7.44188 25.6122C8.06859 25.3593 8.65803 25.0286 9.19524 24.6286Z" fill="#3A3B7B"/>
<path d="M18.1354 24.0925C16.1579 26.3132 12.8433 25.7522 11.178 22.8937C9.99308 20.8651 9.78493 17.5148 12.3629 15.4017C12.9135 14.9593 13.5717 14.6579 14.2764 14.5257C15.1404 14.4068 16.0214 14.5531 16.7936 14.9437C17.5657 15.3342 18.1895 15.9491 18.5757 16.7003C19.9848 19.1592 19.7847 22.2943 18.1354 24.0925ZM17.3347 18.9133C17.1247 18.3091 16.7032 17.7932 16.1418 17.4533C15.8242 17.236 15.4382 17.1304 15.0489 17.1542C14.6595 17.178 14.2906 17.3297 14.0042 17.584C12.8593 18.5599 12.6191 20.8728 13.4517 22.2483C13.5579 22.4726 13.7137 22.6719 13.9085 22.8323C14.1033 22.9927 14.3323 23.1104 14.5793 23.1769C14.8264 23.2436 15.0857 23.2575 15.339 23.2179C15.5923 23.1782 15.8335 23.086 16.0458 22.9475C16.6664 22.4857 17.1217 21.8498 17.3484 21.1282C17.5751 20.4066 17.562 19.6351 17.3108 18.921L17.3347 18.9133Z" fill="#3A3B7B"/>
<path d="M26.2055 19.8816C26.0031 19.9234 25.794 19.9259 25.5904 19.8889C25.387 19.8519 25.1932 19.7763 25.0207 19.6665C24.8697 19.5836 24.7397 19.4696 24.64 19.3327C24.5405 19.1958 24.4737 19.0395 24.4446 18.8748C24.4155 18.7103 24.4248 18.5415 24.4718 18.3808C24.5188 18.22 24.6024 18.0713 24.7164 17.9452C24.9152 17.6918 25.1973 17.5105 25.5171 17.4304C26.3518 17.1978 27.2112 17.0561 28.079 17.0078C28.2697 16.9865 28.4629 17.002 28.6472 17.0533C28.8316 17.1047 29.0033 17.1909 29.1525 17.3069C29.3016 17.4228 29.4252 17.5662 29.5158 17.7286C29.6064 17.891 29.6623 18.0692 29.6802 18.2526C29.9304 19.1536 29.9578 20.0982 29.7603 21.0112C29.0398 23.9619 26.5578 24.9762 23.7717 24.031C22.9896 23.7783 22.3039 23.3075 21.8022 22.6786C21.133 21.9214 20.6586 21.0239 20.4171 20.0584C20.2214 19.1986 20.2428 18.3064 20.4797 17.4563C20.7164 16.6061 21.1616 15.8226 21.7781 15.1712C22.3632 14.4633 23.1226 13.9061 23.9879 13.5499C24.5346 13.2606 25.1744 13.1784 25.7813 13.3194C25.9189 13.3559 26.0439 13.4272 26.1432 13.5257C26.2425 13.6243 26.3125 13.7465 26.346 13.8798C26.3795 14.013 26.3752 14.1525 26.3336 14.2836C26.292 14.4148 26.2147 14.5329 26.1095 14.6257C25.9096 14.7994 25.6924 14.9538 25.461 15.0867C24.7492 15.5218 24.1298 16.0823 23.6356 16.7388C23.3116 17.1636 23.0885 17.6514 22.982 18.1678C22.8755 18.6842 22.8881 19.2167 23.0191 19.728C23.2007 20.425 23.6036 21.0507 24.172 21.5183C25.9333 23.0552 28.2231 21.5721 27.8228 19.4743C27.2384 19.6127 26.726 19.7587 26.2055 19.8816Z" fill="#3A3B7B"/>
<path d="M36.966 24.2154C34.364 25.7523 31.4017 24.2154 30.7532 20.9881C30.2809 18.6829 31.1776 15.4556 34.316 14.2261C34.9838 13.9701 35.708 13.8803 36.4216 13.9648C37.279 14.1155 38.0655 14.5206 38.6702 15.123C39.2748 15.7255 39.6674 16.4949 39.7922 17.3228C40.3206 20.066 39.1197 22.9937 36.966 24.2154ZM37.8708 19.044C37.87 18.4057 37.6347 17.788 37.2062 17.2997C36.9772 16.9977 36.6461 16.7814 36.2695 16.6874C35.8927 16.5936 35.4938 16.628 35.1406 16.7849C33.7315 17.3689 32.7388 19.4897 33.0991 21.0496C33.1266 21.2944 33.2094 21.5305 33.3419 21.7414C33.4744 21.9522 33.6532 22.1327 33.866 22.2703C34.0787 22.4079 34.3202 22.4992 34.5736 22.5379C34.827 22.5766 35.0861 22.5617 35.3328 22.4942C36.0776 22.2445 36.7225 21.7778 37.1774 21.1592C37.6325 20.5407 37.8749 19.8012 37.8708 19.044Z" fill="#3A3B7B"/>
<path d="M42.4235 24.8609C42.3843 25.1421 42.2302 25.3969 41.9952 25.5691C41.7602 25.7413 41.4636 25.8169 41.1706 25.7792C40.8776 25.7415 40.6122 25.5936 40.4328 25.368C40.2533 25.1425 40.1746 24.8578 40.2139 24.5766C40.2531 24.2953 40.4072 24.0406 40.6422 23.8684C40.8772 23.6962 41.1738 23.6206 41.4668 23.6583C41.7598 23.696 42.0252 23.8439 42.2047 24.0694C42.3841 24.295 42.4629 24.5797 42.4235 24.8609ZM41.727 14.495C41.8793 14.2718 42.1027 14.1018 42.3638 14.0104C42.625 13.919 42.9099 13.9111 43.1761 13.9878C43.4468 14.0528 43.6859 14.2051 43.8535 14.4191C44.0211 14.6331 44.107 14.8959 44.0969 15.1635C44.0616 15.5927 43.9947 16.0189 43.8967 16.4391C43.6325 17.8606 43.3763 19.2822 43.0961 20.6884C42.968 21.2494 42.7999 21.7872 42.6157 22.3558C42.5516 22.5336 42.4446 22.6942 42.3035 22.8246C42.2157 22.9227 42.1037 22.9979 41.9776 23.0433C41.8515 23.0888 41.7155 23.1029 41.5822 23.0845C41.449 23.0661 41.3226 23.0158 41.215 22.9381C41.1073 22.8604 41.0219 22.758 40.9665 22.6402C40.8713 22.4289 40.8196 22.2018 40.8143 21.9717C40.8143 21.0188 40.8143 20.0583 40.8784 19.0978C40.9872 17.727 41.2013 16.3657 41.5189 15.0252C41.5563 14.8456 41.6267 14.6738 41.727 14.518V14.495Z" fill="#3A3B7B"/>
<path fill-rule="evenodd" clip-rule="evenodd" d="M5.81263 31.0357C5.7181 31.2383 5.69218 31.4641 5.73837 31.6814C5.7691 31.9678 5.8366 32.2496 5.93933 32.5202C6.06759 32.8516 6.21111 33.1793 6.38807 33.5832C6.42876 33.6761 6.47129 33.7731 6.51579 33.8752C6.75443 34.4224 7.05386 35.1217 7.45326 36.1337C7.56631 36.4212 7.6667 36.7111 7.76779 37.003C7.80862 37.1209 7.84961 37.2392 7.89156 37.3577C8.04193 37.7793 8.30067 38.158 8.64364 38.4582C8.78927 38.6231 8.98244 38.7434 9.19904 38.8035C9.41988 38.8648 9.65474 38.8609 9.87323 38.7923C10.0917 38.7237 10.2836 38.5936 10.424 38.4189C10.5616 38.2476 10.6435 38.0412 10.6594 37.8255C10.7487 37.4054 10.7182 36.9698 10.571 36.5648C10.3375 35.8923 10.0714 35.2189 9.76452 34.5602L9.76311 34.5573C9.25833 33.5267 8.74523 32.5033 8.20784 31.4794L8.20382 31.4723C8.0465 31.2055 7.84206 30.9671 7.59967 30.7676C7.44232 30.5896 7.22526 30.4695 6.98556 30.4281C6.74076 30.3859 6.48827 30.4285 6.27319 30.5483C6.06972 30.6599 5.90843 30.8305 5.81263 31.0357Z" fill="#3A3B7B"/>
<path fill-rule="evenodd" clip-rule="evenodd" d="M13.5224 28.4981C12.7309 28.3014 11.9043 28.2727 11.1002 28.4142C10.4774 28.473 9.86482 28.6109 9.43947 28.884C9.22314 29.023 9.04823 29.2015 8.95094 29.4284C8.85311 29.6565 8.84063 29.9173 8.92079 30.208C9.06717 30.7404 9.25725 31.2581 9.44666 31.7741L9.47734 31.8576L9.47808 31.8595C10.0484 33.3585 10.6241 34.8525 11.2051 36.3413C11.2729 36.5759 11.3687 36.8023 11.4906 37.0158L11.4929 37.0197C11.654 37.2849 11.8606 37.5221 12.104 37.7214C12.2257 37.8309 12.3762 37.9067 12.5395 37.9406C12.7043 37.9747 12.8757 37.9648 13.035 37.9119C13.1944 37.8589 13.3356 37.765 13.4431 37.6403C13.549 37.5176 13.6182 37.3699 13.6437 37.2126C13.7487 36.7854 13.7151 36.3375 13.5472 35.9292C13.4948 35.7918 13.4537 35.6513 13.4104 35.5035C13.396 35.4542 13.3814 35.404 13.3659 35.3529C14.6958 34.854 16.1109 34.1831 16.6085 32.6224C16.8033 32.083 16.8195 31.499 16.6549 30.9504C16.4901 30.4012 16.1521 29.9144 15.6873 29.557C15.0548 29.0568 14.3159 28.6953 13.5224 28.4981ZM11.3285 30.4125C11.3547 30.4052 11.381 30.3985 11.4075 30.3922C12.2733 30.2616 13.1591 30.4357 13.9019 30.8823C14.2292 31.1007 14.3633 31.3435 14.3863 31.5771C14.4101 31.8176 14.3189 32.0782 14.1359 32.3287C13.7901 32.8019 13.1589 33.1807 12.5888 33.2513C12.1732 32.3326 11.7511 31.3768 11.3285 30.4125Z" fill="#3A3B7B"/>
<path d="M18.7991 26.8165C19.7417 26.3988 20.9092 26.3266 21.8228 26.6203C22.0529 26.6847 22.2525 26.8238 22.3876 27.0139C22.5217 27.2029 22.5836 27.4306 22.5629 27.6583C22.5616 27.806 22.5238 27.9514 22.4527 28.0826C22.3803 28.2161 22.2755 28.3309 22.1471 28.4174C22.0187 28.5038 21.8706 28.5594 21.7151 28.5792C21.5596 28.5991 21.4015 28.5828 21.254 28.5316L21.2428 28.5277L21.2322 28.5223C21.1568 28.4844 21.0766 28.4559 20.9937 28.4373L20.9884 28.4362C20.3457 28.2724 19.7395 28.5438 19.5181 28.8774C19.4125 29.0364 19.3994 29.197 19.4873 29.343C19.5815 29.4994 19.8126 29.675 20.2801 29.8001C20.4087 29.8339 20.5405 29.8666 20.6741 29.8998C21.0438 29.9917 21.428 30.0872 21.7995 30.2194L21.8009 30.22C23.5148 30.8458 24.153 32.1421 23.9345 33.3613C23.7184 34.5669 22.6693 35.6642 21.0916 35.923C20.5176 36.0451 19.9201 36.0213 19.3585 35.854C18.7954 35.6861 18.2879 35.3799 17.8863 34.9654L17.8758 34.9546C17.7491 34.7985 17.6638 34.615 17.626 34.4204C17.5912 34.2448 17.6095 34.0633 17.6787 33.8972C17.7474 33.7322 17.8637 33.5894 18.0138 33.4853C18.1723 33.3673 18.3634 33.2965 18.5634 33.2818C18.7628 33.2671 18.9623 33.3087 19.1373 33.4013C19.3121 33.4824 19.4748 33.5858 19.6207 33.7088L19.6235 33.711C19.8817 33.9377 20.1941 33.9968 20.4937 33.942C20.7977 33.8866 21.0835 33.7139 21.2673 33.4849C21.45 33.2573 21.5233 32.987 21.4363 32.7245C21.3487 32.4601 21.0854 32.164 20.507 31.9163C20.3558 31.8547 20.199 31.805 20.0359 31.7566C19.992 31.7436 19.9472 31.7306 19.902 31.7174C19.7814 31.6823 19.6573 31.6461 19.5357 31.6062C19.4519 31.5788 19.3687 31.5528 19.2864 31.5271C19.0614 31.4567 18.8421 31.3882 18.631 31.2963C18.1715 31.1461 17.7746 30.8578 17.4992 30.474C17.2227 30.0887 17.0836 29.628 17.1025 29.1605C17.104 28.0214 17.8515 27.2367 18.7991 26.8165Z" fill="#3A3B7B"/>
<path d="M30.7488 26.6953C30.566 26.6096 30.3639 26.5689 30.1607 26.5769C29.9575 26.585 29.7595 26.6414 29.5848 26.7412C29.4111 26.8403 29.2656 26.9792 29.1614 27.1453C29.0659 27.2852 28.9998 27.4417 28.9668 27.606C28.9338 27.7702 28.9346 27.9389 28.9691 28.1027C29.0031 28.3132 29.0408 28.5179 29.0781 28.7198C29.1398 29.0539 29.1998 29.3805 29.2394 29.7135L29.2409 29.7219C29.3311 30.2441 29.3783 30.7722 29.3825 31.3015L29.3829 31.309C29.4138 31.8805 29.2108 32.441 28.8177 32.8714L28.8115 32.879C28.6836 33.0363 28.5126 33.1564 28.3175 33.2258C28.1225 33.2952 27.9113 33.3112 27.7074 33.2719C27.5035 33.2326 27.315 33.1397 27.163 33.0034C27.011 32.8672 26.9013 32.6925 26.8466 32.5C26.7298 32.0942 26.6622 31.6768 26.645 31.2562L26.8445 28.207C26.8475 28.1672 26.8508 28.1264 26.8543 28.0851C26.8619 27.9925 26.8696 27.8982 26.8729 27.8102C26.8776 27.6808 26.8735 27.5476 26.8421 27.4216C26.81 27.2928 26.7488 27.1703 26.6403 27.066C26.5329 26.9627 26.3878 26.8865 26.2053 26.8346C25.8753 26.7429 25.5963 26.7458 25.3638 26.8405C25.1311 26.9353 24.9717 27.1111 24.8589 27.3142C24.747 27.5157 24.6751 27.7541 24.6207 27.993C24.5803 28.1702 24.5479 28.3563 24.5171 28.5334C24.5064 28.5944 24.496 28.6543 24.4855 28.7125L24.4852 28.7142C24.3203 29.6854 24.2712 30.6716 24.3389 31.6535C24.3515 32.1841 24.4668 32.7079 24.679 33.1981C24.9183 33.8305 25.3519 34.3785 25.9224 34.7697C26.4941 35.1616 27.1763 35.3776 27.8788 35.389C28.5812 35.4004 29.2707 35.2067 29.856 34.8336C30.4402 34.461 30.893 33.927 31.1545 33.3023C31.5202 32.5064 31.692 31.6409 31.6565 30.7717C31.635 30.1371 31.5991 29.4977 31.5633 28.8615C31.5457 28.5494 31.5281 28.238 31.5124 27.9284C31.5045 27.6181 31.3979 27.3175 31.2068 27.0669C31.0886 26.9086 30.9312 26.7808 30.7488 26.6953Z" fill="#3A3B7B"/>
<path d="M37.2174 31.4764C37.1988 31.499 37.1793 31.5224 37.1589 31.5467C37.0102 30.7236 36.8725 29.9008 36.7345 29.0768C36.685 28.7811 36.6352 28.4842 36.5852 28.1881L36.5796 28.1551L36.5613 28.1266C36.5269 28.0728 36.5234 28.0202 36.5234 27.9079V27.8949L36.5214 27.882C36.484 27.6501 36.3747 27.4342 36.2077 27.2627C36.0412 27.0917 35.825 26.9727 35.5871 26.921C35.3496 26.8648 35.1 26.8772 34.8698 26.9567C34.6402 27.036 34.44 27.1784 34.2943 27.3663C34.1732 27.5104 34.0739 27.6703 33.9995 27.8412C33.8306 28.2092 33.6603 28.5782 33.4895 28.9481L33.4865 28.9545C33.0601 29.8781 32.6308 30.8079 32.2139 31.745L32.2127 31.748C31.9568 32.3556 31.7456 32.9958 31.5351 33.6341C31.493 33.7615 31.451 33.8889 31.4086 34.0159C31.3326 34.2173 31.2994 34.4312 31.3108 34.6451C31.297 34.8366 31.3447 35.0276 31.4477 35.1923C31.5527 35.3603 31.71 35.4926 31.8974 35.5704C32.096 35.654 32.3181 35.6717 32.5284 35.6208C32.7383 35.57 32.9247 35.4537 33.0583 35.2903C33.2288 35.0889 33.3755 34.8693 33.4952 34.6367C33.8483 33.9434 34.1857 33.2418 34.5216 32.5431C34.6516 32.2729 34.7779 32.0309 34.9216 31.7673C34.9315 31.7998 34.9416 31.8315 34.952 31.8633C35.1026 32.4996 35.3568 33.1091 35.7052 33.6695C35.7711 33.7882 35.863 33.8919 35.9744 33.9736C36.0872 34.0563 36.2174 34.1143 36.3559 34.1437C36.4944 34.1732 36.638 34.1733 36.7766 34.1441C36.915 34.115 37.0455 34.0569 37.1584 33.9747L37.3818 33.8142L39.1156 32.4125L39.0131 33.0396C38.8724 33.9016 38.7327 34.7565 38.5843 35.6115C38.4872 35.9905 38.4874 36.3863 38.5847 36.7652C38.6269 36.9784 38.7343 37.1747 38.8933 37.329C39.0537 37.4847 39.259 37.5904 39.4827 37.6326C39.7064 37.6747 39.9382 37.6513 40.1479 37.5655C40.3545 37.4809 40.5303 37.3395 40.6532 37.1592C40.9391 36.8188 41.117 36.4066 41.1659 35.9718C41.2395 35.3578 41.3226 34.7355 41.4058 34.1133C41.5016 33.3961 41.5974 32.6792 41.6783 31.976L41.6786 31.9738C41.7565 31.204 41.7942 30.4311 41.7915 29.6578C41.8086 29.4134 41.7452 29.1699 41.6101 28.9618C41.4746 28.753 41.2738 28.5907 41.0365 28.4978C40.7897 28.3901 40.5134 28.3613 40.2483 28.4158C39.9849 28.4698 39.7464 28.6031 39.5676 28.7961C39.2478 29.08 38.9478 29.3838 38.6695 29.7055L38.6676 29.7076C38.3638 30.071 38.062 30.4415 37.7622 30.8096C37.5799 31.0333 37.3982 31.2566 37.2174 31.4764Z" fill="#3A3B7B"/>
</g>
<defs>
<clipPath id="clip0_211_827">
<rect width="47" height="29" fill="white" transform="translate(1.5 9.8468)"/>
</clipPath>
</defs>
</svg>