<svg width="49" height="48" viewBox="0 0 49 48" fill="none" xmlns="http://www.w3.org/2000/svg">
<g clip-path="url(#clip0_211_843)">
<path d="M42.9375 11.6905C42.9375 12.1565 43.3199 12.5343 43.7917 12.5343H44.6458C45.1176 12.5343 45.5 12.1565 45.5 11.6905C45.5 11.2246 45.1176 10.8468 44.6458 10.8468H43.7917C43.3199 10.8468 42.9375 11.2246 42.9375 11.6905Z" fill="#212326"/>
<path d="M18.1667 37.8468H22.3161L21.1081 36.6535C20.7877 36.3371 20.3532 36.1593 19.9001 36.1593H18.1667C11.5623 36.1593 6.20833 30.8707 6.20833 24.3468C6.20833 17.8229 11.5623 12.5343 18.1667 12.5343H31.8333C38.4378 12.5343 43.7917 17.8229 43.7917 24.3468C43.7917 30.8707 38.4378 36.1593 31.8333 36.1593H26.7209C26.0413 36.1593 25.3895 35.8926 24.9089 35.4179L23.4937 34.02C22.6928 33.2288 21.6064 32.7843 20.4737 32.7843H18.1667C13.4492 32.7843 9.625 29.0067 9.625 24.3468C9.625 19.6869 13.4492 15.9093 18.1667 15.9093H31.8333C36.5508 15.9093 40.375 19.6869 40.375 24.3468C40.375 29.0067 36.5508 32.7843 31.8333 32.7843H28.5507C27.871 32.7843 27.2193 32.5176 26.7387 32.0429L25.3234 30.645C24.5225 29.8538 23.4362 29.4093 22.3035 29.4093H18.1667C15.3362 29.4093 13.0417 27.1427 13.0417 24.3468C13.0417 21.5509 15.3362 19.2843 18.1667 19.2843H31.8333C34.6638 19.2843 36.9583 21.5509 36.9583 24.3468C36.9583 27.1086 34.7194 29.354 31.9367 29.4083L31.9361 29.4093H30.6861C30.0064 29.4093 29.3547 29.1426 28.8741 28.6679L27.4588 27.27C26.8017 26.6207 25.9524 26.205 25.0429 26.0767L25 26.0343H18.1667C17.2232 26.0343 16.4583 25.2788 16.4583 24.3468C16.4583 23.4148 17.2232 22.6593 18.1667 22.6593H31.8333C32.7768 22.6593 33.5417 23.4148 33.5417 24.3468C33.5417 25.2788 32.7768 26.0343 31.8333 26.0343H28.4167L29.6247 27.2276C29.945 27.544 30.3795 27.7218 30.8326 27.7218H31.8333C33.7203 27.7218 35.25 26.2107 35.25 24.3468C35.25 22.4829 33.7203 20.9718 31.8333 20.9718H18.1667C16.2797 20.9718 14.75 22.4829 14.75 24.3468C14.75 26.2107 16.2797 27.7218 18.1667 27.7218H24.4389C25.1186 27.7218 25.7703 27.9885 26.2509 28.4632L27.6662 29.8611C28.4671 30.6523 29.5534 31.0968 30.6861 31.0968H32.2604V31.0838C35.8354 30.8661 38.6667 27.933 38.6667 24.3468C38.6667 20.6189 35.6072 17.5968 31.8333 17.5968H18.1667C14.3928 17.5968 11.3333 20.6189 11.3333 24.3468C11.3333 28.0748 14.3928 31.0968 18.1667 31.0968H22.3035C22.9831 31.0968 23.6349 31.3635 24.1155 31.8382L25.5307 33.2361C26.3317 34.0273 27.418 34.4718 28.5507 34.4718H31.8333C37.4943 34.4718 42.0833 29.9387 42.0833 24.3468C42.0833 18.7549 37.4943 14.2218 31.8333 14.2218H18.1667C12.5057 14.2218 7.91667 18.7549 7.91667 24.3468C7.91667 29.9387 12.5057 34.4718 18.1667 34.4718H20.4737C21.1534 34.4718 21.8051 34.7385 22.2857 35.2132L23.701 36.6111C24.5019 37.4023 25.5882 37.8468 26.7209 37.8468H31.8333C39.3812 37.8468 45.5 31.8027 45.5 24.3468C45.5 16.891 39.3812 10.8468 31.8333 10.8468L18.1667 10.8468C10.6188 10.8468 4.5 16.891 4.5 24.3468C4.5 31.8027 10.6188 37.8468 18.1667 37.8468Z" fill="#212326"/>
</g>
<defs>
<clipPath id="clip0_211_843">
<rect width="41" height="27" fill="white" transform="translate(4.5 10.8468)"/>
</clipPath>
</defs>
</svg>