<svg width="53" height="48" viewBox="0 0 53 48" fill="none" xmlns="http://www.w3.org/2000/svg">
<g clip-path="url(#clip0_211_847)">
<path d="M12.8431 13.8468C10.8124 13.8468 8.86487 14.6535 7.42893 16.0894L2.74264 20.7757C1.3067 22.2117 0.5 24.1592 0.5 26.1899C0.5 30.4187 3.92809 33.8468 8.15687 33.8468C10.1876 33.8468 12.1351 33.0401 13.5711 31.6041L16.8126 28.3626C16.8126 28.3625 16.8127 28.3627 16.8126 28.3626L26.2573 18.9179C26.9431 18.2321 27.8733 17.8468 28.8431 17.8468C30.4669 17.8468 31.8435 18.9051 32.3207 20.3695L35.3015 17.3888C33.9417 15.259 31.5573 13.8468 28.8431 13.8468C26.8124 13.8468 24.8649 14.6535 23.4289 16.0894L10.7427 28.7757C10.0569 29.4615 9.12673 29.8468 8.15687 29.8468C6.13723 29.8468 4.5 28.2096 4.5 26.1899C4.5 25.2201 4.88527 24.2899 5.57107 23.6041L10.2573 18.9179C10.9431 18.2321 11.8733 17.8468 12.8431 17.8468C14.4669 17.8468 15.8435 18.9051 16.3207 20.3696L19.3015 17.3888C17.9417 15.2591 15.5574 13.8468 12.8431 13.8468Z" fill="#394149"/>
<path d="M26.7427 28.7757C26.0569 29.4615 25.1268 29.8468 24.1569 29.8468C22.5334 29.8468 21.1569 28.7888 20.6795 27.3246L17.6989 30.3053C19.0587 32.4347 21.4429 33.8468 24.1569 33.8468C26.1877 33.8468 28.1352 33.0401 29.5711 31.6041L42.2574 18.9179C42.9432 18.2321 43.8733 17.8468 44.8432 17.8468C46.8629 17.8468 48.5 19.484 48.5 21.5037C48.5 22.4735 48.1148 23.4037 47.429 24.0895L42.7427 28.7757C42.0569 29.4615 41.1268 29.8468 40.1569 29.8468C38.5332 29.8468 37.1567 28.7886 36.6794 27.3243L33.6987 30.305C35.0585 32.4347 37.4428 33.8468 40.1569 33.8468C42.1876 33.8468 44.1352 33.0401 45.5711 31.6041L50.2574 26.9179C51.6933 25.4819 52.5 23.5344 52.5 21.5037C52.5 17.2749 49.072 13.8468 44.8432 13.8468C42.8125 13.8468 40.8649 14.6535 39.429 16.0894L26.7427 28.7757Z" fill="#394149"/>
</g>
<defs>
<clipPath id="clip0_211_847">
<rect width="52" height="20" fill="white" transform="translate(0.5 13.8468)"/>
</clipPath>
</defs>
</svg>