<svg width="43" height="33" viewBox="0 0 43 33" fill="none" xmlns="http://www.w3.org/2000/svg">
<circle cx="6.80851" cy="6.80851" r="6.80851" transform="matrix(-1 0 0 1 28.7341 1.99988)" stroke="#4CAF4F" stroke-width="3"/>
<path d="M10.0107 25.7187C10.0107 24.2543 10.9313 22.948 12.3105 22.4554V22.4554C18.5283 20.2348 25.323 20.2348 31.5408 22.4554V22.4554C32.9199 22.948 33.8405 24.2543 33.8405 25.7187V27.9579C33.8405 29.9791 32.0504 31.5316 30.0495 31.2458L29.3824 31.1505C24.4363 30.4439 19.4149 30.4439 14.4688 31.1505L13.8017 31.2458C11.8009 31.5316 10.0107 29.9791 10.0107 27.9579V25.7187Z" stroke="#4CAF4F" stroke-width="3"/>
<path d="M32.1382 15.8054C35.0927 15.8054 37.4878 13.4103 37.4878 10.4558C37.4878 7.50133 35.0927 5.10626 32.1382 5.10626" stroke="#4CAF4F" stroke-width="3" stroke-linecap="round"/>
<path d="M37.9971 28.01L38.5213 28.0848C40.0934 28.3094 41.4999 27.0895 41.4999 25.5015V23.7421C41.4999 22.5915 40.7766 21.5651 39.693 21.1781C38.6121 20.7921 37.509 20.4914 36.3936 20.2762" stroke="#4CAF4F" stroke-width="3" stroke-linecap="round"/>
<path d="M10.8618 15.8054C7.90728 15.8054 5.51221 13.4103 5.51221 10.4558C5.51221 7.50133 7.90728 5.10626 10.8618 5.10626" stroke="#4CAF4F" stroke-width="3" stroke-linecap="round"/>
<path d="M5.00285 28.01L4.4787 28.0848C2.9066 28.3094 1.50006 27.0895 1.50006 25.5015V23.7421C1.50006 22.5915 2.22339 21.5651 3.30699 21.1781C4.38789 20.7921 5.49098 20.4914 6.60645 20.2762" stroke="#4CAF4F" stroke-width="3" stroke-linecap="round"/>
</svg>
