<svg width="49" height="48" viewBox="0 0 49 48" fill="none" xmlns="http://www.w3.org/2000/svg">
<path d="M35.9377 19.0546L40.1883 21.3539L41.0781 21.8539C42.9739 22.919 42.9739 25.665 41.0781 26.7301L29.0049 33.5132C26.2049 35.0864 22.7951 35.0864 19.9951 33.5132L7.92185 26.7301C6.02605 25.665 6.02605 22.919 7.92185 21.8539L8.8117 21.3539L12.8267 19.0546M36.8622 29.2922L40.7258 31.2371C42.7184 32.2401 42.7824 35.0795 40.837 36.1725L29.0049 42.8201C26.2049 44.3933 22.7951 44.3933 19.9951 42.8201L8.3356 36.2695C6.35679 35.1577 6.46583 32.2555 8.52239 31.2974L12.8267 29.2922M29.0049 23.6223L41.0781 16.8392C42.9739 15.7741 42.974 13.0281 41.0782 11.963L29.0049 5.17986C26.2049 3.60672 22.7951 3.60671 19.9951 5.17986L7.92185 11.963C6.02605 13.0281 6.02605 15.7741 7.92185 16.8392L19.9951 23.6223C22.7951 25.1955 26.2049 25.1955 29.0049 23.6223Z" stroke="#4CAF4F" stroke-width="3"/>
</svg>
