<svg width="19" height="18" viewBox="0 0 19 18" fill="none" xmlns="http://www.w3.org/2000/svg">
<path fill-rule="evenodd" clip-rule="evenodd" d="M9.50081 0.247559C7.18327 0.247559 6.89243 0.257692 5.98219 0.299115C5.07374 0.340715 4.45364 0.484539 3.91106 0.695563C3.34981 0.913521 2.87372 1.20508 2.3994 1.67957C1.92473 2.15389 1.63317 2.62998 1.4145 3.19106C1.20294 3.73382 1.05894 4.35409 1.01805 5.26219C0.977342 6.17242 0.966675 6.46345 0.966675 8.78098C0.966675 11.0985 0.976986 11.3885 1.01823 12.2987C1.06001 13.2072 1.20383 13.8273 1.41468 14.3698C1.63282 14.9311 1.92437 15.4072 2.39887 15.8815C2.87301 16.3562 3.3491 16.6484 3.90999 16.8664C4.45293 17.0774 5.07321 17.2212 5.98148 17.2628C6.89171 17.3043 7.18238 17.3144 9.49974 17.3144C11.8175 17.3144 12.1074 17.3043 13.0176 17.2628C13.9261 17.2212 14.5469 17.0774 15.0898 16.8664C15.6509 16.6484 16.1263 16.3562 16.6004 15.8815C17.0751 15.4072 17.3667 14.9311 17.5853 14.37C17.7951 13.8273 17.9391 13.207 17.9818 12.2989C18.0227 11.3887 18.0333 11.0985 18.0333 8.78098C18.0333 6.46345 18.0227 6.1726 17.9818 5.26237C17.9391 4.35391 17.7951 3.73382 17.5853 3.19123C17.3667 2.62998 17.0751 2.15389 16.6004 1.67957C16.1258 1.2049 15.6511 0.913343 15.0893 0.695563C14.5453 0.484539 13.9249 0.340715 13.0164 0.299115C12.1062 0.257692 11.8164 0.247559 9.49814 0.247559H9.50081ZM8.73525 1.78533C8.96245 1.78497 9.21597 1.78533 9.50077 1.78533C11.7792 1.78533 12.0492 1.79351 12.949 1.8344C13.781 1.87244 14.2326 2.01146 14.5334 2.12827C14.9316 2.28293 15.2155 2.46782 15.514 2.76649C15.8127 3.06516 15.9976 3.34961 16.1526 3.74784C16.2694 4.04829 16.4086 4.49985 16.4464 5.33185C16.4873 6.23142 16.4962 6.50165 16.4962 8.779C16.4962 11.0564 16.4873 11.3266 16.4464 12.2261C16.4084 13.0582 16.2694 13.5097 16.1526 13.8102C15.9979 14.2084 15.8127 14.492 15.514 14.7904C15.2153 15.0891 14.9318 15.274 14.5334 15.4287C14.2329 15.546 13.781 15.6847 12.949 15.7227C12.0494 15.7636 11.7792 15.7725 9.50077 15.7725C7.22217 15.7725 6.95212 15.7636 6.05256 15.7227C5.22055 15.6843 4.76899 15.5453 4.46801 15.4285C4.06978 15.2738 3.78533 15.0889 3.48666 14.7903C3.18799 14.4916 3.0031 14.2079 2.84808 13.8095C2.73128 13.509 2.59208 13.0574 2.55421 12.2254C2.51332 11.3259 2.50514 11.0556 2.50514 8.77687C2.50514 6.49809 2.51332 6.22929 2.55421 5.32972C2.59226 4.49771 2.73128 4.04615 2.84808 3.74535C3.00275 3.34712 3.18799 3.06267 3.48666 2.76401C3.78533 2.46534 4.06978 2.28044 4.46801 2.12542C4.76881 2.00809 5.22055 1.86942 6.05256 1.8312C6.83977 1.79564 7.14484 1.78497 8.73525 1.7832V1.78533ZM14.0558 3.20224C13.4905 3.20224 13.0318 3.66037 13.0318 4.22589C13.0318 4.79123 13.4905 5.2499 14.0558 5.2499C14.6212 5.2499 15.0799 4.79123 15.0799 4.22589C15.0799 3.66055 14.6212 3.20224 14.0558 3.20224ZM9.50082 4.39869C7.08071 4.39869 5.11855 6.36084 5.11855 8.78096C5.11855 11.2011 7.08071 13.1623 9.50082 13.1623C11.9209 13.1623 13.8824 11.2011 13.8824 8.78096C13.8824 6.36084 11.9209 4.39869 9.50082 4.39869ZM9.50079 5.93648C11.0717 5.93648 12.3453 7.20992 12.3453 8.78096C12.3453 10.3518 11.0717 11.6254 9.50079 11.6254C7.92975 11.6254 6.65632 10.3518 6.65632 8.78096C6.65632 7.20992 7.92975 5.93648 9.50079 5.93648Z" fill="white"/>
</svg>
