<svg width="19" height="18" viewBox="0 0 19 18" fill="none" xmlns="http://www.w3.org/2000/svg">
<path fill-rule="evenodd" clip-rule="evenodd" d="M18.0333 8.76906C18.0333 9.34615 17.9746 9.92244 17.8592 10.4842C17.7467 11.0326 17.58 11.571 17.3617 12.0857C17.1483 12.5913 16.8837 13.0785 16.5745 13.5328C16.27 13.9843 15.9191 14.4079 15.5337 14.794C15.1474 15.1785 14.7224 15.5284 14.2711 15.8342C13.8152 16.1413 13.3273 16.4055 12.8215 16.6198C12.306 16.837 11.7664 17.0034 11.2184 17.1158C10.6559 17.2315 10.0776 17.2905 9.49962 17.2905C8.92126 17.2905 8.3429 17.2315 7.78121 17.1158C7.23244 17.0034 6.69283 16.837 6.17779 16.6198C5.67195 16.4055 5.18357 16.1413 4.72772 15.8342C4.27645 15.5284 3.85143 15.1785 3.46599 14.794C3.08015 14.4079 2.72928 13.9843 2.42427 13.5328C2.11675 13.0785 1.85172 12.5912 1.63755 12.0857C1.41918 11.571 1.25211 11.0326 1.13919 10.4842C1.02503 9.92244 0.966675 9.34615 0.966675 8.76906C0.966675 8.19154 1.02499 7.61401 1.13922 7.05349C1.25215 6.50509 1.41922 5.96585 1.63759 5.45199C1.85175 4.94604 2.11678 4.4584 2.4243 4.00401C2.72931 3.55215 3.08018 3.12938 3.46602 2.74283C3.85146 2.35835 4.27648 2.00928 4.72775 1.70388C5.1836 1.39554 5.67198 1.13136 6.17783 0.916636C6.69286 0.69898 7.23244 0.532152 7.78124 0.420656C8.34294 0.305825 8.9213 0.247559 9.49966 0.247559C10.0776 0.247559 10.6559 0.305825 11.2185 0.420656C11.7664 0.532186 12.306 0.699013 12.8215 0.916636C13.3273 1.13132 13.8153 1.39554 14.2711 1.70388C14.7224 2.00928 15.1475 2.35835 15.5337 2.74283C15.9191 3.12938 16.27 3.55215 16.5746 4.00401C16.8837 4.4584 17.1483 4.94607 17.3617 5.45199C17.58 5.96585 17.7467 6.50509 17.8592 7.05349C17.9746 7.61401 18.0333 8.19154 18.0333 8.76906ZM6.39026 2.18694C4.35805 3.14521 2.84131 5.0151 2.36836 7.26864C2.56048 7.2703 5.5973 7.30859 9.09622 6.38027C7.83492 4.14254 6.48735 2.31638 6.39026 2.18694ZM9.7 7.50084C5.94774 8.62257 2.34711 8.54186 2.21795 8.53689C2.21585 8.6151 2.21211 8.69081 2.21211 8.76905C2.21211 10.6385 2.91839 12.3428 4.07929 13.6315C4.07678 13.6277 6.07108 10.0947 10.0038 8.82482C10.0988 8.7932 10.1955 8.76488 10.2913 8.73744C10.1084 8.32387 9.90875 7.90944 9.7 7.50084ZM14.3124 3.30748C13.0293 2.17777 11.3447 1.49252 9.4996 1.49252C8.90748 1.49252 8.33286 1.56409 7.78242 1.6964C7.89157 1.84289 9.26042 3.65617 10.5067 5.9413C13.2565 4.91192 14.2944 3.33409 14.3124 3.30748ZM10.788 9.94325C10.7718 9.94862 10.7556 9.95326 10.7397 9.95906C6.43997 11.4559 5.03583 14.4723 5.02064 14.5052C6.25781 15.466 7.80956 16.0456 9.49965 16.0456C10.5088 16.0456 11.4701 15.8404 12.3448 15.4689C12.2368 14.8331 11.8135 12.6046 10.788 9.94325ZM13.5719 14.804C15.2082 13.7014 16.3703 11.9505 16.6945 9.92241C16.5445 9.87415 14.5057 9.22962 12.1535 9.6062C13.1093 12.2292 13.4977 14.3654 13.5719 14.804ZM11.0676 7.02564C11.2368 7.37267 11.4006 7.72586 11.5518 8.08083C11.6056 8.20817 11.6581 8.33301 11.7093 8.45781C14.2128 8.14323 16.6792 8.6725 16.7846 8.69411C16.7679 6.96904 16.15 5.38581 15.1275 4.14631C15.1137 4.16582 13.9449 5.85224 11.0676 7.02564Z" fill="white"/>
</svg>
