<svg width="16" height="14" viewBox="0 0 16 14" fill="none" xmlns="http://www.w3.org/2000/svg">
<path fill-rule="evenodd" clip-rule="evenodd" d="M8.0208 3.7861L8.05438 4.33974L7.49479 4.27195C5.45791 4.01208 3.67843 3.13078 2.16756 1.65065L1.42891 0.916235L1.23865 1.45857C0.83575 2.66753 1.09316 3.94429 1.93253 4.80299C2.3802 5.27753 2.27948 5.34532 1.50725 5.06286C1.23865 4.97247 1.00363 4.90468 0.981242 4.93857C0.9029 5.01766 1.1715 6.04584 1.38414 6.4526C1.67513 7.01753 2.26828 7.57117 2.9174 7.89883L3.46579 8.1587L2.81668 8.17C2.18994 8.17 2.16756 8.1813 2.23471 8.41857C2.45854 9.15299 3.34268 9.9326 4.32755 10.2716L5.02143 10.5088L4.41708 10.8704C3.52175 11.3901 2.46973 11.6839 1.41772 11.7065C0.914092 11.7178 0.5 11.763 0.5 11.7969C0.5 11.9099 1.86538 12.5426 2.65999 12.7912C5.04382 13.5256 7.87531 13.2092 10.0017 11.9551C11.5126 11.0625 13.0235 9.28857 13.7286 7.57117C14.1091 6.65597 14.4896 4.98377 14.4896 4.18156C14.4896 3.66182 14.5232 3.59403 15.1499 2.9726C15.5192 2.61104 15.8662 2.21559 15.9333 2.1026C16.0452 1.88792 16.034 1.88792 15.4633 2.08C14.512 2.41896 14.3777 2.37377 14.8477 1.86533C15.1947 1.50377 15.6088 0.848443 15.6088 0.656365C15.6088 0.622469 15.4409 0.678963 15.2506 0.780651C15.0492 0.893638 14.6015 1.06312 14.2658 1.16481L13.6614 1.35688L13.113 0.984027C12.8108 0.780651 12.3856 0.554677 12.1617 0.486885C11.5909 0.328703 10.718 0.3513 10.2032 0.53208C8.80422 1.04052 7.92008 2.35117 8.0208 3.7861Z" fill="white"/>
</svg>
