<svg width="19" height="14" viewBox="0 0 19 14" fill="none" xmlns="http://www.w3.org/2000/svg">
<path fill-rule="evenodd" clip-rule="evenodd" d="M16.1677 1.28053C16.9021 1.48204 17.4804 2.07578 17.6767 2.82979C18.0333 4.19633 18.0333 7.04764 18.0333 7.04764C18.0333 7.04764 18.0333 9.89885 17.6767 11.2655C17.4804 12.0195 16.9021 12.6132 16.1677 12.8149C14.8369 13.181 9.50001 13.181 9.50001 13.181C9.50001 13.181 4.16309 13.181 2.83218 12.8149C2.09783 12.6132 1.5195 12.0195 1.32323 11.2655C0.966675 9.89885 0.966675 7.04764 0.966675 7.04764C0.966675 7.04764 0.966675 4.19633 1.32323 2.82979C1.5195 2.07578 2.09783 1.48204 2.83218 1.28053C4.16309 0.914307 9.50001 0.914307 9.50001 0.914307C9.50001 0.914307 14.8369 0.914307 16.1677 1.28053ZM7.90002 4.64758V9.98092L12.1667 7.31435L7.90002 4.64758Z" fill="white"/>
</svg>
